<svg width="60" height="60" viewBox="0 0 60 60" fill="none" xmlns="http://www.w3.org/2000/svg">
<path d="M55 43.75H5" stroke="#141B34" stroke-width="1.5" stroke-linecap="round" stroke-linejoin="round"/>
<path d="M55 52.5V40C55 35.286 55 32.929 53.5355 31.4645C52.071 30 49.714 30 45 30H15C10.286 30 7.92892 30 6.46447 31.4645C5 32.929 5 35.286 5 40V52.5" stroke="#141B34" stroke-width="1.5" stroke-linecap="round" stroke-linejoin="round"/>
<path d="M27.5 30V25.5335C27.5 24.5818 27.357 24.2635 26.6243 23.8884C25.0988 23.1073 23.2466 22.5 21.25 22.5C19.2534 22.5 17.4014 23.1073 15.8756 23.8884C15.143 24.2635 15 24.5818 15 25.5335V30" stroke="#141B34" stroke-width="1.5" stroke-linecap="round"/>
<path d="M45 30V25.5335C45 24.5818 44.857 24.2635 44.1243 23.8884C42.5988 23.1073 40.7467 22.5 38.75 22.5C36.7533 22.5 34.9012 23.1073 33.3757 23.8884C32.643 24.2635 32.5 24.5818 32.5 25.5335V30" stroke="#141B34" stroke-width="1.5" stroke-linecap="round"/>
<path d="M52.5 30V18.4014C52.5 16.6723 52.5 15.8078 52.0197 14.9913C51.5392 14.1749 50.855 13.7523 49.486 12.9071C43.9672 9.49945 37.2483 7.5 30 7.5C22.7517 7.5 16.0329 9.49945 10.514 12.9071C9.1451 13.7523 8.46068 14.1749 7.98033 14.9913C7.5 15.8078 7.5 16.6723 7.5 18.4014V30" stroke="#141B34" stroke-width="1.5" stroke-linecap="round"/>
</svg>
