<svg width="60" height="60" viewBox="0 0 60 60" fill="none" xmlns="http://www.w3.org/2000/svg">
<path d="M23.75 7.5H36.25" stroke="#141B34" stroke-width="1.5" stroke-linecap="round" stroke-linejoin="round"/>
<path d="M30.0312 7.5V42.446" stroke="#141B34" stroke-width="1.5" stroke-linecap="round" stroke-linejoin="round"/>
<path d="M11.25 35V29.375C11.25 24.1973 15.4473 20 20.625 20C25.8027 20 30 24.1973 30 29.375M30 29.375V30M30 29.375C30 24.1973 34.1973 20 39.375 20C44.5527 20 48.75 24.1973 48.75 29.375V35" stroke="#141B34" stroke-width="1.5" stroke-linecap="round"/>
<path d="M42.7802 41.382L45.765 35.691C45.9872 35.2675 46.4412 35 46.938 35H50.562C51.0587 35 51.5127 35.2675 51.735 35.691L54.7197 41.382C55.5915 43.0442 54.3237 45 52.3742 45H45.1257C43.1762 45 41.9085 43.0442 42.7802 41.382Z" stroke="#141B34" stroke-width="1.5" stroke-linecap="round" stroke-linejoin="round"/>
<path d="M5.28025 41.382L8.26513 35.691C8.48723 35.2675 8.94128 35 9.43793 35H13.0621C13.5587 35 14.0128 35.2675 14.2349 35.691L17.2197 41.382C18.0916 43.0442 16.8236 45 14.8741 45H7.62585C5.67635 45 4.4084 43.0442 5.28025 41.382Z" stroke="#141B34" stroke-width="1.5" stroke-linecap="round" stroke-linejoin="round"/>
<path d="M23.6418 48.675L27.134 43.0875C27.3625 42.722 27.763 42.5 28.194 42.5H31.8085C32.2392 42.5 32.64 42.722 32.8685 43.0875L36.3605 48.675C37.4012 50.34 36.2042 52.5 34.2405 52.5H25.7617C23.7982 52.5 22.6011 50.34 23.6418 48.675Z" stroke="#141B34" stroke-width="1.5" stroke-linecap="round" stroke-linejoin="round"/>
</svg>
