<svg width="60" height="60" viewBox="0 0 60 60" fill="none" xmlns="http://www.w3.org/2000/svg">
<path d="M30 25V47.5" stroke="#141B34" stroke-width="1.5" stroke-linejoin="round"/>
<path d="M20 55H40" stroke="#141B34" stroke-width="1.5" stroke-linecap="round" stroke-linejoin="round"/>
<path d="M22.5 55L24.4302 49.2095C24.7705 48.1885 25.7258 47.5 26.8018 47.5H33.198C34.2743 47.5 35.2295 48.1885 35.5698 49.2095L37.5 55" stroke="#141B34" stroke-width="1.5" stroke-linecap="round" stroke-linejoin="round"/>
<path d="M38.668 25.0098V32.4975" stroke="#141B34" stroke-width="1.5" stroke-linecap="round" stroke-linejoin="round"/>
<path d="M38.7081 7.97487L44.6941 21.4873C45.4263 23.1402 44.2161 24.9999 42.4081 24.9998L17.5651 24.9988C15.7642 24.9987 14.5541 23.152 15.2731 21.5008L21.1498 8.00395C21.9441 6.1797 23.7444 5 25.7341 5H34.1366C36.1148 5 37.9071 6.16622 38.7081 7.97487Z" stroke="#141B34" stroke-width="1.5" stroke-linejoin="round"/>
</svg>
