<?xml version="1.0" standalone="no"?>
<!DOCTYPE svg PUBLIC "-//W3C//DTD SVG 1.1//EN" "http://www.w3.org/Graphics/SVG/1.1/DTD/svg11.dtd" >
<svg xmlns="http://www.w3.org/2000/svg" xmlns:xlink="http://www.w3.org/1999/xlink" version="1.1">
<metadata>
Created by FontForge 20201107 at Fri Jul  1 11:41:02 2022
 By 
</metadata>
<defs>
<font id="Felidae-Regular" horiz-adv-x="630" >
  <font-face 
    font-family="Felidae"
    font-weight="400"
    font-stretch="normal"
    units-per-em="1000"
    panose-1="0 0 0 0 0 0 0 0 0 0"
    ascent="750"
    descent="-250"
    x-height="500"
    cap-height="700"
    bbox="-41 -260 1068 844"
    underline-thickness="50"
    underline-position="-125"
    unicode-range="U+000D-2014"
  />
<missing-glyph horiz-adv-x="250" 
 />
    <glyph glyph-name=".notdef" horiz-adv-x="250" 
 />
    <glyph glyph-name=".null" horiz-adv-x="0" 
 />
    <glyph glyph-name=".null" horiz-adv-x="0" 
 />
    <glyph glyph-name="uni000D" unicode="&#xd;" horiz-adv-x="250" 
 />
    <glyph glyph-name="space" unicode=" " horiz-adv-x="250" 
 />
    <glyph glyph-name="exclam" unicode="!" horiz-adv-x="87" 
d="M19 395l-2.5 40t-3 51.5t-2.5 56t-1 54.5q0 25 0.5 46t3.5 36t10 23t20 8t19.5 -8.5t9.5 -24t3 -36v-44.5q0 -26 -1 -54.5t-2.5 -55.5t-3 -51t-2.5 -41l-16 -264h-14zM11 25q0 15 9 23.5t24 8.5t24 -8.5t9 -23.5t-9 -22.5t-24 -7.5t-24 7.5t-9 22.5z" />
    <glyph glyph-name="numbersign" unicode="#" horiz-adv-x="493" 
 />
    <glyph glyph-name="dollar" unicode="$" horiz-adv-x="520" 
 />
    <glyph glyph-name="percent" unicode="%" horiz-adv-x="831" 
 />
    <glyph glyph-name="parenleft" unicode="(" horiz-adv-x="253" 
d="M30 288q0 69 12.5 124t36.5 103.5t57.5 93.5t75.5 92l11 -10q-77 -95 -115 -200t-38 -203t38 -203t115 -200l-11 -10q-42 47 -75.5 92t-57.5 93.5t-36.5 103.5t-12.5 124z" />
    <glyph glyph-name="parenright" unicode=")" horiz-adv-x="253" 
d="M223 288q0 -69 -12.5 -124t-36.5 -103.5t-57.5 -93.5t-75.5 -92l-11 10q77 95 115 200t38 203t-38 203t-115 200l11 10q42 -47 75.5 -92t57.5 -93.5t36.5 -103.5t12.5 -124z" />
    <glyph glyph-name="asterisk" unicode="*" horiz-adv-x="324" 
d="M175 599q6 -6 21 -20t29.5 -30.5t21.5 -31.5t-4 -24q-10 -8 -22.5 3.5t-23.5 29.5t-20.5 37t-14.5 27q-4 -7 -12.5 -26t-19.5 -38t-23.5 -30.5t-24.5 -3.5q-11 8 -4 23.5t21 32t29 31t21 20.5q-8 2 -29 4t-42 7t-36 13.5t-11 21.5q4 11 18 11q12 0 27.5 -5.5t30.5 -13
t27.5 -14t18.5 -9.5q-1 8 -5 29t-6 42.5t1.5 38t17.5 16.5t17.5 -16.5t2 -38.5t-5.5 -42.5t-5 -28.5q6 3 18.5 10t27.5 14.5t30 13.5t27 6q15 0 19 -12q5 -13 -10 -21t-36 -13.5t-42 -8t-29 -4.5z" />
    <glyph glyph-name="plus" unicode="+" horiz-adv-x="430" 
d="M30 335h165v165h40v-165h165v-40h-165v-165h-40v165h-165v40z" />
    <glyph glyph-name="comma" unicode="," horiz-adv-x="144" 
d="M24 26q0 28 30 28q19 0 28 -11.5t9 -28.5q0 -21 -11 -38.5t-37 -33.5l-4 5q11 7 19.5 17t13 18.5t4 14t-6.5 3.5q-4 -1 -7 -1.5t-8 -0.5q-30 0 -30 28z" />
    <glyph glyph-name="hyphen" unicode="-" horiz-adv-x="340" 
d="M30 321h280v-40h-280v40z" />
    <glyph glyph-name="period" unicode="." horiz-adv-x="133" 
d="M27 25q0 15 9 23.5t24 8.5t24 -8.5t9 -23.5t-9 -22.5t-24 -7.5t-24 7.5t-9 22.5z" />
    <glyph glyph-name="slash" unicode="/" horiz-adv-x="355" 
d="M285 700h40l-255 -700h-40z" />
    <glyph glyph-name="zero" unicode="0" horiz-adv-x="463" 
d="M231 710q50 0 92.5 -26.5t73.5 -74.5t48.5 -114t17.5 -145t-17.5 -145t-48.5 -114t-73.5 -74.5t-92.5 -26.5t-92.5 26.5t-73 74.5t-48 114t-17.5 145t17.5 145t48 114t73 74.5t92.5 26.5zM231 5q41 0 76.5 28.5t61 76.5t40 110.5t14.5 129.5q0 68 -14.5 130t-40 110
t-61 76.5t-76.5 28.5t-76 -28.5t-60.5 -76.5t-40 -110t-14.5 -130q0 -67 14.5 -129.5t40 -110.5t60.5 -76.5t76 -28.5z" />
    <glyph glyph-name="one" unicode="1" horiz-adv-x="317" 
d="M188 700v-621q0 -26 18 -41t41 -22.5t43.5 -9t26.5 -1.5v-5h-298v5q6 0 26.5 1.5t43.5 9t41 22.5t18 41v496q0 16 -4.5 29t-15.5 13q-12 0 -28 -15l-90 -81l-10 11l186 168h2z" />
    <glyph glyph-name="two" unicode="2" horiz-adv-x="450" 
d="M220 690q-43 0 -69 -10t-41 -25t-20.5 -33t-8.5 -35q-5 -33 -15 -42t-23 -8q-15 2 -19.5 15.5t-2.5 23.5q4 24 19 47.5t40.5 43t60.5 31.5t79 12q30 0 66.5 -8t68.5 -30t53.5 -61t21.5 -101q0 -58 -28.5 -111t-78.5 -108t-118 -116t-148 -135h337q18 0 28 9t15.5 20.5
t6.5 22.5t1 15h5v-107h-450v6l36 34q90 92 156.5 157.5t110.5 118t65.5 97.5t21.5 96t-16.5 85.5t-42 55.5t-55.5 30.5t-56 9.5z" />
    <glyph glyph-name="three" unicode="3" horiz-adv-x="439" 
d="M204 20q33 0 67.5 12t63 36t46.5 60t18 84q0 43 -20 74.5t-49 52.5t-63.5 31.5t-63.5 10.5v15l211 264h-343q-18 0 -28 -9t-15.5 -20.5t-6.5 -22.5t-1 -15h-5v107h420v-40l-211 -265q32 -2 70 -11t70 -30t53.5 -55t21.5 -87q0 -51 -19 -92t-51 -70t-74 -44.5t-89 -15.5
q-35 0 -67.5 10.5t-59.5 28.5t-47 41.5t-32 50.5l14 5q14 -21 34 -40.5t44 -34t52.5 -23t59.5 -8.5z" />
    <glyph glyph-name="four" unicode="4" horiz-adv-x="448" 
d="M308 625l-285 -434h286v433zM349 79q0 -26 12 -41t27 -22.5t29.5 -9t20.5 -1.5v-5h-258v5q6 0 26.5 1.5t43.5 9t41 22.5t18 41v95h-309v17l339 519h10v-519h99v-17h-99v-95z" />
    <glyph glyph-name="five" unicode="5" horiz-adv-x="440" 
d="M440 222q0 -55 -17.5 -98t-49 -73t-74.5 -45.5t-93 -15.5q-35 0 -67.5 10.5t-59.5 28.5t-47 41.5t-32 50.5l14 5q14 -21 34 -40.5t44 -34t52.5 -23t59.5 -8.5q37 0 72 13.5t62.5 39t44.5 63.5t17 86t-17 88t-46.5 68.5t-69 44.5t-83.5 16q-28 0 -55 -4.5t-48 -10
t-35 -10.5t-18 -6l48 292h288q29 0 38.5 4.5t16.5 12.5h6l-15 -57h-325l-38 -229q11 5 27 10.5t34.5 10.5t38.5 8.5t39 3.5q58 0 105 -17.5t80 -49t51 -76t18 -99.5z" />
    <glyph glyph-name="six" unicode="6" horiz-adv-x="428" 
d="M214 -10q-67 0 -109.5 27.5t-66.5 72t-33 99t-9 108.5q0 74 16.5 146.5t58 130.5t112 95.5t178.5 40.5v-15q-74 -2 -127 -25.5t-89 -58.5t-57.5 -77.5t-32.5 -83t-14.5 -74.5t-3.5 -53h1q12 32 32 56t43.5 41t49.5 25.5t51 8.5q47 0 86 -15.5t67.5 -45.5t44.5 -73t16 -98
t-16 -98t-44.5 -73t-67.5 -45.5t-86 -15.5zM214 5q33 0 64.5 16t55.5 44.5t39 68.5t15 88t-15 88t-39 68.5t-55.5 44.5t-64.5 16t-64.5 -16t-55.5 -44.5t-39 -68.5t-15 -88t15 -88t39 -68.5t55.5 -44.5t64.5 -16z" />
    <glyph glyph-name="seven" unicode="7" horiz-adv-x="380" 
d="M380 661l-199 -661h-50l234 661l-309 -2q-18 0 -28 -9t-15 -20.5t-6 -22.5t-1 -15h-6v108h380v-39z" />
    <glyph glyph-name="eight" unicode="8" horiz-adv-x="400" 
d="M200 710q26 0 57.5 -8t58.5 -27t45.5 -49.5t18.5 -75.5q0 -35 -11.5 -61t-30.5 -45.5t-44 -34.5t-53 -28q30 -15 59 -33.5t51 -43t35.5 -57t13.5 -77.5q0 -41 -16 -74.5t-43 -57t-63.5 -36t-77.5 -12.5t-77.5 12.5t-63.5 36t-43 57t-16 74.5q0 46 14 78t37 55t52.5 39
t60.5 30q-28 14 -54 29.5t-46 36t-32 48t-12 64.5q0 45 18.5 75.5t45.5 49.5t58.5 27t57.5 8zM200 695q-22 0 -47 -8.5t-45.5 -26.5t-34 -45t-13.5 -65q0 -31 13 -54t34 -41t48.5 -32.5t57.5 -28.5q26 12 49 25.5t40.5 31.5t27.5 42t10 57q0 38 -13.5 65t-34 45t-45 26.5
t-47.5 8.5zM194 358q-30 -14 -58 -30t-49 -37.5t-34 -50.5t-13 -70q0 -45 15 -76.5t38.5 -51t52 -28.5t54.5 -9t54.5 9t52 28.5t38.5 51t15 76.5q0 41 -14.5 69.5t-37.5 50t-53 37.5t-61 31z" />
    <glyph glyph-name="nine" unicode="9" horiz-adv-x="428" 
d="M428 478q5 -54 2.5 -110t-15.5 -109.5t-38.5 -101.5t-67.5 -84t-101.5 -58.5t-140.5 -24.5v15q74 2 127 25.5t89 58.5t57.5 77.5t32.5 83t14.5 74.5t3.5 53h-1q-12 -31 -32 -55.5t-43.5 -41.5t-49.5 -25.5t-51 -8.5q-46 0 -85.5 15.5t-68 45.5t-44.5 73t-16 98t16 98
t44.5 73t68 45.5t85.5 15.5q94 0 148.5 -61t65.5 -171zM214 261q33 0 64.5 16t55.5 44.5t39 68.5t15 88t-15 88t-39 68.5t-55.5 44.5t-64.5 16t-64.5 -16t-55.5 -44.5t-39 -68.5t-15 -88t15 -88t39 -68.5t55.5 -44.5t64.5 -16z" />
    <glyph glyph-name="colon" unicode=":" horiz-adv-x="134" 
d="M35 418q0 15 9 23.5t24 8.5t24 -8.5t9 -23.5t-9 -22.5t-24 -7.5t-24 7.5t-9 22.5zM35 25q0 15 9 23.5t24 8.5t24 -8.5t9 -23.5t-9 -22.5t-24 -7.5t-24 7.5t-9 22.5z" />
    <glyph glyph-name="semicolon" unicode=";" horiz-adv-x="144" 
d="M35 418q0 15 9 23.5t24 8.5t24 -8.5t9 -23.5t-9 -22.5t-24 -7.5t-24 7.5t-9 22.5zM38 26q0 28 30 28q19 0 28 -11.5t9 -28.5q0 -21 -11 -38.5t-37 -33.5l-4 5q11 7 19.5 17t13 18.5t4 14t-6.5 3.5q-4 -1 -7 -1.5t-8 -0.5q-30 0 -30 28z" />
    <glyph glyph-name="less" unicode="&#x3c;" horiz-adv-x="580" 
d="M550 44v-44l-519 230l-1 -1v45h1l519 229v-44l-469 -207z" />
    <glyph glyph-name="equal" unicode="=" horiz-adv-x="450" 
d="M30 410h390v-40h-390v40zM30 250h390v-40h-390v40z" />
    <glyph glyph-name="greater" unicode="&#x3e;" horiz-adv-x="580" 
d="M30 459v44l519 -230l1 1v-45h-1l-519 -229v44l469 207z" />
    <glyph glyph-name="question" unicode="?" horiz-adv-x="378" 
d="M195 695q-36 0 -58.5 -10.5t-36.5 -27t-20 -35t-9 -35.5q-5 -33 -15 -42t-23 -8q-15 2 -19.5 15.5t-2.5 23.5q4 24 17 47.5t35 43t53.5 31.5t71.5 12q30 0 62 -7.5t58 -27t43 -52.5t17 -84q0 -39 -14 -72t-35.5 -63t-46 -60t-46 -62t-35.5 -69t-14 -82h-14
q0 58 10.5 98.5t27 72t35 57t35 51.5t27 56.5t10.5 72.5q0 43 -10.5 73t-27 48.5t-36.5 26.5t-39 8zM137 25q0 15 9 23.5t24 8.5t24 -8.5t9 -23.5t-9 -22.5t-24 -7.5t-24 7.5t-9 22.5z" />
    <glyph glyph-name="A" unicode="A" 
d="M101 79q-6 -19 0 -32.5t17 -23.5q12 -11 30 -18v-5h-148v5q2 0 12.5 4.5t23.5 13.5t26 23t19 33l188 546q6 21 -3 34.5t-22.5 21.5t-26.5 11t-15 3v5h133l214 -621q6 -19 19 -33t26 -23t23.5 -13.5t12.5 -4.5v-5h-148v5q12 7 20 18q7 10 10.5 23.5t-3.5 32.5l-70 204
h-268zM306 671h-2l-128 -373h258z" />
    <glyph glyph-name="B" unicode="B" horiz-adv-x="518" 
d="M54 621q0 12 -5 24t-12.5 22.5t-17 18t-19.5 9.5v5h208q106 0 169 -39.5t63 -123.5q0 -24 -6.5 -48.5t-22 -45t-41.5 -36t-65 -22.5q45 -2 84 -13.5t67.5 -34.5t45 -59.5t16.5 -89.5q0 -63 -28 -100t-70 -56.5t-90 -25.5t-88 -6h-242v5q9 2 19 9t17.5 17.5t12.5 23
t5 24.5v542zM94 685v-296q-2 0 18 0h45t46.5 0.5l21.5 0.5q84 5 129.5 41t45.5 106t-50 109t-152 39h-104zM242 15q33 0 74 6.5t77 25t60.5 53t24.5 90.5q0 44 -13 74t-34.5 50t-50 31t-60 17t-64 8t-62.5 4h-100v-359h148z" />
    <glyph glyph-name="C" unicode="C" horiz-adv-x="550" 
d="M40 350q0 -68 21 -129.5t57 -108.5t84.5 -74.5t102.5 -27.5q81 0 137.5 33t96.5 102l13 -7q-18 -31 -41.5 -58.5t-53.5 -47t-67.5 -31t-84.5 -11.5q-74 0 -131 27.5t-95.5 75.5t-58.5 114t-20 144t24 144t66.5 114t101.5 74.5t128 26.5q38 0 67 -9t50.5 -21.5t37.5 -26
t29 -22.5q10 -7 17 -7t10.5 5t3.5 9h5v-133h-5q-9 39 -29.5 72t-50.5 57t-67 37.5t-78 13.5q-62 0 -112 -27t-85 -73t-54 -106.5t-19 -128.5z" />
    <glyph glyph-name="D" unicode="D" horiz-adv-x="610" 
d="M94 15h172q65 0 121 27.5t96.5 73.5t63.5 106.5t23 127.5t-23 127.5t-63.5 106.5t-96.5 73.5t-121 27.5h-172v-670zM266 700q74 0 136.5 -25t109 -71t72.5 -110.5t26 -143.5t-26 -143.5t-72.5 -110.5t-109 -71t-136.5 -25h-266v5q2 0 10.5 4.5t18.5 13.5t17.5 23t7.5 33
v542q0 19 -7.5 33t-17.5 23t-18.5 13.5t-10.5 4.5v5h266z" />
    <glyph glyph-name="E" unicode="E" horiz-adv-x="500" 
d="M0 0v5q2 0 10.5 4.5t18.5 13.5t17.5 23t7.5 33v542q0 19 -7.5 33t-17.5 23t-18.5 13.5t-10.5 4.5v5h490v-144h-5q0 6 -1.5 26.5t-9 43.5t-22.5 41t-41 18h-317v-317h181q23 0 37.5 10.5t22.5 23.5q9 14 14 33h5v-149h-5q0 2 -3 12.5t-11.5 22.5t-22.5 22t-37 10h-181
v-338h327q26 0 41 18t22.5 41t9 43.5t1.5 26.5h5v-144h-500z" />
    <glyph glyph-name="F" unicode="F" horiz-adv-x="480" 
d="M94 79q0 -19 8.5 -32.5t18.5 -23.5q12 -11 27 -18v-5h-148v5q2 0 10.5 4.5t18.5 13.5t17.5 23t7.5 33v542q0 19 -7.5 33t-17.5 23t-18.5 13.5t-10.5 4.5v5h480v-144h-5q0 6 -1.5 26.5t-9 43.5t-22.5 41t-41 18h-307v-317h181q23 0 37.5 10.5t22.5 23.5q9 14 14 33h5v-149
h-5q0 2 -3 12.5t-11.5 22.5t-22.5 22t-37 10h-181v-274z" />
    <glyph glyph-name="G" unicode="G" horiz-adv-x="561" 
d="M305 10q50 0 91.5 15.5t71.5 43t46.5 64.5t16.5 80q0 31 -11 50.5t-33.5 31t-56 15.5t-78.5 4v5h209v-319h-5l-35 94h-1q-36 -46 -87.5 -75t-127.5 -29q-74 0 -131 27.5t-95.5 75.5t-58.5 114t-20 143q0 79 24 145t66.5 114t101.5 74.5t128 26.5q38 0 67 -9t50.5 -21.5
t37.5 -26t29 -22.5q10 -7 17 -7t10.5 5t3.5 9h5v-133h-5q-9 39 -29.5 72t-50.5 57t-67 37.5t-78 13.5q-62 0 -112 -27t-85 -73t-54 -106.5t-19 -128.5t21 -129.5t57 -108.5t84.5 -74.5t102.5 -27.5z" />
    <glyph glyph-name="H" unicode="H" horiz-adv-x="610" 
d="M54 621q0 19 -7.5 33t-17.5 23t-18.5 13.5t-10.5 4.5v5h148v-5q-15 -7 -27 -18q-10 -9 -18.5 -23t-8.5 -33v-233h422v233q0 19 -7.5 33t-17.5 23t-18.5 13.5t-10.5 4.5v5h148v-5q-15 -7 -27 -18q-10 -9 -18.5 -23t-8.5 -33v-542q0 -19 8.5 -32.5t18.5 -23.5
q12 -11 27 -18v-5h-148v5q2 0 10.5 4.5t18.5 13.5t17.5 23t7.5 33v294h-422v-294q0 -19 8.5 -32.5t18.5 -23.5q12 -11 27 -18v-5h-148v5q2 0 10.5 4.5t18.5 13.5t17.5 23t7.5 33v542z" />
    <glyph glyph-name="I" unicode="I" horiz-adv-x="148" 
d="M54 621q0 19 -7.5 33t-17.5 23t-18.5 13.5t-10.5 4.5v5h148v-5q-15 -7 -27 -18q-10 -9 -18.5 -23t-8.5 -33v-542q0 -19 8.5 -32.5t18.5 -23.5q12 -11 27 -18v-5h-148v5q2 0 10.5 4.5t18.5 13.5t17.5 23t7.5 33v542z" />
    <glyph glyph-name="J" unicode="J" horiz-adv-x="170" 
d="M76 621q0 19 -7.5 33t-17.5 23t-18.5 13.5t-10.5 4.5v5h148v-5q-15 -7 -27 -18q-10 -9 -18.5 -23t-8.5 -33v-621q0 -22 -5 -46t-18 -45.5t-35 -38.5t-56 -24l-2 5q28 11 43 29.5t22.5 39.5t9 42t1.5 38v621z" />
    <glyph glyph-name="K" unicode="K" horiz-adv-x="570" 
d="M54 621q0 19 -7.5 33t-17.5 23t-18.5 13.5t-10.5 4.5v5h148v-5q-15 -7 -27 -18q-10 -9 -18.5 -23t-8.5 -33v-260l265 260q17 19 21.5 33t3 23t-6.5 13.5t-7 4.5v5h148v-5q-26 -7 -51 -18q-22 -9 -45.5 -23t-40.5 -33l-159 -156q45 -72 85.5 -138.5t77.5 -129.5
q18 -32 37 -66t41 -62t48 -46t59 -18v-5h-214v5q6 0 19 4.5t24.5 13t17 21.5t-4.5 31q-12 19 -26.5 43.5t-34.5 56.5q-37 60 -76 125.5t-82 135.5l-99 -98v-259q0 -19 8.5 -32.5t18.5 -23.5q12 -11 27 -18v-5h-148v5q2 0 10.5 4.5t18.5 13.5t17.5 23t7.5 33v542z" />
    <glyph glyph-name="L" unicode="L" horiz-adv-x="500" 
d="M54 621q0 19 -7.5 33t-17.5 23t-18.5 13.5t-10.5 4.5v5h148v-5q-15 -7 -27 -18q-10 -9 -18.5 -23t-8.5 -33v-606h327q26 0 41 18t22.5 41t9 43.5t1.5 26.5h5v-144h-500v5q2 0 10.5 4.5t18.5 13.5t17.5 23t7.5 33v542z" />
    <glyph glyph-name="M" unicode="M" horiz-adv-x="749" 
d="M670 700l-288 -705h-15l288 705h15zM81 79q0 -19 10.5 -32.5t23.5 -23.5q14 -11 33 -18v-5h-148v5q2 0 12.5 4.5t22.5 13.5t21.5 23t9.5 33h15zM81 621v-542h-15v542h15zM66 621q0 19 -9.5 33t-21.5 23t-22.5 13.5t-12.5 4.5v5h81v-79h-15zM367 -5l-302 705h45l280 -654z
M655 621v79h94v-5q-15 -7 -27 -18q-10 -9 -18.5 -23t-8.5 -33h-40zM655 621h40v-542h-40v542zM695 79q0 -19 8.5 -32.5t18.5 -23.5q12 -11 27 -18v-5h-148v5q15 7 27 18q11 10 19 23.5t8 32.5h40z" />
    <glyph glyph-name="N" unicode="N" horiz-adv-x="628" 
d="M562 621v-621h-15l-466 645v-566q0 -19 10.5 -32.5t23.5 -23.5q14 -11 33 -18v-5h-148v5q2 0 12.5 4.5t22.5 13.5t21.5 23t9.5 33v542q0 19 -9.5 33t-21.5 23t-22.5 13.5t-12.5 4.5v5h90l457 -632v553q0 19 -10 33t-22 23t-22.5 13.5t-12.5 4.5v5h148v-5q-18 -7 -33 -18
q-12 -9 -22.5 -23t-10.5 -33z" />
    <glyph glyph-name="O" unicode="O" horiz-adv-x="620" 
d="M300 710q69 0 124.5 -26.5t94.5 -74.5t60 -114t21 -145t-21 -145t-60 -114t-94.5 -74.5t-124.5 -26.5t-124.5 26.5t-94.5 74.5t-60 114t-21 145t21 145t60 114t94.5 74.5t124.5 26.5zM300 5q62 0 110.5 28.5t81.5 76.5t50.5 110.5t17.5 129.5q0 68 -17.5 130t-50.5 110
t-81.5 76.5t-110.5 28.5t-110.5 -28.5t-81.5 -76.5t-50.5 -110t-17.5 -130q0 -67 17.5 -129.5t50.5 -110.5t81.5 -76.5t110.5 -28.5z" />
    <glyph glyph-name="P" unicode="P" horiz-adv-x="498" 
d="M94 79q0 -19 8.5 -32.5t18.5 -23.5q12 -11 27 -18v-5h-148v5q2 0 10.5 4.5t18.5 13.5t17.5 23t7.5 33v542q0 12 -5 24.5t-12.5 23t-17.5 18t-19 8.5v5h222q40 0 88 -6t90 -25.5t70 -56.5t28 -100q0 -68 -27 -108t-71.5 -61t-101.5 -27t-117 -6h-14.5t-31.5 0.5t-30 0.5
t-11 0v-232zM94 326h80q45 0 95 4.5t92 22.5t69.5 55t27.5 102q0 56 -24.5 90.5t-60.5 53.5t-77 25t-74 6h-128v-359z" />
    <glyph glyph-name="Q" unicode="Q" horiz-adv-x="600" 
d="M300 710q69 0 124.5 -26.5t94.5 -74.5t60 -114t21 -145q0 -75 -19 -139t-55 -111.5t-87.5 -76t-116.5 -32.5l-52 -31v-1q10 3 20 4t20 1q26 0 51.5 -7.5t49 -17.5t45.5 -20.5t42 -17.5q26 -8 50 -8q34 0 69 12.5t69 34.5l3 -4q-33 -30 -74 -55.5t-85 -25.5q-14 0 -32 5
q-30 9 -57.5 21t-53 23t-49 18.5t-46.5 7.5q-19 0 -37.5 -2.5t-32.5 -5.5q-17 -3 -33 -7l-7 13l110 62q-67 2 -121.5 29.5t-92 75t-58 112.5t-20.5 143q0 79 21 145t60 114t94.5 74.5t124.5 26.5zM300 5q62 0 110.5 28.5t81.5 76.5t50.5 110.5t17.5 129.5q0 68 -17.5 130
t-50.5 110t-81.5 76.5t-110.5 28.5t-110.5 -28.5t-81.5 -76.5t-50.5 -110t-17.5 -130q0 -67 17.5 -129.5t50.5 -110.5t81.5 -76.5t110.5 -28.5z" />
    <glyph glyph-name="R" unicode="R" horiz-adv-x="580" 
d="M94 346h72q29 0 61 1.5t63.5 6.5t60 15.5t50 28.5t34.5 45.5t13 66.5q0 56 -22.5 90.5t-55 53.5t-67.5 25t-61 6h-148v-339zM305 330q24 -12 42.5 -40.5t36 -65t35 -75t40 -71t52 -53t69.5 -20.5v-5h-79q-29 0 -52 24.5t-43.5 61.5t-40 79.5t-41 79.5t-47 61.5
t-57.5 24.5h-126v-252q0 -19 8.5 -32.5t18.5 -23.5q12 -11 27 -18v-5h-148v5q2 0 10.5 4.5t18.5 13.5t17.5 23t7.5 33v542q0 12 -5 24.5t-12.5 23t-17.5 18t-19 8.5v5h242q33 0 75.5 -6t80.5 -25.5t64 -56.5t26 -100q0 -49 -17 -81t-44.5 -52.5t-62 -30t-70.5 -13.5v-1
q6 -1 11 -4z" />
    <glyph glyph-name="S" unicode="S" horiz-adv-x="470" 
d="M255 5q41 0 73.5 12t55 32t34.5 46.5t12 56.5q0 39 -17.5 66.5t-46 47.5t-64 35.5t-73 30t-73.5 31.5t-64 40t-45 55t-17 77q0 53 24.5 86.5t59 53.5t72.5 27.5t64 7.5q53 0 95 -17t69 -30q10 -7 17 -7t10.5 5t3.5 9h5v-133h-5q-7 32 -25 60.5t-44 50t-58.5 34.5
t-67.5 13q-34 0 -66 -9.5t-57.5 -27.5t-41 -44t-15.5 -60q0 -52 29.5 -84.5t74 -55.5t96.5 -41.5t96.5 -43.5t74 -61.5t29.5 -95.5q0 -40 -17.5 -73.5t-47 -57.5t-68.5 -37.5t-82 -13.5q-46 0 -78.5 6t-56 15t-41 19t-33.5 17q-10 7 -17 7t-10.5 -5t-3.5 -9h-5v133h5
q8 -37 29.5 -68t53 -53t71.5 -34.5t86 -12.5z" />
    <glyph glyph-name="T" unicode="T" horiz-adv-x="536" 
d="M288 79q0 -19 8.5 -32.5t18.5 -23.5q12 -11 27 -18v-5h-148v5q2 0 10.5 4.5t18.5 13.5t17.5 23t7.5 33v606h-169q-26 0 -41 -18t-22.5 -41t-9 -43.5t-1.5 -26.5h-5v144h536v-144h-5q0 6 -1.5 26.5t-9 43.5t-22.5 41t-41 18h-169v-606z" />
    <glyph glyph-name="U" unicode="U" horiz-adv-x="598" 
d="M54 621q0 19 -7.5 33t-17.5 23t-18.5 13.5t-10.5 4.5v5h148v-5q-15 -7 -27 -18q-10 -9 -18.5 -23t-8.5 -33v-381q2 -54 17 -95t41.5 -68.5t62 -42t78.5 -14.5q65 0 108.5 16.5t69 45.5t36 69.5t10.5 88.5v381q0 19 -10 33t-22 23t-22.5 13.5t-12.5 4.5v5h148v-5
q-18 -7 -33 -18q-12 -9 -22.5 -23t-10.5 -33v-381q0 -54 -13.5 -98.5t-42.5 -76t-74 -48.5t-109 -17t-109 17.5t-74 49t-42.5 75.5t-13.5 98v381z" />
    <glyph glyph-name="V" unicode="V" horiz-adv-x="635" 
d="M310 0l-225 621q-6 19 -20 33t-28 23q-17 11 -37 18v5h148v-5q-2 0 -7.5 -4.5t-10.5 -13.5t-7 -23t4 -33l204 -559l191 559q6 19 2 33t-11.5 23t-15.5 13.5t-10 4.5v5h148v-5q-23 -7 -43 -18q-17 -9 -33 -23t-22 -33l-212 -621h-15z" />
    <glyph glyph-name="W" unicode="W" horiz-adv-x="923" 
d="M280 0l-195 621q-6 19 -20 33t-28 23q-17 11 -37 18v5h148v-5q-2 0 -7.5 -4.5t-10.5 -13.5t-7 -23t4 -33l170 -548l150 627h15l187 -628l161 549q6 19 2 33t-11.5 23t-15.5 13.5t-10 4.5v5h148v-5q-23 -7 -43 -18q-17 -9 -33 -23t-22 -33l-182 -621h-15l-185 622
l-148 -622h-15z" />
    <glyph glyph-name="X" unicode="X" horiz-adv-x="615" 
d="M104 621q-11 19 -27 33t-31 23q-17 11 -36 18v5h148v-5q-2 0 -7 -4.5t-8.5 -13.5t-2.5 -23t12 -33l163 -239l162 239q11 19 10 33t-7 23t-13.5 13.5t-9.5 4.5v5h148v-5q-23 -7 -44 -18q-18 -9 -36.5 -23t-29.5 -33l-171 -253l197 -289q11 -19 27 -32.5t31 -23.5
q17 -11 36 -18v-5h-148v5q2 0 7 4.5t8.5 13.5t2.5 23t-12 33l-173 254l-172 -254q-11 -19 -10 -33t7 -23t13.5 -13.5t9.5 -4.5v-5h-148v5q22 7 43 18q18 10 36.5 23.5t30.5 32.5l181 267z" />
    <glyph glyph-name="Y" unicode="Y" horiz-adv-x="595" 
d="M98 621q-11 19 -27.5 33t-32.5 23q-18 11 -38 18v5h148v-5q-2 0 -7.5 -3.5t-8.5 -11.5t-2 -21t13 -33l169 -258l154 253q11 20 10.5 34t-6.5 23t-13.5 13t-9.5 4v5h148v-5q-23 -7 -45 -18q-18 -9 -36.5 -23t-29.5 -33l-166 -273v-269q0 -19 8.5 -32.5t18.5 -23.5
q12 -11 27 -18v-5h-148v5q2 0 10.5 4.5t18.5 13.5t17.5 23t7.5 33v270z" />
    <glyph glyph-name="Z" unicode="Z" horiz-adv-x="570" 
d="M99 685q-26 0 -41 -18t-22.5 -41t-9 -43.5t-1.5 -26.5h-5v144h540l-496 -685h427q26 0 41 18t22.5 41t9 43.5t1.5 26.5h5v-144h-567l496 685h-400z" />
    <glyph glyph-name="bracketleft" unicode="[" horiz-adv-x="134" 
d="M40 -46q0 -23 11 -36.5t25.5 -20.5t28 -9.5t19.5 -2.5v-10h-124v825h124v-10q-6 0 -19.5 -2.5t-28 -9.5t-25.5 -20.5t-11 -36.5v-667z" />
    <glyph glyph-name="backslash" unicode="\" horiz-adv-x="452" 
d="M30 700h50l332 -700h-50z" />
    <glyph glyph-name="bracketright" unicode="]" horiz-adv-x="134" 
d="M94 621q0 23 -11 36.5t-25.5 20.5t-28 9.5t-19.5 2.5v10h124v-825h-124v10q6 0 19.5 2.5t28 9.5t25.5 20.5t11 36.5v667z" />
    <glyph glyph-name="a" unicode="a" horiz-adv-x="419" 
d="M330 0l-2 2v98q-25 -26 -46.5 -46.5t-43.5 -34.5t-47.5 -21.5t-57.5 -7.5q-34 0 -61 10.5t-45 28.5t-27.5 42t-9.5 51q0 54 33.5 88.5t84.5 57.5t110 38t110 31v1q0 74 -38 114t-104 40q-36 0 -66 -19t-50 -60q-5 -9 -11.5 -13t-14.5 -4q-10 0 -17 4q-14 8 -12.5 22
t7.5 22q20 26 59.5 46t107.5 20q35 0 67 -10t57 -31t40 -53.5t15 -77.5v-266q0 -11 7 -16.5t16 -8t17 -2t9 1.5l2 -5zM328 322q-54 -16 -107 -31t-95 -36.5t-68.5 -53t-27.5 -79.5q0 -22 7 -42t22 -35t37.5 -24t51.5 -9q27 0 51 9t46 24.5t42.5 35t40.5 40.5v201z" />
    <glyph glyph-name="b" unicode="b" horiz-adv-x="449" 
d="M74 173q0 -34 13.5 -62.5t36 -49t51 -32t58.5 -11.5q38 0 70 16.5t55.5 46.5t37 71.5t13.5 92.5t-13.5 94t-37 75t-55.5 50t-70 18q-30 0 -58.5 -11.5t-51 -32t-36 -49t-13.5 -62.5v-154zM74 651v-255h1q6 15 19 35t34 37.5t50 29.5t66 12q39 0 76 -16.5t65.5 -50t46 -83
t17.5 -115.5q0 -62 -16 -109.5t-43.5 -80t-65 -49t-80.5 -16.5q-37 0 -66 12t-50 29.5t-34 37.5t-19 35h-1l-34 -104h-6v651q0 11 -4.5 19.5t-10.5 14t-11.5 8t-7.5 2.5v5h108v-5q-10 -4 -17 -11q-6 -5 -11.5 -13.5t-5.5 -19.5z" />
    <glyph glyph-name="c" unicode="c" horiz-adv-x="389" 
d="M40 248q0 -48 13.5 -91.5t37.5 -76t56.5 -51.5t70.5 -19q57 0 95.5 22t67.5 71l13 -7q-26 -45 -67.5 -75.5t-108.5 -30.5q-53 0 -93.5 19.5t-68.5 54t-42 82t-14 102.5q0 56 17 103.5t46.5 81.5t69 53t85.5 19q44 0 69.5 -9.5t43.5 -20.5q13 -8 31.5 -28.5t22.5 -45.5
q2 -10 -2.5 -23.5t-19.5 -15.5q-13 -1 -21.5 5.5t-13.5 23.5q-2 7 -3.5 18t-6 23t-14 23.5t-26.5 19.5q-13 6 -26 10t-34 4q-43 0 -76.5 -19.5t-56 -53t-34 -77t-11.5 -91.5z" />
    <glyph glyph-name="d" unicode="d" horiz-adv-x="466" 
d="M216 18q30 0 58.5 11.5t51 32t36 49t13.5 62.5v154q0 34 -13.5 62.5t-36 49t-51 32t-58.5 11.5q-38 0 -70 -18t-55.5 -50t-37 -75t-13.5 -94t13.5 -92.5t37 -71.5t55.5 -46.5t70 -16.5zM375 626q0 11 -7 17t-16 8.5t-16.5 2.5t-9.5 -1l-2 5l89 42l2 -2v-626
q0 -11 7 -16.5t16 -8t17 -2t9 1.5l2 -5l-89 -42l-2 2v102h-1q-6 -15 -19 -35t-34 -37.5t-49.5 -29.5t-66.5 -12q-43 0 -80.5 16.5t-65 49t-43.5 80t-16 109.5q0 66 17.5 115.5t46 83t65.5 50t76 16.5q38 0 66.5 -12t49.5 -29.5t34 -37.5t19 -35h1v230z" />
    <glyph glyph-name="e" unicode="e" horiz-adv-x="405" 
d="M41 277q-1 -8 -1 -14.5v-14.5q0 -48 13.5 -91.5t37.5 -76t56.5 -51.5t70.5 -19q57 0 95.5 22t67.5 71l13 -7q-26 -45 -67.5 -75.5t-108.5 -30.5q-53 0 -93.5 19.5t-68.5 54t-42 82t-14 102.5q0 56 17 103.5t46.5 81.5t69 53t85.5 19q47 0 82 -18.5t58 -50t35 -73
t12 -86.5h-364zM218 489q-38 0 -68.5 -15.5t-52.5 -42t-35.5 -62.5t-18.5 -77h322q0 33 -8.5 67.5t-26.5 63.5t-46 47.5t-66 18.5z" />
    <glyph glyph-name="f" unicode="f" horiz-adv-x="354" 
d="M34 512q0 32 8 66.5t27 62.5t52 46t82 18q60 0 92 -20t51 -46q6 -8 7.5 -22t-12.5 -22q-7 -4 -17 -4q-17 0 -26 17q-10 20 -18 35t-18 25t-23.5 14.5t-35.5 4.5q-40 0 -65.5 -18.5t-39.5 -45t-19 -57t-5 -54.5l2 -19q33 2 65 3.5t73 3.5q10 1 21 -1.5t11 -17.5t-11 -17.5
t-21 -1.5q-42 2 -74 3.5t-66 3.5v-420q0 -11 5.5 -20t11.5 -15q7 -7 17 -12v-2h-108v2q2 0 7.5 3t11.5 9t10.5 15t4.5 20v400q0 11 -4 16t-17 7q-5 1 -13 1v15q4 0 8 0.5t8 0.5h-2q12 2 16 7t4 16z" />
    <glyph glyph-name="g" unicode="g" horiz-adv-x="466" 
d="M222 510h244v-11l-118 -23q35 -23 55 -59t20 -81q0 -38 -14.5 -70t-41 -55t-63.5 -36t-82 -13q-70 0 -120 31q-19 -17 -35.5 -36.5t-16.5 -49.5q0 -22 14.5 -35t39 -19.5t56.5 -8.5t67 -2q42 0 85 -4.5t77 -20t55.5 -44.5t21.5 -77q0 -41 -20.5 -70.5t-54 -48.5
t-77.5 -28t-91 -9q-39 0 -79 5.5t-72 20.5t-52 41t-20 67q0 25 9.5 46t24.5 38.5t33 31t36 22.5q-37 9 -60 30t-23 60q0 29 21 54.5t49 44.5q-32 23 -49.5 57.5t-17.5 77.5q0 38 14 70t40.5 55t63 36t81.5 13zM222 177q36 0 65.5 12.5t51 34t33 50.5t11.5 62t-11.5 62
t-32.5 50.5t-51 34t-66 12.5t-65.5 -12.5t-50 -34t-32 -50.5t-11.5 -62t11.5 -62t32 -50.5t50 -34t65.5 -12.5zM40 -124q0 -39 18 -63t45.5 -37t59.5 -17t60 -4q36 0 72 7.5t65 24t47.5 43.5t18.5 66q0 37 -16 58t-42.5 31t-61.5 12.5t-74 2.5q-28 0 -55.5 1t-52.5 6
q-13 -6 -27.5 -16.5t-27 -26t-21 -37.5t-8.5 -51z" />
    <glyph glyph-name="h" unicode="h" horiz-adv-x="470" 
d="M91 698v-302h1q6 15 19 35t34 37.5t50 29.5t66 12q34 0 65.5 -10t55.5 -33.5t38.5 -61t14.5 -92.5v-264q0 -11 5.5 -19.5t12.5 -13.5q7 -7 17 -11v-5h-108v5q2 0 7.5 2.5t11 8t10 14t4.5 19.5v264q0 45 -11.5 77t-31 52.5t-46 30t-56.5 9.5t-58.5 -11.5t-51 -32t-36 -49
t-13.5 -62.5v-278q0 -11 5.5 -19.5t11.5 -13.5q7 -7 17 -11v-5h-108v5q2 0 7.5 2.5t11.5 8t10.5 14t4.5 19.5v579q0 11 -7 16.5t-16 8t-16.5 2t-9.5 -1.5l-2 5l89 42z" />
    <glyph glyph-name="i" unicode="i" horiz-adv-x="125" 
d="M35 603q0 35 37 35q17 0 26.5 -9t9.5 -26t-9.5 -25.5t-26.5 -8.5q-37 0 -37 34zM91 508v-459q0 -11 5.5 -19.5t11.5 -13.5q7 -7 17 -11v-5h-108v5q2 0 7.5 2.5t11.5 8t10.5 14t4.5 19.5v389q0 11 -7 16.5t-16 8t-16.5 2t-9.5 -1.5l-2 5l89 42z" />
    <glyph glyph-name="j" unicode="j" horiz-adv-x="133" 
d="M60 603q0 35 37 35q17 0 26.5 -9t9.5 -26t-9.5 -25.5t-26.5 -8.5q-37 0 -37 34zM2 -250l-2 5q28 11 43 30t22.5 43t9 51t1.5 55v494q0 11 -7 16.5t-16 8t-16.5 2t-9.5 -1.5l-2 5l89 42l2 -2v-564q0 -33 -5 -63.5t-18 -54.5t-35 -41.5t-56 -24.5z" />
    <glyph glyph-name="k" unicode="k" horiz-adv-x="455" 
d="M318 445q16 13 20 22.5t2 15.5t-7 9t-6 3v5h105v-5q-16 -6 -33 -14q-14 -7 -31 -16.5t-33 -23.5l-169 -145l223 -247q10 -11 21.5 -19t21.5 -13q11 -7 23 -12v-5h-108v5q2 0 4.5 3t3.5 8.5t-2 14t-13 18.5l-205 221l-44 -38v-183q0 -11 5.5 -19.5t11.5 -13.5q7 -7 17 -11
v-5h-108v5q2 0 7.5 2.5t11.5 8t10.5 14t4.5 19.5v579q0 11 -7 16.5t-16 8t-16.5 2t-9.5 -1.5l-2 5l89 42l2 -2v-447z" />
    <glyph glyph-name="l" unicode="l" horiz-adv-x="125" 
d="M91 698v-649q0 -11 5.5 -19.5t11.5 -13.5q7 -7 17 -11v-5h-108v5q2 0 7.5 2.5t11.5 8t10.5 14t4.5 19.5v579q0 11 -7 16.5t-16 8t-16.5 2t-9.5 -1.5l-2 5l89 42z" />
    <glyph glyph-name="m" unicode="m" horiz-adv-x="778" 
d="M91 396h1q6 15 19 35t34 37.5t50 29.5t66 12q56 0 96.5 -29t53.5 -100l6 15q6 15 19.5 35t34.5 37.5t50 29.5t66 12q34 0 62.5 -10t49.5 -33.5t32.5 -61t11.5 -92.5v-264q0 -11 5.5 -19.5t12.5 -13.5q7 -7 17 -11v-5h-108v5q2 0 7.5 2.5t11 8t10 14t4.5 19.5v264
q0 90 -33.5 129.5t-93.5 39.5q-30 0 -58.5 -11.5t-51 -32t-36 -49t-13.5 -62.5v1v-15v-264q0 -11 5.5 -19.5t12.5 -13.5q7 -7 17 -11v-5h-108v5q2 0 7.5 2.5t11 8t10 14t4.5 19.5v264q0 90 -33.5 129.5t-93.5 39.5q-30 0 -58.5 -11.5t-51 -32t-36 -49t-13.5 -62.5v-278
q0 -11 5.5 -19.5t11.5 -13.5q7 -7 17 -11v-5h-107v5q2 0 7.5 2.5t11 8t10 14t4.5 19.5v379q0 11 -7 16.5t-16 8t-16.5 2t-9.5 -1.5l-2 5l90 42l1 -2v-102z" />
    <glyph glyph-name="n" unicode="n" horiz-adv-x="470" 
d="M91 396h1q6 15 19 35t34 37.5t50 29.5t66 12q34 0 65.5 -10t55.5 -33.5t38.5 -61t14.5 -92.5v-264q0 -11 5.5 -19.5t12.5 -13.5q7 -7 17 -11v-5h-108v5q2 0 7.5 2.5t11 8t10 14t4.5 19.5v264q0 45 -11.5 77t-31 52.5t-46 30t-56.5 9.5t-58.5 -11.5t-51 -32t-36 -49
t-13.5 -62.5v-278q0 -11 5.5 -19.5t11.5 -13.5q7 -7 17 -11v-5h-107v5q2 0 7.5 2.5t11 8t10 14t4.5 19.5v379q0 11 -7 17t-16 8t-16.5 2t-9.5 -1l-2 4l90 42l1 -2v-102z" />
    <glyph glyph-name="o" unicode="o" horiz-adv-x="433" 
d="M216 510q50 0 90 -19t68.5 -53.5t43.5 -82.5t15 -105t-15 -104.5t-43.5 -82t-68.5 -54t-90 -19.5t-90 19.5t-68 54t-43 82t-15 104.5t15 105t43 82.5t68 53.5t90 19zM216 5q45 0 78 20t55 53.5t33 78t11 93.5t-11 93.5t-33 78t-55 53.5t-78 20t-78 -20t-54.5 -53.5
t-32.5 -78t-11 -93.5t11 -93.5t32.5 -78t54.5 -53.5t78 -20z" />
    <glyph glyph-name="p" unicode="p" horiz-adv-x="466" 
d="M91 173q0 -34 13.5 -62.5t36 -49t51 -32t58.5 -11.5q38 0 70 18t55.5 50t37 75t13.5 94t-13.5 92.5t-37 71.5t-55.5 46.5t-70 16.5q-30 0 -58.5 -11.5t-51 -32t-36 -49t-13.5 -62.5v-154zM91 -201q0 -11 5.5 -19.5t11.5 -13.5q7 -7 17 -11v-5h-108v5q2 0 7.5 2.5t11.5 8
t10.5 14t4.5 19.5v629q0 11 -7 16.5t-16 8t-16.5 2t-9.5 -1.5l-2 5l89 42l2 -2v-102h1q6 15 19 35t34 37.5t50 29.5t66 12q43 0 80.5 -16.5t65 -48.5t43.5 -80t16 -110q0 -66 -17.5 -115.5t-46 -83t-65.5 -50t-76 -16.5q-37 0 -66 12t-50 29.5t-34 37.5t-19 35h-1v-305z" />
    <glyph glyph-name="q" unicode="q" horiz-adv-x="466" 
d="M216 18q30 0 58.5 11.5t51 32t36 49t13.5 62.5v154q0 34 -13.5 62.5t-36 49t-51 32t-58.5 11.5q-38 0 -70 -16.5t-55.5 -46.5t-37 -71.5t-13.5 -92.5t13.5 -94t37 -75t55.5 -50t70 -18zM375 -201v305h-1q-6 -15 -19 -35t-34 -37.5t-49.5 -29.5t-66.5 -12q-39 0 -76 16.5
t-65.5 50t-46 83t-17.5 115.5q0 62 16 110t43.5 80t65 48.5t80.5 16.5q38 0 66.5 -12t49.5 -29.5t34 -37.5t19 -35h1v102l2 2l89 -42l-2 -5q-1 1 -9 1.5t-17 -2t-16 -8t-7 -16.5v-629q0 -11 4.5 -19.5t10.5 -14t11.5 -8t7.5 -2.5v-5h-108v5q10 4 17 11q7 5 12 13.5t5 19.5z
" />
    <glyph glyph-name="r" unicode="r" horiz-adv-x="341" 
d="M91 338v-289q0 -11 5.5 -19.5t11.5 -13.5q7 -7 17 -11v-5h-107v5q2 0 7.5 2.5t11 8t10 14t4.5 19.5v379q0 11 -7 16.5t-16 8t-16.5 2t-9.5 -1.5l-2 5l90 42l1 -2v-88h1q10 23 28.5 41.5t41 31.5t47.5 20t47 7q9 0 23.5 -1t28 -5t23.5 -12t10 -22q0 -9 -7 -19t-24 -10
q-12 0 -18 6t-13.5 13t-20 13t-35.5 6q-31 0 -56 -12t-41.5 -31.5t-25.5 -45t-9 -52.5z" />
    <glyph glyph-name="s" unicode="s" horiz-adv-x="334" 
d="M179 -10q-36 0 -67.5 7t-55 20.5t-38 33.5t-17.5 45q-2 17 14 24q11 5 22 -2t19 -30q3 -10 8 -24.5t17.5 -27.5t35.5 -22t62 -9q59 0 87.5 30.5t27.5 78.5q0 36 -21 57.5t-51.5 37t-66.5 28.5t-67 31.5t-51.5 45.5t-20.5 70q0 38 18 62t43 38.5t52 20t46 5.5q24 0 50 -6
t47 -18t35 -31t14 -44q0 -17 -16 -22q-12 -4 -22.5 4.5t-15.5 31.5q-3 11 -7.5 23t-14 22.5t-26.5 17.5t-44 7q-24 0 -46 -6.5t-38 -20t-25.5 -34.5t-9.5 -51q0 -34 20.5 -55t51.5 -36t67 -28.5t67 -32t51.5 -46t20.5 -71.5q0 -26 -12.5 -48.5t-34 -39.5t-49.5 -26.5
t-59 -9.5z" />
    <glyph glyph-name="t" unicode="t" horiz-adv-x="291" 
d="M0 488q8 0 19.5 4t22.5 10.5t19 16t8 21.5h5v-47q33 2 66 3.5t74 3.5q10 1 21 -1.5t11 -17.5t-11 -17.5t-21 -1.5q-42 2 -74 3.5t-66 3.5v-350q0 -50 24.5 -79.5t65.5 -29.5q38 0 69.5 27.5t48.5 70.5l9 -4q-7 -21 -18.5 -41.5t-28.5 -36.5t-38.5 -26t-47.5 -10t-49 8
t-39.5 24t-26 40t-9.5 57v330q0 17 -9.5 20.5t-24.5 3.5v15z" />
    <glyph glyph-name="u" unicode="u" horiz-adv-x="470" 
d="M379 104h-1q-6 -15 -19 -35t-34 -37.5t-49.5 -29.5t-66.5 -12q-34 0 -65.5 10t-55.5 33.5t-38.5 61t-14.5 92.5v264q0 11 -5.5 19.5t-11.5 13.5q-8 7 -18 11v5h75v-313q0 -45 11.5 -77t31 -52.5t46 -30t56.5 -9.5t58.5 11.5t51 32t36 49t13.5 62.5v278q0 11 -5 19.5
t-12 13.5q-7 7 -17 11v5h74v-428q0 -11 7 -16.5t16 -8t17 -2t9 1.5l2 -5l-90 -42l-1 2v102z" />
    <glyph glyph-name="v" unicode="v" horiz-adv-x="453" 
d="M219 0l-161 444q-4 14 -13.5 23t-19.5 16q-12 7 -25 12v5h105v-5q-2 0 -7.5 -12.5t2.5 -38.5l139 -384l130 384q4 13 1.5 22.5t-7 16t-9.5 9.5t-6 3v5h105v-5q-16 -5 -29 -12q-12 -7 -23 -16t-16 -23l-151 -444h-15z" />
    <glyph glyph-name="w" unicode="w" horiz-adv-x="699" 
d="M198 0l-142 444q-5 14 -14 23t-18 16q-11 7 -24 12v5h106v-5q-3 0 -10 -12.5t2 -38.5l120 -373l119 429h15l154 -432l110 376q5 13 2.5 22.5t-8 16t-10.5 9.5t-7 3v5h106v-5q-16 -5 -29 -12q-12 -7 -23 -16t-16 -23l-130 -444h-15l-154 429l-119 -429h-15z" />
    <glyph glyph-name="x" unicode="x" horiz-adv-x="445" 
d="M70 444q-8 14 -18 23t-20 16q-11 7 -22 12v5h106v-5q-3 0 -8 -12.5t10 -38.5l112 -163l111 163q8 13 7.5 22.5t-4.5 16t-8.5 9.5t-6.5 3v5h106v-5q-16 -5 -30 -12q-12 -7 -25 -16t-21 -23l-120 -176l146 -212q8 -13 18.5 -22.5t19.5 -16.5q11 -7 22 -12v-5h-106v5
q2 0 4.5 3t3.5 9t-0.5 15.5t-9.5 23.5l-122 177l-121 -177q-7 -13 -7 -22.5t4 -16t9 -9.5t6 -3v-5h-106v5q15 5 29 12q13 7 26 16.5t21 22.5l130 190z" />
    <glyph glyph-name="y" unicode="y" horiz-adv-x="453" 
d="M211 -104q-18 -57 -40.5 -87t-39.5 -42q-6 -5 -16 -10t-22 -9t-25 -6t-25 1q-10 2 -21.5 11.5t-7.5 23.5q7 23 40 22q8 -1 19 -3.5t24 -2.5q66 0 99 102l33 104l-171 444q-4 14 -13.5 23t-19.5 16q-12 7 -25 12v5h105v-5q-2 0 -7.5 -12.5t2.5 -38.5l148 -382l121 382
q4 13 1.5 22.5t-7 16t-9.5 9.5t-6 3v5h105v-5q-16 -5 -29 -12q-12 -7 -23 -16t-16 -23z" />
    <glyph glyph-name="z" unicode="z" horiz-adv-x="470" 
d="M134 485q-18 0 -28.5 -13t-15.5 -29t-6.5 -31t-1.5 -19h-5v107h386l-339 -485h290q18 0 28 13t15.5 29t6.5 31t1 19h5v-107h-405l339 485h-270z" />
    <glyph glyph-name="guillemotleft" unicode="&#xab;" horiz-adv-x="474" 
d="M245 250l204 -178l-9 -12l-280 190v1l280 190l9 -12l-204 -178v-1zM115 250l204 -178l-9 -12l-280 190v1l280 190l9 -12l-204 -178v-1z" />
    <glyph glyph-name="guillemotright" unicode="&#xbb;" horiz-adv-x="474" 
d="M234 250v1l-204 178l9 12l280 -190v-1l-280 -190l-9 12zM364 250v1l-204 178l9 12l280 -190v-1l-280 -190l-9 12z" />
    <glyph glyph-name="Agrave" unicode="&#xc0;" 
 />
    <glyph glyph-name="Aacute" unicode="&#xc1;" 
 />
    <glyph glyph-name="Acircumflex" unicode="&#xc2;" 
 />
    <glyph glyph-name="Atilde" unicode="&#xc3;" 
 />
    <glyph glyph-name="Adieresis" unicode="&#xc4;" 
 />
    <glyph glyph-name="Egrave" unicode="&#xc8;" horiz-adv-x="500" 
 />
    <glyph glyph-name="Ograve" unicode="&#xd2;" horiz-adv-x="488" 
 />
    <glyph glyph-name="Oacute" unicode="&#xd3;" horiz-adv-x="528" 
 />
    <glyph glyph-name="Ocircumflex" unicode="&#xd4;" horiz-adv-x="528" 
 />
    <glyph glyph-name="OE" unicode="&#x152;" horiz-adv-x="1028" 
 />
    <glyph glyph-name="Ydieresis" unicode="&#x178;" horiz-adv-x="595" 
 />
    <glyph glyph-name="uni0401" unicode="&#x401;" horiz-adv-x="500" 
d="M131 783q0 17 9.5 26.5t26.5 9.5t27 -9.5t10 -26.5t-10 -25t-27 -8t-26.5 8t-9.5 25zM330 783q0 17 10 26.5t27 9.5t26.5 -9.5t9.5 -26.5t-9.5 -25t-26.5 -8t-27 8t-10 25zM0 0v5q2 0 10.5 4.5t18.5 13.5t17.5 23t7.5 33v542q0 19 -7.5 33t-17.5 23t-18.5 13.5t-10.5 4.5
v5h490v-144h-5q0 6 -1.5 26.5t-9 43.5t-22.5 41t-41 18h-317v-317h181q23 0 37.5 10.5t22.5 23.5q9 14 14 33h5v-149h-5q0 2 -3 12.5t-11.5 22.5t-22.5 22t-37 10h-181v-338h327q26 0 41 18t22.5 41t9 43.5t1.5 26.5h5v-144h-500z" />
    <glyph glyph-name="uni0410" unicode="&#x410;" 
d="M295 700h40l214 -621h-40zM81 79l214 621h20l-214 -621h-20zM101 79q-6 -19 0 -32.5t17 -23.5q12 -11 30 -18v-5h-148v5q2 0 12.5 4.5t23.5 13.5t26 23t19 33h20zM549 79q6 -19 19 -33t26 -23t23.5 -13.5t12.5 -4.5v-5h-148v5q12 7 20 18q7 10 10.5 23.5t-3.5 32.5h40z
M167 298h275v-15h-275v15zM268 621q8 23 -1 37t-22.5 22.5t-27 11.5t-15.5 3v5h113z" />
    <glyph glyph-name="uni0411" unicode="&#x411;" horiz-adv-x="518" 
d="M201 390q60 0 117 -6t101.5 -27t71.5 -61t27 -108q0 -63 -28 -100t-70 -56.5t-90 -25.5t-88 -6h-242v5q9 2 19 9t17.5 17.5t12.5 23t5 24.5v542q0 19 -7.5 33t-17.5 23t-18.5 13.5t-10.5 4.5v5h488v-144h-5q0 6 -1.5 26.5t-9 43.5t-22.5 41t-41 18h-315v-296q-2 0 14 0
t36.5 0.5t38.5 0.5h18zM242 15q33 0 74 6.5t77 25t60.5 53t24.5 90.5q0 65 -27.5 102t-69.5 55t-92 22.5t-95 4.5h-100v-359h148z" />
    <glyph glyph-name="uni0412" unicode="&#x412;" horiz-adv-x="518" 
d="M54 621q0 12 -5 24t-12.5 22.5t-17 18t-19.5 9.5v5h208q106 0 169 -39.5t63 -123.5q0 -24 -6.5 -48.5t-22 -45t-41.5 -36t-65 -22.5q45 -2 84 -13.5t67.5 -34.5t45 -59.5t16.5 -89.5q0 -63 -28 -100t-70 -56.5t-90 -25.5t-88 -6h-242v5q9 2 19 9t17.5 17.5t12.5 23
t5 24.5v542zM94 389q-2 0 18 0h45t46.5 0.5l21.5 0.5q84 5 129.5 41t45.5 106t-50 109t-152 39h-104v-296zM242 15q33 0 74 6.5t77 25t60.5 53t24.5 90.5q0 44 -13 74t-34.5 50t-50 31t-60 17t-64 8t-62.5 4h-100v-359h148z" />
    <glyph glyph-name="uni0413" unicode="&#x413;" horiz-adv-x="490" 
d="M94 79q0 -19 8.5 -32.5t18.5 -23.5q12 -11 27 -18v-5h-148v5q2 0 10.5 4.5t18.5 13.5t17.5 23t7.5 33h40zM94 621v-542h-40v542h40zM138 685h-44v-64h-40q0 19 -7.5 33t-17.5 23t-18.5 13.5t-10.5 4.5v5h138h273v-15h-213h-60zM411 700h79v-144h-5q0 6 -1.5 26.5t-9 43.5
t-22.5 41t-41 18v15z" />
    <glyph glyph-name="uni0414" unicode="&#x414;" horiz-adv-x="674" 
d="M0 -129v144h122q17 24 32.5 63.5t28.5 89t23.5 107t18 116.5t11.5 118t4 112q0 19 -9 33t-20.5 23t-21.5 13.5t-12 4.5v5h428v-5q-2 0 -10.5 -4.5t-18.5 -13.5t-17.5 -23t-7.5 -33v-606h123v-144h-5q0 6 -1.5 26.5t-9 43.5t-22.5 41t-41 18h-516q-26 0 -41 -18t-22.5 -41
t-9 -43.5t-1.5 -26.5h-5zM142 15h369v670h-254v-64q0 -53 -4 -112t-11 -118t-17.5 -116.5t-23.5 -107t-28 -89t-31 -63.5z" />
    <glyph glyph-name="uni0415" unicode="&#x415;" horiz-adv-x="500" 
d="M0 0v5q2 0 10.5 4.5t18.5 13.5t17.5 23t7.5 33v542q0 19 -7.5 33t-17.5 23t-18.5 13.5t-10.5 4.5v5h490v-144h-5q0 6 -1.5 26.5t-9 43.5t-22.5 41t-41 18h-317v-317h181q23 0 37.5 10.5t22.5 23.5q9 14 14 33h5v-149h-5q0 2 -3 12.5t-11.5 22.5t-22.5 22t-37 10h-181
v-338h327q26 0 41 18t22.5 41t9 43.5t1.5 26.5h5v-144h-500z" />
    <glyph glyph-name="uni0416" unicode="&#x416;" horiz-adv-x="1068" 
d="M514 621q0 19 -8 33t-19 23q-12 11 -27 18v5h148v-5q-2 0 -10.5 -4.5t-18.5 -13.5t-17.5 -23t-7.5 -33v-239q16 0 26.5 3.5t21.5 14.5q26 27 55 56l57.5 57.5l56 56t50.5 51.5q17 19 21.5 33t3 23t-6.5 13.5t-7 4.5v5h148v-5q-26 -7 -51 -18q-22 -9 -45.5 -23t-40.5 -33
l-240 -242q26 -8 47 -29t36 -40l108 -133q32 -37 62.5 -68.5t63 -54.5t69 -36t79.5 -13v-5h-92q-28 0 -49 6t-44 23.5t-52 47.5t-71 78l-125 155q-24 30 -42.5 43.5t-38.5 13.5v-288q0 -19 7.5 -33t17.5 -23t18.5 -13.5t10.5 -4.5v-5h-148v5q15 7 27 18q11 10 19 23.5
t8 32.5v288q-20 0 -38.5 -13.5t-42.5 -43.5l-125 -155q-42 -48 -71 -78t-52 -47.5t-44 -23.5t-49 -6h-92v5q44 0 80 13t68.5 36t63 54.5t62.5 68.5l108 133q15 19 36 40t47 29l-240 242q-17 19 -40.5 33t-45.5 23q-25 11 -51 18v5h148v-5q-2 0 -7 -4.5t-6.5 -13.5t3 -23
t21.5 -33q23 -24 50.5 -51.5l56 -56l57.5 -57.5t55 -56q11 -11 21.5 -14.5t26.5 -3.5v239z" />
    <glyph glyph-name="uni0417" unicode="&#x417;" horiz-adv-x="460" 
d="M289 365q-24 4 -46.5 0t-34.5 -6q-10 -2 -22 2t-12 18t12 18t22 2q12 -2 34.5 -6t46.5 0q54 9 82.5 51t28.5 100q0 38 -17 66t-43 47t-58 28.5t-62 9.5q-31 0 -62 -13t-57 -34.5t-45 -50t-26 -60.5h-5v133h5q0 -4 3.5 -8t10.5 -4q5 0 17 5q14 6 30.5 14.5t36.5 15.5
t43 12t49 5q30 0 68 -7.5t72 -26t57 -50.5t23 -81q0 -34 -10 -60.5t-28 -47t-42 -34t-51 -21.5v-1q20 -6 46 -19t49 -36t39.5 -58.5t16.5 -85.5q0 -40 -17.5 -75t-48.5 -61t-71.5 -41t-87.5 -15q-46 0 -77 6t-53 15t-37.5 19t-31.5 17q-10 7 -17 7t-10.5 -5t-3.5 -9h-5v133
h5q8 -37 29.5 -68t52 -53t68.5 -34.5t80 -12.5q33 0 66 13.5t59.5 37.5t43 56.5t16.5 69.5q0 38 -11 69.5t-29 55t-41.5 38.5t-49.5 20z" />
    <glyph glyph-name="uni0418" unicode="&#x418;" horiz-adv-x="628" 
d="M574 79q0 -19 8.5 -32.5t18.5 -23.5q12 -11 27 -18v-5h-148v5q2 0 10.5 4.5t18.5 13.5t17.5 23t7.5 33v513l-440 -513q0 -19 8.5 -32.5t18.5 -23.5q12 -11 27 -18v-5h-148v5q2 0 10.5 4.5t18.5 13.5t17.5 23t7.5 33v542q0 19 -7.5 33t-17.5 23t-18.5 13.5t-10.5 4.5v5
h148v-5q-15 -7 -27 -18q-10 -9 -18.5 -23t-8.5 -33v-513l440 513q0 19 -7.5 33t-17.5 23t-18.5 13.5t-10.5 4.5v5h148v-5q-15 -7 -27 -18q-10 -9 -18.5 -23t-8.5 -33v-542z" />
    <glyph glyph-name="uni0419" unicode="&#x419;" horiz-adv-x="628" 
d="M314 750q-23 0 -38.5 6.5t-24.5 11.5q-24 12 -33 25.5t-8 24.5t9 18.5t17 7.5t16.5 -7.5t10.5 -24.5q4 -23 19 -35t32 -12t32 12t19 35q3 17 10.5 24.5t16.5 7.5t17 -7.5t9 -18.5t-8 -24.5t-33 -25.5q-9 -5 -24.5 -11.5t-38.5 -6.5zM574 79q0 -19 8.5 -32.5t18.5 -23.5
q12 -11 27 -18v-5h-148v5q2 0 10.5 4.5t18.5 13.5t17.5 23t7.5 33v513l-440 -513q0 -19 8.5 -32.5t18.5 -23.5q12 -11 27 -18v-5h-148v5q2 0 10.5 4.5t18.5 13.5t17.5 23t7.5 33v542q0 19 -7.5 33t-17.5 23t-18.5 13.5t-10.5 4.5v5h148v-5q-15 -7 -27 -18q-10 -9 -18.5 -23
t-8.5 -33v-513l440 513q0 19 -7.5 33t-17.5 23t-18.5 13.5t-10.5 4.5v5h148v-5q-15 -7 -27 -18q-10 -9 -18.5 -23t-8.5 -33v-542z" />
    <glyph glyph-name="uni041A" unicode="&#x41a;" horiz-adv-x="608" 
d="M142 400q26 27 55 56l57.5 57.5l56 56t50.5 51.5q17 19 21.5 33t3 23t-6.5 13.5t-7 4.5v5h148v-5q-26 -7 -51 -18q-22 -9 -45.5 -23t-40.5 -33l-240 -242q26 -8 47 -29t36 -40l108 -133q32 -37 62.5 -68.5t63 -54.5t69 -36t79.5 -13v-5h-92q-28 0 -49 6t-44 23.5
t-52 47.5t-71 78l-125 155q-24 30 -42.5 43.5t-38.5 13.5v-288q0 -19 8.5 -32.5t18.5 -23.5q12 -11 27 -18v-5h-148v5q2 0 10.5 4.5t18.5 13.5t17.5 23t7.5 33v542q0 19 -7.5 33t-17.5 23t-18.5 13.5t-10.5 4.5v5h148v-5q-15 -7 -27 -18q-10 -9 -18.5 -23t-8.5 -33v-239
q16 0 26.5 3.5t21.5 14.5z" />
    <glyph glyph-name="uni041B" unicode="&#x41b;" horiz-adv-x="602" 
d="M33 -5q-17 0 -25 10t-8 18q0 15 9 22.5t24 7.5q39 0 71.5 17t52.5 52q14 25 25 61t26 91q3 9 7.5 38.5t9.5 74.5t8.5 104.5t4.5 129.5q0 19 -9.5 33t-21 23t-21.5 13.5t-12 4.5v5h428v-5q-2 0 -10.5 -4.5t-18.5 -13.5t-17.5 -23t-7.5 -33v-542q0 -19 7.5 -33t17.5 -23
t18.5 -13.5t10.5 -4.5v-5h-148v5q15 7 27 18q11 10 19 23.5t8 32.5v606h-253v-64q0 -51 -2 -100.5t-4.5 -91.5t-6 -74t-6.5 -50q-8 -49 -21 -104t-36 -100.5t-58 -75.5t-88 -30z" />
    <glyph glyph-name="uni041C" unicode="&#x41c;" horiz-adv-x="789" 
d="M101 79q0 -19 10.5 -32.5t23.5 -23.5q14 -11 33 -18v-5h-148v5q2 0 12.5 4.5t22.5 13.5t21.5 23t9.5 33v542q0 19 -9.5 33t-21.5 23t-22.5 13.5t-12.5 4.5v5h110l279 -651l266 651h94v-5q-15 -7 -27 -18q-10 -9 -18.5 -23t-8.5 -33v-542q0 -19 8.5 -32.5t18.5 -23.5
q12 -11 27 -18v-5h-148v5q15 7 27 18q11 10 19 23.5t8 32.5v584l-273 -668h-15l-286 668v-584z" />
    <glyph glyph-name="uni041D" unicode="&#x41d;" horiz-adv-x="610" 
d="M54 621q0 19 -7.5 33t-17.5 23t-18.5 13.5t-10.5 4.5v5h148v-5q-15 -7 -27 -18q-10 -9 -18.5 -23t-8.5 -33v-233h422v233q0 19 -7.5 33t-17.5 23t-18.5 13.5t-10.5 4.5v5h148v-5q-15 -7 -27 -18q-10 -9 -18.5 -23t-8.5 -33v-542q0 -19 8.5 -32.5t18.5 -23.5
q12 -11 27 -18v-5h-148v5q2 0 10.5 4.5t18.5 13.5t17.5 23t7.5 33v294h-422v-294q0 -19 8.5 -32.5t18.5 -23.5q12 -11 27 -18v-5h-148v5q2 0 10.5 4.5t18.5 13.5t17.5 23t7.5 33v542z" />
    <glyph glyph-name="uni041E" unicode="&#x41e;" horiz-adv-x="600" 
d="M300 710q69 0 124.5 -26.5t94.5 -74.5t60 -114t21 -145t-21 -145t-60 -114t-94.5 -74.5t-124.5 -26.5t-124.5 26.5t-94.5 74.5t-60 114t-21 145t21 145t60 114t94.5 74.5t124.5 26.5zM300 5q62 0 110.5 28.5t81.5 76.5t50.5 110.5t17.5 129.5q0 68 -17.5 130t-50.5 110
t-81.5 76.5t-110.5 28.5t-110.5 -28.5t-81.5 -76.5t-50.5 -110t-17.5 -130q0 -67 17.5 -129.5t50.5 -110.5t81.5 -76.5t110.5 -28.5z" />
    <glyph glyph-name="uni041F" unicode="&#x41f;" horiz-adv-x="590" 
d="M94 79q0 -19 8.5 -32.5t18.5 -23.5q12 -11 27 -18v-5h-148v5q2 0 10.5 4.5t18.5 13.5t17.5 23t7.5 33v542q0 19 -7.5 33t-17.5 23t-18.5 13.5t-10.5 4.5v5h590v-5q-2 0 -10.5 -4.5t-18.5 -13.5t-17.5 -23t-7.5 -33v-542q0 -19 7.5 -33t17.5 -23t18.5 -13.5t10.5 -4.5v-5
h-148v5q15 7 27 18q11 10 19 23.5t8 32.5v606h-402v-606z" />
    <glyph glyph-name="uni0420" unicode="&#x420;" horiz-adv-x="498" 
d="M94 79q0 -19 8.5 -32.5t18.5 -23.5q12 -11 27 -18v-5h-148v5q2 0 10.5 4.5t18.5 13.5t17.5 23t7.5 33v542q0 12 -5 24.5t-12.5 23t-17.5 18t-19 8.5v5h222q40 0 88 -6t90 -25.5t70 -56.5t28 -100q0 -68 -27 -108t-71.5 -61t-101.5 -27t-117 -6h-14.5t-31.5 0.5t-30 0.5
t-11 0v-232zM94 326h80q45 0 95 4.5t92 22.5t69.5 55t27.5 102q0 56 -24.5 90.5t-60.5 53.5t-77 25t-74 6h-128v-359z" />
    <glyph glyph-name="uni0421" unicode="&#x421;" horiz-adv-x="552" 
d="M40 350q0 -68 21 -129.5t57 -108.5t84.5 -74.5t102.5 -27.5q81 0 137.5 33t96.5 102l13 -7q-18 -31 -41.5 -58.5t-53.5 -47t-67.5 -31t-84.5 -11.5q-74 0 -131 27.5t-95.5 75.5t-58.5 114t-20 144t24 144t66.5 114t101.5 74.5t128 26.5q38 0 67 -9t50.5 -21.5t37.5 -26
t29 -22.5q7 -5 12 -5q10 0 14.5 12.5t4.5 29.5h5v-163h-5q-9 39 -29.5 72t-50.5 57t-67 37.5t-78 13.5q-62 0 -112 -27t-85 -73t-54 -106.5t-19 -128.5z" />
    <glyph glyph-name="uni0422" unicode="&#x422;" horiz-adv-x="536" 
d="M288 79q0 -19 8.5 -32.5t18.5 -23.5q12 -11 27 -18v-5h-148v5q2 0 10.5 4.5t18.5 13.5t17.5 23t7.5 33h40zM288 700v-621h-40v621h40zM79 700h378v-15h-378v15zM457 700h79v-144h-5q0 6 -1.5 26.5t-9 43.5t-22.5 41t-41 18v15zM79 685q-26 0 -41 -18t-22.5 -41t-9 -43.5
t-1.5 -26.5h-5v144h79v-15z" />
    <glyph glyph-name="uni0423" unicode="&#x423;" horiz-adv-x="606" 
d="M297 162l-210 459h40l188 -411l169 411h21l-211 -510q-12 -24 -23.5 -44.5t-26 -35t-32.5 -23t-42 -8.5q-15 0 -30.5 4.5t-28 13.5t-20 22t-7.5 30q0 14 7.5 21.5t18 8.5t22 -4.5t20.5 -19.5q17 -27 33 -35.5t29.5 -3.5t26 19.5t23 33t18.5 38.5t15 34zM505 621
q8 19 24.5 33t33.5 23q20 11 43 18v5h-148v-5q2 0 9 -4.5t13.5 -13.5t9 -23t-5.5 -33h21zM87 621h40q-7 19 -5 33t7 23t11 13.5t8 4.5v5h-148v-5q20 -7 37 -18q14 -9 28.5 -23t21.5 -33z" />
    <glyph glyph-name="uni0424" unicode="&#x424;" horiz-adv-x="744" 
d="M0 349q0 57 21.5 107t63.5 86.5t104 57.5t143 21h20v20q0 19 -7.5 33t-17.5 23t-18.5 13.5t-10.5 4.5v5h148v-5q-15 -7 -27 -18q-10 -9 -18.5 -23t-8.5 -33v-20h20q81 0 143 -21t104 -57.5t63.5 -86.5t21.5 -107t-21.5 -106.5t-63.5 -85.5t-104 -57t-143 -21h-20v-20
q0 -19 8.5 -32.5t18.5 -23.5q12 -11 27 -18v-5h-148v5q2 0 10.5 4.5t18.5 13.5t17.5 23t7.5 33v20h-20q-81 0 -143 21t-104 57t-63.5 85.5t-21.5 106.5zM352 94v512h-20q-73 0 -127.5 -22t-89.5 -58t-52.5 -82.5t-17.5 -94.5t17.5 -94t53 -82t89.5 -57.5t127 -21.5h20z
M699 349q0 48 -17.5 94.5t-53 82.5t-89.5 58t-127 22h-20v-512h20q73 0 127 21.5t89.5 57.5t53 82t17.5 94z" />
    <glyph glyph-name="uni0425" unicode="&#x425;" horiz-adv-x="615" 
d="M104 621h48l369 -542h-48zM110 79l367 542h18l-367 -542h-18zM104 621q-11 19 -27 33t-31 23q-17 11 -36 18v5h148v-5q-2 0 -7 -4.5t-8.5 -13.5t-2.5 -23t12 -33h-48zM521 79q11 -19 27 -32.5t31 -23.5q17 -11 36 -18v-5h-148v5q2 0 7 4.5t8.5 13.5t2.5 23t-12 33h48z
M477 621q11 19 10 33t-7 23t-13.5 13.5t-9.5 4.5v5h148v-5q-23 -7 -44 -18q-18 -9 -36.5 -23t-29.5 -33h-18zM128 79q-11 -19 -10 -33t7 -23t13.5 -13.5t9.5 -4.5v-5h-148v5q22 7 43 18q18 10 36.5 23.5t30.5 32.5h18z" />
    <glyph glyph-name="uni0426" unicode="&#x426;" horiz-adv-x="670" 
d="M54 621q0 19 -7.5 33t-17.5 23t-18.5 13.5t-10.5 4.5v5h148v-5q-15 -7 -27 -18q-10 -9 -18.5 -23t-8.5 -33v-606h413v606q0 19 -8 33t-19 23q-12 11 -27 18v5h148v-5q-2 0 -10.5 -4.5t-18.5 -13.5t-17.5 -23t-7.5 -33v-606h123v-144h-5q0 6 -1.5 26.5t-9 43.5t-22.5 41
t-41 18h-591v5q11 2 20.5 10t17 19t12 23t4.5 22v542z" />
    <glyph glyph-name="uni0427" unicode="&#x427;" horiz-adv-x="525" 
d="M54 479v142q0 19 -7.5 33t-17.5 23t-18.5 13.5t-10.5 4.5v5h148v-5q-15 -7 -27 -18q-10 -9 -18.5 -23t-8.5 -33v-142q0 -48 16.5 -78.5t46.5 -47t71 -21t90 -0.5q17 2 37 4t37 4q20 2 39 5v276q0 19 -7.5 33t-17.5 23t-18.5 13.5t-10.5 4.5v5h148v-5q-15 -7 -27 -18
q-10 -9 -18.5 -23t-8.5 -33v-542q0 -19 8.5 -32.5t18.5 -23.5q12 -11 27 -18v-5h-148v5q2 0 10.5 4.5t18.5 13.5t17.5 23t7.5 33v252l-113 -14q-16 -2 -31.5 -3t-30.5 -1q-44 0 -81 9.5t-64 29.5t-42 51.5t-15 75.5z" />
    <glyph glyph-name="uni0428" unicode="&#x428;" horiz-adv-x="858" 
d="M54 621q0 19 -7.5 33t-17.5 23t-18.5 13.5t-10.5 4.5v5h148v-5q-15 -7 -27 -18q-10 -9 -18.5 -23t-8.5 -33v-606h315v606q0 19 -7.5 33t-17.5 23t-18.5 13.5t-10.5 4.5v5h148v-5q-15 -7 -27 -18q-10 -9 -18.5 -23t-8.5 -33v-606h315v606q0 19 -8 33t-19 23q-12 11 -27 18
v5h148v-5q-2 0 -10.5 -4.5t-18.5 -13.5t-17.5 -23t-7.5 -33v-542q0 -10 4.5 -22t12 -23t17 -19t20.5 -10v-5h-858v5q11 2 20.5 10t17 19t12 23t4.5 22v542z" />
    <glyph glyph-name="uni0429" unicode="&#x429;" horiz-adv-x="927" 
d="M54 621q0 19 -8 33t-19 23q-12 11 -27 18v5h148v-5q-15 -7 -27 -18q-10 -9 -18.5 -23t-8.5 -33v-606h315v606q0 19 -8 33t-19 23q-12 11 -27 18v5h148v-5q-15 -7 -27 -18q-10 -9 -18.5 -23t-8.5 -33v-606h315v606q0 19 -8 33t-19 23q-12 11 -27 18v5h148v-5l-8.5 -4.5
t-18.5 -13.5t-18.5 -23t-8.5 -33v-606h123v-144h-5q0 6 -1.5 26.5t-9 43.5t-22.5 41t-41 18h-848v5q11 2 20.5 10t17 19t12 23t4.5 22v542z" />
    <glyph glyph-name="uni042A" unicode="&#x42a;" horiz-adv-x="664" 
d="M79 685q-26 0 -40 -18t-20.5 -41t-7.5 -43.5t-1 -26.5h-10v144h314v-5q-15 -7 -27 -18q-10 -9 -18.5 -23t-8.5 -33v-232q-2 0 11 0t30 0.5t31.5 0.5h14.5q60 0 117 -6t101.5 -27t71.5 -61t27 -108q0 -63 -28 -100t-70 -56.5t-90 -25.5t-88 -6h-222v5q9 2 19 9t17.5 17.5
t12.5 23t5 24.5v606h-141zM388 15q33 0 74 6.5t77 25t60.5 53t24.5 90.5q0 65 -27.5 102t-69.5 55t-92 22.5t-95 4.5h-80v-359h128z" />
    <glyph glyph-name="uni042B" unicode="&#x42b;" horiz-adv-x="717" 
d="M663 79q0 -19 8.5 -32.5t18.5 -23.5q12 -11 27 -18v-5h-148v5q15 7 27 18q11 10 19 23.5t8 32.5v542q0 19 -8 33t-19 23q-12 11 -27 18v5h148v-5q-15 -7 -27 -18q-10 -9 -18.5 -23t-8.5 -33v-542zM54 621q0 19 -7.5 33t-17.5 23t-18.5 13.5t-10.5 4.5v5h148v-5
q-15 -7 -27 -18q-10 -9 -18.5 -23t-8.5 -33v-232q-2 0 8.5 0t24.5 0.5t26.5 0.5h12.5q60 0 117 -6t101.5 -27t71.5 -61t27 -108q0 -63 -28 -100t-70 -56.5t-90 -25.5t-88 -6h-207v5q9 2 19 9t17.5 17.5t12.5 23t5 24.5v542zM207 15q33 0 74 6.5t77 25t60.5 53t24.5 90.5
q0 65 -27.5 102t-69.5 55t-92 22.5t-95 4.5h-65v-359h113z" />
    <glyph glyph-name="uni042C" unicode="&#x42c;" horiz-adv-x="498" 
d="M54 621q0 19 -8 33t-19 23q-12 11 -27 18v5h148v-5q-15 -7 -27 -18q-10 -9 -18.5 -23t-8.5 -33v-232q-2 0 11 0t30 0.5t31.5 0.5h14.5q60 0 117 -6t101.5 -27t71.5 -61t27 -108q0 -63 -28 -100t-70 -56.5t-90 -25.5t-88 -6h-222v5q9 2 19 9t17.5 17.5t12.5 23t5 24.5v542
zM222 15q33 0 74 6.5t77 25t60.5 53t24.5 90.5q0 65 -27.5 102t-69.5 55t-92 22.5t-95 4.5h-80v-359h128z" />
    <glyph glyph-name="uni042D" unicode="&#x42d;" horiz-adv-x="550" 
d="M439 350q18 0 36 5t37 14q-3 65 -23 122t-55 100.5t-83.5 68.5t-108.5 25q-41 0 -78 -13.5t-67 -37.5t-50.5 -57t-29.5 -72h-5v163h5q0 -17 4.5 -29.5t14.5 -12.5q5 0 12 5q13 9 29 22.5t37.5 26t50.5 21.5t67 9q69 0 128 -26.5t101.5 -74.5t66.5 -114t24 -144t-20 -144
t-58.5 -114t-95.5 -75.5t-131 -27.5q-47 0 -84.5 11.5t-67.5 31t-53.5 47t-41.5 58.5l13 7q40 -69 96.5 -102t137.5 -33q54 0 102.5 27.5t84.5 74.5t57 108.5t21 129.5v7q-20 -15 -41 -25t-44 -10q-15 0 -34.5 6.5t-40 14t-41 14t-36.5 6.5q-25 0 -50 -9.5t-49 -24.5l-2 3
q23 22 52 40t60 18q15 0 34.5 -6t40.5 -13.5t41.5 -14t36.5 -6.5z" />
    <glyph glyph-name="uni042E" unicode="&#x42e;" horiz-adv-x="840" 
d="M94 79q0 -19 8.5 -32.5t18.5 -23.5q12 -11 27 -18v-5h-148v5q15 7 27 18q11 10 19 23.5t8 32.5v542q0 19 -8 33t-19 23q-12 11 -27 18v5h148v-5q-15 -7 -27 -18q-10 -9 -18.5 -23t-8.5 -33v-247h127q3 74 25 135.5t60.5 106t92.5 69.5t121 25q69 0 124.5 -26.5
t94.5 -74.5t60 -114t21 -145t-21 -145t-60 -114t-94.5 -74.5t-124.5 -26.5t-124.5 26.5t-94.5 74.5t-60 114t-21 145v9h-126v-280zM520 5q62 0 110.5 28.5t81.5 76.5t50.5 110.5t17.5 129.5q0 68 -17.5 130t-50.5 110t-81.5 76.5t-110.5 28.5t-110.5 -28.5t-81.5 -76.5
t-50.5 -110t-17.5 -130q0 -67 17.5 -129.5t50.5 -110.5t81.5 -76.5t110.5 -28.5z" />
    <glyph glyph-name="uni042F" unicode="&#x42f;" horiz-adv-x="580" 
d="M275 330q5 3 11 4v1q-36 4 -70.5 13.5t-62 30t-44.5 52.5t-17 81q0 63 26 100t64 56.5t80.5 25.5t75.5 6h242v-5q-9 -1 -19 -8.5t-17.5 -18t-12.5 -23t-5 -24.5v-542q0 -19 8.5 -32.5t18.5 -23.5q12 -11 27 -18v-5h-148v5q15 7 27 18q11 10 19 23.5t8 32.5v252h-126
q-32 0 -57.5 -24.5t-47 -61.5t-41 -79.5t-40 -79.5t-43.5 -61.5t-52 -24.5h-79v5q40 0 69.5 20.5t52 53t40 71t35 75t36 65t42.5 40.5zM486 346v339h-148q-25 0 -60.5 -6t-68 -25t-55 -53.5t-22.5 -90.5q0 -39 13 -66.5t34.5 -45.5t50 -28.5t60 -15.5t63.5 -6.5t61 -1.5h72z
" />
    <glyph glyph-name="uni0430" unicode="&#x430;" horiz-adv-x="429" 
d="M340 0l-2 2v336q0 74 -38 114t-104 40q-36 0 -66 -19t-50 -60q-8 -14 -20 -16.5t-23 3.5q-14 8 -12.5 22t7.5 22q20 26 59.5 46t107.5 20q35 0 67 -10t57 -31t40 -53.5t15 -77.5v-266q0 -11 7 -16.5t16 -8t17 -2t9 1.5l2 -5zM338 100q-25 -26 -46.5 -46.5t-43.5 -34.5
t-47.5 -21.5t-57.5 -7.5q-34 0 -61 10.5t-45 28.5t-27.5 42t-9.5 51q0 54 33.5 88.5t84.5 57.5t110 38t110 31v-15q-54 -16 -107 -31t-95 -36.5t-68.5 -53t-27.5 -79.5q0 -22 7 -42t22 -35t37.5 -24t51.5 -9q27 0 51 9t46 24.5t42.5 35t40.5 40.5v-21z" />
    <glyph glyph-name="uni0431" unicode="&#x431;" horiz-adv-x="433" 
d="M216 510q50 0 90 -19t68.5 -53.5t43.5 -82.5t15 -105t-15 -104.5t-43.5 -82t-68.5 -54t-90 -19.5t-90 19.5t-68 56t-43 88.5t-15 116q0 116 21.5 190t64 120.5t106.5 73.5t148 50q26 7 44 18t23 28h5q0 -7 -2.5 -21t-12 -29t-30 -29t-56.5 -22q-63 -15 -113 -34.5
t-86 -51.5t-59 -80t-33 -119h1v0q23 68 74.5 107t120.5 39zM216 5q45 0 78 20t55 53.5t33 78t11 93.5t-11 93.5t-33 78t-55 53.5t-78 20t-78 -19.5t-54.5 -51.5t-32.5 -72.5t-11 -81.5q0 -57 11 -105.5t32.5 -84t54.5 -55.5t78 -20z" />
    <glyph glyph-name="uni0432" unicode="&#x432;" horiz-adv-x="370" 
d="M370 144q0 -48 -20 -76.5t-50 -43.5t-64 -19.5t-63 -4.5h-173v5q14 2 26.5 18t12.5 33v388q0 17 -12.5 32.5t-26.5 18.5v5h149q75 0 120 -28t45 -88q0 -18 -4.5 -35t-15.5 -31t-29.5 -25t-45.5 -16q30 -3 57.5 -11t48.5 -23.5t33 -39.5t12 -59zM79 280h82q60 3 86.5 28
t26.5 76q0 50 -30 75.5t-103 25.5h-62v-205zM173 15q24 0 51.5 4t51 17.5t39 39.5t15.5 70q0 39 -15 62t-41 35t-61 16.5t-74 5.5h-60v-250h94z" />
    <glyph glyph-name="uni0433" unicode="&#x433;" horiz-adv-x="359" 
d="M74 451v-402h-40v402h40zM74 49q0 -11 5.5 -19.5t11.5 -13.5q7 -7 17 -11v-5h-108v5q10 4 17 11q7 5 12 13.5t5 19.5h40zM74 500h228v-15h-228v15zM302 500h57v-107h-5q0 4 -1.5 19t-6.5 31t-15.5 29t-28.5 13v15zM34 451q0 11 -4.5 19.5t-10.5 14t-11.5 8t-7.5 2.5v5h74
v-49h-40z" />
    <glyph glyph-name="uni0434" unicode="&#x434;" horiz-adv-x="486" 
d="M398 71h-40v374h40v-374zM190 490v-45h-17q0 13 -6 22.5t-13.5 15.5t-14.5 9t-8 3v5h96h106h97v-5q-1 0 -6.5 -3t-11 -9t-10 -15.5t-4.5 -22.5h-40v45h-31h-106h-31zM429 15h57v-107h-5q0 4 -1.5 19t-6.5 31t-15.5 29t-28.5 13v15zM57 0q-18 0 -28.5 -13t-15.5 -29
t-6.5 -31t-1.5 -19h-5v107h57v-15zM57 0h372v15h-31v56h-40v-56h-31h-270v-15zM110 15q18 24 32.5 73t25 109.5t16.5 125.5t6 122h-17q0 -57 -6.5 -122t-17 -125.5t-26 -109.5t-33.5 -73h20z" />
    <glyph glyph-name="uni0435" unicode="&#x435;" horiz-adv-x="390" 
d="M40 248q0 -48 10.5 -91.5t32 -76.5t54.5 -52.5t77 -19.5q30 0 54 7.5t44 21t37 32t33 39.5l7 -7q-14 -21 -30.5 -41t-37.5 -35.5t-47 -25t-60 -9.5q-49 0 -89 19t-67.5 53.5t-42.5 81.5t-15 104q0 56 17 103.5t46 81.5t67.5 53t82.5 19q36 0 66.5 -12.5t53 -33.5
t36.5 -49t18 -59q2 -13 2.5 -22t-3 -15t-13 -9t-29.5 -3h-302l3 15h305q0 31 -8 61.5t-25.5 54.5t-45 39t-65.5 15q-43 0 -74 -22t-51.5 -56.5t-30.5 -77t-10 -83.5z" />
    <glyph glyph-name="uni0436" unicode="&#x436;" horiz-adv-x="744" 
d="M392 273q19 1 30 3.5t19 8t14 12.5t15 17l93 125h18l-121 -166q19 -8 30.5 -21.5t25.5 -30.5l77 -95q23 -26 41 -48.5t34.5 -38.5t34 -25t41.5 -9v-5h-61q-19 0 -29.5 4.5t-21.5 16.5t-27 34t-46 56l-89 110q-17 21 -33 30t-45 11v11zM352 451h40v-402h-40v402zM392 49
q0 -11 5.5 -19.5t11.5 -13.5q7 -6 17 -10v-6h-108v6q10 4 17 10q7 5 12 13.5t5 19.5h40zM352 451q0 11 -5 19.5t-12 13.5q-7 7 -17 11v5h108v-5q-10 -4 -17 -11q-6 -5 -11.5 -13.5t-5.5 -19.5h-40zM654 441q-10 0 -18.5 5t-16.5 8t-17 1t-21 -16h-18q3 3 10.5 14t19.5 22.5
t27.5 20.5t33.5 9q14 0 23 -9t9 -23t-9 -23t-23 -9zM352 262q-29 -2 -45 -11t-33 -30l-89 -110q-30 -34 -46 -56t-27 -34t-21 -16.5t-30 -4.5h-61v5q24 0 41.5 9t34 25t34.5 38.5t41 48.5l77 95q14 17 25.5 30.5t30.5 21.5l-121 166h18l93 -125q9 -10 15 -17t14 -12.5t19 -8
t30 -3.5v-11zM90 441q-14 0 -23 9t-9 23t9 23t23 9q18 0 33.5 -9t27.5 -20.5t19.5 -22.5t10.5 -14h-18q-12 14 -21 16t-17 -1t-16 -8t-19 -5z" />
    <glyph glyph-name="uni0437" unicode="&#x437;" horiz-adv-x="332" 
d="M158 5q28 0 52.5 9.5t43 26t28.5 39t10 49.5q-1 57 -31 89.5t-67 40.5q-17 4 -28.5 1.5t-22.5 -4.5q-7 -1 -14.5 1t-7.5 13t7.5 13t14.5 1q11 -2 22.5 -4.5t28.5 0.5q44 7 64 36t20 74q0 27 -11.5 47t-29 32.5t-38.5 19t-40 6.5q-25 0 -42.5 -7t-29 -18.5t-16.5 -26
t-7 -29.5q-2 -16 -13 -21t-20 -1t-12.5 13t-1.5 19q6 24 20.5 40.5t34.5 26.5t43 14.5t44 4.5q19 0 46 -5.5t52 -19t43 -36.5t18 -58q0 -48 -26.5 -77.5t-64.5 -41.5v-1q14 -4 32.5 -14t34.5 -26.5t27 -41.5t11 -60q0 -29 -13 -54.5t-36 -44t-55 -29.5t-70 -11
q-60 0 -96.5 28t-62.5 73l13 7q29 -49 62.5 -71t83.5 -22z" />
    <glyph glyph-name="uni0438" unicode="&#x438;" horiz-adv-x="427" 
d="M353 451h19l-298 -402h-19zM74 451v-402h-40v402h40zM393 451v-402h-40v402h40zM393 49q0 -11 5.5 -19.5t11.5 -13.5q7 -7 17 -11v-5h-108v5q10 4 17 11q7 5 12 13.5t5 19.5h40zM34 451q0 11 -5 19.5t-12 13.5q-7 7 -17 11v5h108v-5q-10 -4 -17 -11q-6 -5 -11.5 -13.5
t-5.5 -19.5h-40zM353 451q0 11 -5 19.5t-12 13.5q-7 7 -17 11v5h108v-5q-10 -4 -17 -11q-6 -5 -11.5 -13.5t-5.5 -19.5h-40zM74 49q0 -11 5.5 -19.5t11.5 -13.5q7 -7 17 -11v-5h-108v5q10 4 17 11q7 5 12 13.5t5 19.5h40z" />
    <glyph glyph-name="uni0439" unicode="&#x439;" horiz-adv-x="427" 
d="M214 550q23 0 38.5 6.5t24.5 11.5q24 12 33 25t8.5 23.5t-8 18.5t-16.5 8.5t-17.5 -6.5t-11.5 -25q-4 -24 -19 -35.5t-32 -11.5t-32 11.5t-19 35.5q-3 18 -11.5 25t-18 6.5t-16.5 -8.5t-7.5 -18.5t9 -23.5t32.5 -25q9 -5 24.5 -11.5t38.5 -6.5zM353 451h19l-298 -402h-19
zM74 451v-402h-40v402h40zM393 451v-402h-40v402h40zM393 49q0 -11 5.5 -19.5t11.5 -13.5q7 -7 17 -11v-5h-108v5q10 4 17 11q7 5 12 13.5t5 19.5h40zM34 451q0 11 -5 19.5t-12 13.5q-7 7 -17 11v5h108v-5q-10 -4 -17 -11q-6 -5 -11.5 -13.5t-5.5 -19.5h-40zM353 451
q0 11 -5 19.5t-12 13.5q-7 7 -17 11v5h108v-5q-10 -4 -17 -11q-6 -5 -11.5 -13.5t-5.5 -19.5h-40zM74 49q0 -11 5.5 -19.5t11.5 -13.5q7 -7 17 -11v-5h-108v5q10 4 17 11q7 5 12 13.5t5 19.5h40z" />
    <glyph glyph-name="uni043A" unicode="&#x43a;" horiz-adv-x="436" 
d="M103 275l142 164h19l-151 -175zM34 451h40v-402h-40v402zM74 49q0 -11 5.5 -19.5t11.5 -13.5q7 -7 17 -11v-5h-108v5q10 4 17 11q7 5 12 13.5t5 19.5h40zM34 451q0 11 -5 19.5t-12 13.5q-7 7 -17 11v5h108v-5q-10 -4 -17 -11q-6 -5 -11.5 -13.5t-5.5 -19.5h-40zM346 441
q-10 0 -20 5t-19.5 8t-20 1t-22.5 -16h-19q3 3 12 14t22.5 22.5t31 20.5t35.5 9q14 0 23 -9t9 -23t-9 -23t-23 -9zM74 277h50q17 0 29.5 -5.5t22 -14t17.5 -18t15 -18.5l77 -95q23 -26 41 -48.5t34.5 -38.5t34 -25t41.5 -9v-5h-61q-19 0 -29.5 4.5t-21.5 16.5t-27 34t-46 56
l-89 110q-18 23 -37 32t-51 9v15z" />
    <glyph glyph-name="uni043B" unicode="&#x43b;" horiz-adv-x="442" 
d="M33 -5q-17 0 -25 10t-8 18q0 15 9 22.5t24 7.5q39 0 60 10.5t33 29.5t18 45t14 57q4 14 11.5 80.5t9.5 167.5q0 14 -6.5 23.5t-15 16t-15.5 9.5t-9 3v5h309v-5q-1 0 -7 -3t-12 -9.5t-11 -16t-5 -23.5v-387q0 -14 5.5 -23.5t12.5 -15.5q7 -7 17 -12v-5h-108v5q9 5 17 12
q6 6 11 15.5t5 23.5v429h-174v-42q0 -37 -1.5 -72t-3.5 -65t-5 -53t-5 -36q-6 -35 -13.5 -74t-23 -72t-41 -54.5t-67.5 -21.5z" />
    <glyph glyph-name="uni043C" unicode="&#x43c;" horiz-adv-x="523" 
d="M60 56q0 -13 7 -22.5t16 -16.5t22 -12v-5h-105v5q13 5 23 12q8 7 15 16.5t7 22.5v388q0 13 -6.5 22.5t-15 16t-15.5 9.5t-8 3v5h88l187 -450l175 450h73v-5q-9 -5 -16 -12t-12 -16t-5 -23v-388q0 -13 5 -22.5t12 -16.5t16 -12v-5h-105v5q9 5 16 12q6 7 11 16.5t5 22.5
v405l-181 -466h-15l-194 467v-406z" />
    <glyph glyph-name="uni043D" unicode="&#x43d;" horiz-adv-x="427" 
d="M74 451v-402h-40v402h40zM74 49q0 -11 5.5 -19.5t11.5 -13.5q7 -7 17 -11v-5h-108v5q10 4 17 11q7 5 12 13.5t5 19.5h40zM393 451v-402h-40v402h40zM393 49q0 -11 5.5 -19.5t11.5 -13.5q7 -7 17 -11v-5h-108v5q10 4 17 11q7 5 12 13.5t5 19.5h40zM55 277h317v-15h-317v15
zM34 451q0 11 -5 19.5t-12 13.5q-7 7 -17 11v5h108v-5q-10 -4 -17 -11q-6 -5 -11.5 -13.5t-5.5 -19.5h-40zM353 451q0 11 -5 19.5t-12 13.5q-7 7 -17 11v5h108v-5q-10 -4 -17 -11q-6 -5 -11.5 -13.5t-5.5 -19.5h-40z" />
    <glyph glyph-name="uni043E" unicode="&#x43e;" horiz-adv-x="433" 
d="M216 510q50 0 90 -19t68.5 -53.5t43.5 -82.5t15 -105t-15 -104.5t-43.5 -82t-68.5 -54t-90 -19.5t-90 19.5t-68 54t-43 82t-15 104.5t15 105t43 82.5t68 53.5t90 19zM216 5q45 0 78 20t55 53.5t33 78t11 93.5t-11 93.5t-33 78t-55 53.5t-78 20t-78 -20t-54.5 -53.5
t-32.5 -78t-11 -93.5t11 -93.5t32.5 -78t54.5 -53.5t78 -20z" />
    <glyph glyph-name="uni043F" unicode="&#x43f;" horiz-adv-x="427" 
d="M74 451v-402h-40v402h40zM74 49q0 -11 5.5 -19.5t11.5 -13.5q7 -7 17 -11v-5h-108v5q10 4 17 11q7 5 12 13.5t5 19.5h40zM393 451v-402h-40v402h40zM393 49q0 -11 5.5 -19.5t11.5 -13.5q7 -7 17 -11v-5h-108v5q10 4 17 11q7 5 12 13.5t5 19.5h40zM34 451q0 11 -4.5 19.5
t-10.5 14t-11.5 8t-7.5 2.5v5h74v-49h-40zM353 451v49h74v-5q-10 -4 -17 -11q-6 -5 -11.5 -13.5t-5.5 -19.5h-40zM55 500h317v-15h-317v15z" />
    <glyph glyph-name="uni0440" unicode="&#x440;" horiz-adv-x="466" 
d="M91 -201h-40q0 -11 -5 -19.5t-12 -13.5q-7 -7 -17 -11v-5h108v5q-10 4 -17 11q-6 5 -11.5 13.5t-5.5 19.5zM466 255q0 -66 -17.5 -115.5t-46 -83t-65.5 -50t-76 -16.5q-37 0 -66 12t-50 29.5t-34 37.5t-19 35h-1v69q0 -34 13.5 -62.5t36 -49t51 -32t58.5 -11.5
q38 0 70 18t55.5 50t37 75t13.5 94t-13.5 92.5t-37 71.5t-55.5 46.5t-70 16.5q-30 0 -58.5 -11.5t-51 -32t-36 -49t-13.5 -62.5v69h1q6 15 19 35t34 37.5t50 29.5t66 12q43 0 80.5 -16.5t65 -48.5t43.5 -80t16 -110zM91 -201v634v65l-2 2l-89 -42l2 -5q2 1 9.5 1.5t16.5 -2
t16 -8t7 -16.5v-629h40z" />
    <glyph glyph-name="uni0441" unicode="&#x441;" horiz-adv-x="389" 
d="M40 248q0 -48 13.5 -91.5t37.5 -76t56.5 -51.5t70.5 -19q57 0 95.5 22t67.5 71l13 -7q-26 -45 -67.5 -75.5t-108.5 -30.5q-53 0 -93.5 19.5t-68.5 54t-42 82t-14 102.5q0 56 17 103.5t46.5 81.5t69 53t85.5 19q44 0 69.5 -9.5t43.5 -20.5q13 -8 31.5 -28.5t22.5 -45.5
q2 -10 -2.5 -23.5t-19.5 -15.5q-13 -1 -21.5 5.5t-13.5 23.5q-2 7 -3.5 18t-6 23t-14 23.5t-26.5 19.5q-13 6 -26 10t-34 4q-43 0 -76.5 -19.5t-56 -53t-34 -77t-11.5 -91.5z" />
    <glyph glyph-name="uni0442" unicode="&#x442;" horiz-adv-x="430" 
d="M235 491v-442h-40v442h40zM235 49q0 -11 5.5 -19.5t11.5 -13.5q7 -7 17 -11v-5h-108v5q10 4 17 11q7 5 12 13.5t5 19.5h40zM57 500h316v-15h-316v15zM57 485q-18 0 -28.5 -13t-15.5 -29t-6.5 -31t-1.5 -19h-5v107h57v-15zM373 500h57v-107h-5q0 4 -1.5 19t-6.5 31
t-15.5 29t-28.5 13v15z" />
    <glyph glyph-name="uni0443" unicode="&#x443;" horiz-adv-x="453" 
d="M211 -104q-18 -57 -40.5 -87t-39.5 -42q-6 -5 -16 -10t-22 -9t-25 -6t-25 1q-10 2 -21.5 11.5t-7.5 23.5q7 23 40 22q8 -1 19 -3.5t24 -2.5q66 0 99 102l33 104l140 444h16l-141 -444zM229 0l-171 444h42l156 -402zM58 444q-4 14 -13.5 23t-19.5 16q-12 7 -25 12v5h105
v-5q-2 0 -7.5 -12.5t2.5 -38.5h-42zM369 444q4 13 1.5 22.5t-7 16t-9.5 9.5t-6 3v5h105v-5q-16 -5 -29 -12q-12 -7 -23 -16t-16 -23h-16z" />
    <glyph glyph-name="uni0444" unicode="&#x444;" horiz-adv-x="708" 
d="M374 173q0 -34 13.5 -62.5t36 -49t51 -32t58.5 -11.5q38 0 70 18t55.5 50t37 75t13.5 94t-13.5 92.5t-37 71.5t-55.5 46.5t-70 16.5q-30 0 -58.5 -11.5t-51 -32t-36 -49t-13.5 -62.5v-154zM175 18q30 0 58.5 11.5t51 32t36 49t13.5 62.5v154q0 34 -13.5 62.5t-36 49
t-51 32t-58.5 11.5q-38 0 -70 -16.5t-55.5 -46.5t-37 -71.5t-13.5 -92.5t13.5 -94t37 -75t55.5 -50t70 -18zM372 638l2 -2v-240h1q6 15 19 35t34 37.5t50 29.5t66 12q43 0 80.5 -16.5t65 -48.5t43.5 -80t16 -110q0 -66 -17.5 -115.5t-46 -83t-65.5 -50t-76 -16.5
q-37 0 -66 12t-50 29.5t-34 37.5t-19 35h-1v-305q0 -11 5.5 -19.5t11.5 -13.5q7 -7 17 -11v-5h-108v5l5.5 2.5t12 8t11.5 14t5 19.5v305h-1q-6 -15 -19 -35t-34 -37.5t-49.5 -29.5t-66.5 -12q-39 0 -76 16.5t-65.5 50t-46 83t-17.5 115.5q0 62 16 110t43.5 80t65 48.5
t80.5 16.5q38 0 66.5 -12t49.5 -29.5t34 -37.5t19 -35h1v170q0 11 -7 16.5t-16 8t-16.5 2t-9.5 -1.5l-2 5z" />
    <glyph glyph-name="uni0445" unicode="&#x445;" horiz-adv-x="445" 
d="M70 444q-8 14 -18 23t-20 16q-11 7 -22 12v5h106v-5q-3 0 -8 -12.5t10 -38.5l112 -163l111 163q8 13 7.5 22.5t-4.5 16t-8.5 9.5t-6.5 3v5h106v-5q-16 -5 -30 -12q-12 -7 -25 -16t-21 -23l-120 -176l146 -212q8 -13 18.5 -22.5t19.5 -16.5q11 -7 22 -12v-5h-106v5
q2 0 4.5 3t3.5 9t-0.5 15.5t-9.5 23.5l-122 177l-121 -177q-7 -13 -7 -22.5t4 -16t9 -9.5t6 -3v-5h-106v5q15 5 29 12q13 7 26 16.5t21 22.5l130 190z" />
    <glyph glyph-name="uni0446" unicode="&#x446;" horiz-adv-x="484" 
d="M34 451q0 11 -5 19.5t-12 13.5q-7 7 -17 11v5h108v-5q-10 -4 -17 -11q-6 -5 -11.5 -13.5t-5.5 -19.5v-436h279v436q0 11 -5 19.5t-12 13.5q-7 7 -17 11v5h108v-5q-10 -4 -17 -11q-6 -5 -11.5 -13.5t-5.5 -19.5v-402q0 -11 4.5 -18t10.5 -10.5t11.5 -4.5t7.5 -1h57v-107
h-5q0 4 -1.5 19t-6.5 31t-15.5 29t-28.5 13h-427v5q2 0 7.5 2.5t11.5 8t10.5 14t4.5 19.5v402z" />
    <glyph glyph-name="uni0447" unicode="&#x447;" horiz-adv-x="375" 
d="M33 342v102q0 14 -5 23t-11 16q-8 7 -17 12v5h106v-5q-9 -5 -16 -12t-12 -16t-5 -23v-102q0 -34 11 -55.5t31 -32t48.5 -13t63.5 0.5q13 2 26 3t24 3q13 1 25 3v193q0 14 -5 23t-11 16q-8 7 -17 12v5h106v-5q-9 -5 -16 -12t-12 -16t-5 -23v-388q0 -13 5 -22.5t12 -16.5
t16 -12v-5h-106v5q9 5 17 12q6 7 11 16.5t5 22.5v180l-75 -10q-24 -3 -45 -3q-32 0 -59 7t-47 21t-31.5 37t-11.5 54z" />
    <glyph glyph-name="uni0448" unicode="&#x448;" horiz-adv-x="726" 
d="M34 451q0 11 -5 19.5t-12 13.5q-7 7 -17 11v5h108v-5q-10 -4 -17 -11q-6 -5 -11.5 -13.5t-5.5 -19.5v-436h269v436q0 11 -5 19.5t-12 13.5q-7 7 -17 11v5h108v-5q-10 -4 -17 -11q-6 -5 -11.5 -13.5t-5.5 -19.5v-436h269v436q0 11 -5 19.5t-12 13.5q-7 7 -17 11v5h108v-5
q-10 -4 -17 -11q-6 -5 -11.5 -13.5t-5.5 -19.5v-402q0 -11 4.5 -19.5t10.5 -14t11.5 -8t7.5 -2.5v-5h-726v5q2 0 7.5 2.5t11.5 8t10.5 14t4.5 19.5v402z" />
    <glyph glyph-name="uni0449" unicode="&#x449;" horiz-adv-x="783" 
d="M34 451q0 11 -5 19.5t-12 13.5q-7 7 -17 11v5h108v-5q-10 -4 -17 -11q-6 -5 -11.5 -13.5t-5.5 -19.5v-436h269v436q0 11 -5 19.5t-12 13.5q-7 7 -17 11v5h108v-5q-10 -4 -17 -11q-6 -5 -11.5 -13.5t-5.5 -19.5v-436h269v436q0 11 -5 19.5t-12 13.5q-7 7 -17 11v5h108v-5
q-2 0 -7.5 -2.5t-11.5 -8t-10.5 -14t-4.5 -19.5v-436h91v-107h-5q0 4 -1.5 19t-6.5 31t-15.5 29t-28.5 13h-726v5q2 0 7.5 2.5t11.5 8t10.5 14t4.5 19.5v402z" />
    <glyph glyph-name="uni044A" unicode="&#x44a;" horiz-adv-x="482" 
d="M285 15q24 0 51.5 4t51 17.5t39 39.5t15.5 70q0 50 -26.5 75t-65 34.5t-82 9.5h-77.5v-209v-41h32h62zM482 144q0 -48 -20 -76.5t-50 -43.5t-64 -19.5t-63 -4.5h-173v5q14 2 26.5 18t12.5 33v388h40v-164q26 0 57.5 0.5t64 -1.5t63 -9t54 -22t38 -40t14.5 -64zM57 485v15
h134v-56h-40v41h-32h-62zM57 500h-57v-107h5q0 4 1.5 19t6.5 31t15.5 29t28.5 13v15zM191 451h-40v49h74v-5q-10 -4 -17 -11q-6 -5 -11.5 -13.5t-5.5 -19.5z" />
    <glyph glyph-name="uni044B" unicode="&#x44b;" horiz-adv-x="530" 
d="M158 15q24 0 51.5 4t51 17.5t39 39.5t15.5 70q0 50 -24 75t-60 34.5t-77 9.5h-75v-209v-41h17h62zM355 144q0 -48 -20 -76.5t-50 -43.5t-64 -19.5t-63 -4.5h-158v5q14 2 26.5 18t12.5 33v395h40v-171q26 0 56.5 0.5t61 -1.5t59 -9t50.5 -22t35.5 -40t13.5 -64zM79 451
q0 11 5.5 19.5t11.5 13.5q7 7 17 11v5h-108v-5l5.5 -2.5t12 -8t11.5 -14t5 -19.5h40zM496 49h-40q0 -11 -5 -19.5t-12 -13.5q-7 -7 -17 -11v-5h108v5q-10 4 -17 11q-6 5 -11.5 13.5t-5.5 19.5zM456 451v-402h40v402h-40zM496 451q0 11 5.5 19.5t11.5 13.5q7 7 17 11v5h-108
v-5q10 -4 17 -11q7 -5 12 -13.5t5 -19.5h40z" />
    <glyph glyph-name="uni044C" unicode="&#x44c;" horiz-adv-x="370" 
d="M370 144q0 -48 -20 -76.5t-50 -43.5t-64 -19.5t-63 -4.5h-173v5q14 2 26.5 18t12.5 33v395q0 11 -5 19.5t-12 13.5q-7 7 -17 11v5h108v-5q-10 -4 -17 -11q-6 -5 -11.5 -13.5t-5.5 -19.5v-171q26 0 57.5 0.5t64 -1.5t63 -9t54 -22t38 -40t14.5 -64zM173 15q24 0 51.5 4
t51 17.5t39 39.5t15.5 70q0 50 -26.5 75t-65 34.5t-82 9.5h-77.5v-250h94z" />
    <glyph glyph-name="uni044D" unicode="&#x44d;" horiz-adv-x="389" 
d="M287 253q16 0 33 4t33 14q-3 44 -15.5 83.5t-35 69.5t-54 47.5t-72.5 17.5q-21 0 -34 -4t-26 -10q-17 -8 -26 -19.5t-13.5 -23.5t-6.5 -23t-4 -18q-5 -17 -13.5 -23.5t-21.5 -5.5q-15 2 -19.5 15.5t-2.5 23.5q4 25 22.5 45.5t31.5 28.5q18 11 43.5 20.5t69.5 9.5
q46 0 85.5 -19t69 -53t46.5 -81.5t17 -103.5q0 -55 -14 -102.5t-42 -82t-68.5 -54t-93.5 -19.5q-67 0 -108.5 30.5t-67.5 75.5l13 7q29 -49 67.5 -71t95.5 -22q38 0 70.5 19t56.5 51.5t37.5 76t13.5 91.5v17q-17 -14 -36 -27t-39 -13q-16 0 -31 4.5t-30 10.5t-30.5 10.5
t-32.5 4.5q-37 0 -71 -22l-3 4q17 15 38.5 30t43.5 15q16 0 31 -4.5t30 -10t30.5 -10t32.5 -4.5z" />
    <glyph glyph-name="uni044E" unicode="&#x44e;" horiz-adv-x="627" 
d="M410 510q50 0 90 -19t68.5 -53.5t43.5 -82.5t15 -105t-15 -104.5t-43.5 -82t-68.5 -54t-90 -19.5t-90 19.5t-68 54t-43 82t-15 104.5v12h-120v-213q0 -11 5.5 -19.5t11.5 -13.5q7 -7 17 -11v-5h-108v5q10 4 17 11q7 5 12 13.5t5 19.5v402q0 11 -5 19.5t-12 13.5
q-7 7 -17 11v5h108v-5q-10 -4 -17 -11q-6 -5 -11.5 -13.5t-5.5 -19.5v-174h121q3 52 19.5 95t44.5 73.5t66 47.5t85 17zM410 5q45 0 78 20t55 53.5t33 78t11 93.5t-11 93.5t-33 78t-55 53.5t-78 20t-78 -20t-54.5 -53.5t-32.5 -78t-11 -93.5t11 -93.5t32.5 -78t54.5 -53.5
t78 -20z" />
    <glyph glyph-name="uni044F" unicode="&#x44f;" horiz-adv-x="430" 
d="M203 223v1q-28 4 -54 12t-46 23t-31.5 39t-11.5 58q0 48 20 76.5t50 43.5t64.5 19.5t62.5 4.5h173v-5q-14 -2 -26.5 -18t-12.5 -33v-395q0 -11 5.5 -19.5t11.5 -13.5q7 -7 17 -11v-5h-108v5q10 4 17 11q7 5 12 13.5t5 19.5v171q-20 0 -42.5 1t-47.5 -1q-21 -2 -38.5 -19
t-32.5 -41.5t-29 -52.5t-28 -51.5t-30.5 -39.5t-36.5 -16h-66v6q27 0 47.5 12t36.5 30.5t29 42t24.5 47t23.5 43.5t26 33q3 3 9 6t7 3zM257 485q-24 0 -51.5 -4t-51 -17.5t-39 -39.5t-15.5 -70q0 -50 26.5 -75t65 -34.5t82 -9.5h77.5v250h-94z" />
    <glyph glyph-name="uni0451" unicode="&#x451;" horiz-adv-x="390" 
d="M87 575q0 15 9 23.5t24 8.5t24 -8.5t9 -23.5t-9 -22.5t-24 -7.5t-24 7.5t-9 22.5zM267 575q0 15 9 23.5t24 8.5t24 -8.5t9 -23.5t-9 -22.5t-24 -7.5t-24 7.5t-9 22.5zM40 248q0 -48 10.5 -91.5t32 -76.5t54.5 -52.5t77 -19.5q30 0 54 7.5t44 21t37 32t33 39.5l7 -7
q-14 -21 -30.5 -41t-37.5 -35.5t-47 -25t-60 -9.5q-49 0 -89 19t-67.5 53.5t-42.5 81.5t-15 104q0 56 17 103.5t46 81.5t67.5 53t82.5 19q36 0 66.5 -12.5t53 -33.5t36.5 -49t18 -59q2 -13 2.5 -22t-3 -15t-13 -9t-29.5 -3h-300q-2 -14 -3 -27t-1 -27zM350 317q0 31 -8 61.5
t-25.5 54.5t-45 39t-65.5 15q-34 0 -61 -14t-46.5 -37.5t-32.5 -54.5t-19 -64h303z" />
    <glyph glyph-name="endash" unicode="&#x2013;" horiz-adv-x="460" 
d="M30 321h400v-40h-400v40z" />
    <glyph glyph-name="emdash" unicode="&#x2014;" horiz-adv-x="580" 
d="M30 321h520v-30h-520v30z" />
    </font>
</defs>
</svg>
