<svg width="50" height="50" viewBox="0 0 50 50" fill="none" xmlns="http://www.w3.org/2000/svg">
<g clip-path="url(#clip0_157_320)">
<path d="M47.1606 41.8347H41.8688V40.4038H42.4559C44.206 40.4038 45.6297 38.98 45.6297 37.23V30.394C45.6297 28.9074 44.5829 27.6418 43.1883 27.3073V25.1206C43.1883 23.3706 41.7645 21.9468 40.0145 21.9468H22.9246C21.1745 21.9468 19.7508 23.3706 19.7508 25.1206V27.3086C19.2068 27.4411 18.7028 27.7203 18.2868 28.1285C17.6657 28.7381 17.3094 29.5838 17.3094 30.449V37.23C17.3094 38.98 18.7331 40.4038 20.4832 40.4038H21.0702V41.8347H15.8537V41.2674C15.8537 39.5174 14.43 38.0935 12.6799 38.0935H10.8444V25.3309H11.6935V26.6287C11.6935 27.0332 12.0213 27.3611 12.4259 27.3611C12.8305 27.3611 13.1583 27.0332 13.1583 26.6287V25.3309H13.6575C14.5998 25.3309 15.3665 24.5642 15.3665 23.622V16.4538C15.3665 14.7038 13.9428 13.28 12.1927 13.28H8.03125C6.28115 13.28 4.85742 14.7038 4.85742 16.4538V18.6284C4.85742 19.0329 5.18525 19.3608 5.58984 19.3608C5.99443 19.3608 6.32227 19.0329 6.32227 18.6284V16.4538C6.32227 15.5115 7.08896 14.7448 8.03125 14.7448H12.1927C13.135 14.7448 13.9017 15.5115 13.9017 16.4538V23.622C13.9017 23.7565 13.7922 23.8661 13.6575 23.8661H6.56641C6.43174 23.8661 6.32227 23.7565 6.32227 23.622V21.8203C6.32227 21.4158 5.99443 21.0879 5.58984 21.0879C5.18525 21.0879 4.85742 21.4158 4.85742 21.8203V23.6219C4.85742 24.5641 5.62412 25.3308 6.56641 25.3308H9.37959V38.0934H7.54414C5.79404 38.0934 4.37031 39.5173 4.37031 41.2673V41.8346H2.83936C1.27373 41.8347 0 43.1084 0 44.674C0 46.2396 1.27373 47.5134 2.83936 47.5134H47.1606C48.7263 47.5134 50 46.2396 50 44.674C50 43.1084 48.7263 41.8347 47.1606 41.8347ZM40.404 41.8347H38.6477V40.4038H40.404V41.8347ZM25.7562 41.8347V40.4038H37.1828V41.8347H25.7562ZM18.7742 37.2299V30.4489C18.7742 29.9745 18.9705 29.5099 19.3128 29.174C19.6425 28.8504 20.0652 28.6758 20.5165 28.6853C21.4405 28.7028 22.1922 29.4693 22.1922 30.394V33.812C22.1922 34.7543 22.9589 35.521 23.9012 35.521H33.1468C33.5513 35.521 33.8792 35.1931 33.8792 34.7886C33.8792 34.3841 33.5513 34.0561 33.1468 34.0561H23.9012C23.7665 34.0561 23.657 33.9466 23.657 33.812V30.394C23.657 28.9074 22.6103 27.6418 21.2156 27.3073V25.1206C21.2156 24.1783 21.9823 23.4116 22.9246 23.4116H40.0145C40.9568 23.4116 41.7234 24.1783 41.7234 25.1206V27.3085C41.1793 27.4409 40.6757 27.7202 40.2595 28.1286C39.6384 28.7382 39.282 29.5839 39.282 30.4491V33.8121C39.282 33.9467 39.1726 34.0562 39.0379 34.0562H36.3388C35.9342 34.0562 35.6063 34.3842 35.6063 34.7887C35.6063 35.1932 35.9342 35.5211 36.3388 35.5211H39.0379C39.9803 35.5211 40.7469 34.7544 40.7469 33.8121V30.4491C40.7469 29.9747 40.9432 29.51 41.2854 29.1742C41.6151 28.8506 42.0378 28.676 42.4892 28.6855C43.4132 28.703 44.1648 29.4695 44.1648 30.3942V37.2302C44.1648 38.1724 43.3982 38.9391 42.4559 38.9391H20.4832C19.5409 38.9389 18.7742 38.1723 18.7742 37.2299ZM24.2914 40.4037V41.8346H22.5351V40.4037H24.2914ZM5.83516 41.2674C5.83516 40.3251 6.60186 39.5584 7.54414 39.5584H12.6799C13.6222 39.5584 14.3889 40.3251 14.3889 41.2674V41.8347H5.83516V41.2674ZM47.1606 46.0485H2.83936C2.08145 46.0485 1.46484 45.4319 1.46484 44.674C1.46484 43.9161 2.08154 43.2995 2.83936 43.2995H47.1606C47.9186 43.2995 48.5352 43.9161 48.5352 44.674C48.5352 45.4319 47.9185 46.0485 47.1606 46.0485Z" fill="black"/>
<path d="M27.4639 29.2222C27.0594 29.2222 26.7314 29.5501 26.7314 29.9546C26.7314 30.3591 27.0594 30.687 27.4639 30.687C27.8684 30.687 28.1963 30.3591 28.1963 29.9546C28.1963 29.55 27.8684 29.2222 27.4639 29.2222Z" fill="black"/>
<path d="M36.208 29.9544C36.208 29.5499 35.8801 29.222 35.4756 29.222C35.0711 29.222 34.7432 29.5499 34.7432 29.9544C34.7432 30.3589 35.0711 30.6868 35.4756 30.6868C35.8801 30.6868 36.208 30.3589 36.208 29.9544Z" fill="black"/>
<path d="M41.0614 17.3687C42.0037 17.3687 42.7704 16.602 42.7704 15.6597V4.19718C42.7704 4.17208 42.7692 4.14689 42.7666 4.1215C42.7273 3.21368 41.9787 2.48673 41.0614 2.48673H30.2322C29.8277 2.48673 29.4998 2.81466 29.4998 3.21915C29.4998 3.62365 29.8277 3.95157 30.2322 3.95157H40.0031C36.1648 5.08517 33.779 6.90948 32.4045 8.33478C31.3713 9.40607 30.7545 10.3978 30.4172 11.046C28.9878 10.3452 27.5961 9.94249 26.4036 9.71495C24.3605 9.32511 22.6203 9.37618 21.6338 9.4632V4.19562C21.6338 4.06105 21.7433 3.95148 21.8779 3.95148H27.0402C27.4448 3.95148 27.7727 3.62355 27.7727 3.21906C27.7727 2.81456 27.4448 2.48663 27.0402 2.48663H21.8779C20.9356 2.48663 20.1689 3.25333 20.1689 4.19562V15.6597C20.1689 16.602 20.9356 17.3687 21.8779 17.3687H41.0614ZM41.3056 5.11437V15.6597C41.3056 15.7943 41.1961 15.9038 41.0614 15.9038H36.0719C34.7562 14.037 33.2337 12.7039 31.6991 11.7542C32.4029 10.3855 34.8381 6.72433 41.3056 5.11437ZM26.1817 11.164C27.6927 11.4577 29.0771 11.9501 30.3307 12.6365C30.3781 12.6716 30.4308 12.7007 30.4875 12.724C31.9128 13.5301 33.1654 14.5914 34.2365 15.9039H21.8778C21.7432 15.9039 21.6337 15.7943 21.6337 15.6598V10.9361C22.4937 10.8528 24.1937 10.7776 26.1817 11.164Z" fill="black"/>
</g>
<defs>
<clipPath id="clip0_157_320">
<rect width="50" height="50" fill="white"/>
</clipPath>
</defs>
</svg>
