<svg width="50" height="50" viewBox="0 0 50 50" fill="none" xmlns="http://www.w3.org/2000/svg">
<g clip-path="url(#clip0_157_330)">
<path d="M46.4016 46.157L40.9328 43.8133C40.8356 43.7713 40.7309 43.7498 40.625 43.75H4.6875C4.25605 43.75 3.90625 44.0998 3.90625 44.5313V49.2188C3.90625 49.6502 4.25605 50 4.6875 50H40.625C40.7309 50.0002 40.8356 49.9787 40.9328 49.9367L46.4016 47.593C46.5857 47.514 46.7325 47.3672 46.8115 47.183C46.9816 46.7865 46.798 46.3272 46.4016 46.157ZM9.375 48.4375H5.46875V45.3125H9.375V48.4375ZM39.8438 48.4375H10.9375V47.6563H39.8438V48.4375ZM39.8438 46.0938H10.9375V45.3125H39.8438V46.0938ZM41.4063 48.0356V45.7144L44.1141 46.875L41.4063 48.0356Z" fill="black"/>
<path d="M37.5 10.1562H28.9062V11.7188H37.5V10.1562Z" fill="black"/>
<path d="M36.7188 13.2812H28.9062V14.8438H36.7188V13.2812Z" fill="black"/>
<path d="M12.5 34.375V27.3438H10.9375V35.1562C10.9375 35.5877 11.2873 35.9375 11.7188 35.9375H22.6562V34.375H12.5Z" fill="black"/>
<path d="M45.3125 0C44.8811 0 44.5312 0.349805 44.5312 0.78125V4.6875H5.46875V0.78125C5.46875 0.349805 5.11895 0 4.6875 0C4.64062 0 0 0.0710938 0 6.25V36.7188C0 39.6977 2.96875 41.0773 4.53125 41.3906C4.58262 41.4015 4.63496 41.4067 4.6875 41.4062H25H45.3125C45.365 41.4067 45.4174 41.4015 45.4688 41.3906C47.0312 41.0773 50 39.6977 50 36.7188V6.25C50 0.0710938 45.3594 0 45.3125 0ZM1.5625 6.25C1.5625 3.0625 2.96875 2.04219 3.90625 1.71875V32.2102C3.04951 32.476 2.25322 32.9073 1.5625 33.4797V6.25ZM45.2273 39.8438H25H4.77344C4.30703 39.732 1.5625 38.9773 1.5625 36.7188C1.5625 34.2812 4.71172 33.6055 4.84375 33.5781C5.20752 33.5039 5.46885 33.1838 5.46875 32.8125V6.25H44.5312V32.8125C44.5312 33.1838 44.7925 33.5039 45.1562 33.5781C45.1922 33.5852 48.4375 34.2625 48.4375 36.7188C48.4375 38.9898 45.7094 39.7305 45.2273 39.8438ZM48.4375 33.4797C47.7468 32.9073 46.9505 32.476 46.0938 32.2102V1.71875C47.0211 2.04297 48.4375 3.06406 48.4375 6.25V33.4797Z" fill="black"/>
<path d="M29.6875 16.4062C28.5917 16.4062 27.54 16.5949 26.5625 16.9404V10.9375C26.5625 10.5061 26.2127 10.1562 25.7812 10.1562H11.7188C11.2873 10.1562 10.9375 10.5061 10.9375 10.9375V25C10.9375 25.4314 11.2873 25.7812 11.7188 25.7812H20.3125C20.3125 30.9589 24.5099 35.1562 29.6875 35.1562C34.8629 35.1507 39.0569 30.9566 39.0625 25.7812C39.0625 20.6036 34.8651 16.4062 29.6875 16.4062ZM12.5 24.2188V11.7188H25V17.6607C22.6278 19.033 20.9133 21.4148 20.4429 24.2188H12.5ZM25 19.5312V24.2188H22.0315C22.4186 22.3122 23.4998 20.6581 25 19.5312ZM29.6875 33.5938C25.3728 33.5938 21.875 30.096 21.875 25.7812H25.7812C26.2127 25.7812 26.5625 25.4314 26.5625 25V18.6207C27.5197 18.2023 28.5761 17.9688 29.6875 17.9688C34.0003 17.9734 37.4953 21.4685 37.5 25.7812C37.5 30.096 34.0022 33.5938 29.6875 33.5938Z" fill="black"/>
<path d="M19.5312 17.1875V15.625H17.9688V17.1875H16.4062V18.75H17.9688V20.3125H19.5312V18.75H21.0938V17.1875H19.5312Z" fill="black"/>
</g>
<defs>
<clipPath id="clip0_157_330">
<rect width="50" height="50" fill="white"/>
</clipPath>
</defs>
</svg>
