<svg width="50" height="50" viewBox="0 0 50 50" fill="none" xmlns="http://www.w3.org/2000/svg">
<g clip-path="url(#clip0_1_253)">
<path d="M10.5705 33.0096H6.98183C6.44258 33.0096 6.00527 33.4469 6.00527 33.9862V37.5749C6.00527 38.1141 6.44258 38.5514 6.98183 38.5514H10.5705C11.1098 38.5514 11.5471 38.1141 11.5471 37.5749V33.9862C11.5471 33.4469 11.1099 33.0096 10.5705 33.0096ZM9.59394 36.5983H7.9584V34.9628H9.59394V36.5983Z" fill="black"/>
<path d="M18.5254 33.0096H14.9367C14.3975 33.0096 13.9602 33.4469 13.9602 33.9862V37.5749C13.9602 38.1141 14.3975 38.5514 14.9367 38.5514H18.5254C19.0647 38.5514 19.502 38.1141 19.502 37.5749V33.9862C19.502 33.4469 19.0647 33.0096 18.5254 33.0096ZM17.5488 36.5983H15.9133V34.9628H17.5488V36.5983Z" fill="black"/>
<path d="M10.5705 40.5459H6.98183C6.44258 40.5459 6.00527 40.9832 6.00527 41.5225V45.1111C6.00527 45.6504 6.44258 46.0877 6.98183 46.0877H10.5705C11.1098 46.0877 11.5471 45.6504 11.5471 45.1111V41.5225C11.5471 40.9831 11.1099 40.5459 10.5705 40.5459ZM9.59394 44.1346H7.9584V42.499H9.59394V44.1346Z" fill="black"/>
<path d="M18.5254 40.5459H14.9367C14.3975 40.5459 13.9602 40.9832 13.9602 41.5225V45.1111C13.9602 45.6504 14.3975 46.0877 14.9367 46.0877H18.5254C19.0647 46.0877 19.502 45.6504 19.502 45.1111V41.5225C19.502 40.9831 19.0647 40.5459 18.5254 40.5459ZM17.5488 44.1346H15.9133V42.499H17.5488V44.1346Z" fill="black"/>
<path d="M14.8438 25.2373C14.6611 25.0557 14.4102 24.9512 14.1533 24.9512C13.8955 24.9512 13.6445 25.0556 13.4629 25.2373C13.2804 25.4189 13.1768 25.6709 13.1768 25.9277C13.1768 26.1846 13.2804 26.4365 13.4629 26.6181C13.6445 26.7997 13.8965 26.9043 14.1533 26.9043C14.4102 26.9043 14.6611 26.7998 14.8438 26.6181C15.0253 26.4365 15.1299 26.1846 15.1299 25.9277C15.1299 25.6709 15.0254 25.4189 14.8438 25.2373Z" fill="black"/>
<path d="M49.0234 48.0468H48.0469V23.2361C48.0469 22.6968 47.6096 22.2595 47.0703 22.2595H42.3952V9.67907C42.3952 9.31765 42.1956 8.98571 41.8763 8.81638L25.47 0.11384C25.1673 -0.046707 24.8026 -0.037039 24.5091 0.139719C24.2154 0.316379 24.0358 0.633957 24.0358 0.976535V10.9375H14.153C13.6138 10.9375 13.1765 11.3748 13.1765 11.914V22.0431C13.1765 22.5824 13.6138 23.0197 14.153 23.0197C14.6923 23.0197 15.1296 22.5824 15.1296 22.0431V12.8906H28.4108V16.7908H25.0124C24.4731 16.7908 24.0358 17.2281 24.0358 17.7674C24.0358 18.3066 24.4731 18.7439 25.0124 18.7439H28.4108V22.2595H25.0124C24.4731 22.2595 24.0358 22.6968 24.0358 23.2361C24.0358 23.7754 24.4731 24.2127 25.0124 24.2127H28.4108V27.7283H25.0124C24.4731 27.7283 24.0358 28.1656 24.0358 28.7049C24.0358 29.2441 24.4731 29.6814 25.0124 29.6814H28.4108V33.197H25.0124C24.4731 33.197 24.0358 33.6343 24.0358 34.1736C24.0358 34.7129 24.4731 35.1502 25.0124 35.1502H28.4108V38.6658H25.0124C24.4731 38.6658 24.0358 39.1031 24.0358 39.6424C24.0358 40.1816 24.4731 40.6189 25.0124 40.6189H28.4108V44.1345H25.0124C24.4731 44.1345 24.0358 44.5718 24.0358 45.1111C24.0358 45.6504 24.4731 46.0877 25.0124 46.0877H28.4108V48.0468H23.4375V30.0781C23.4375 29.5388 23.0002 29.1015 22.4609 29.1015H2.92969C2.39043 29.1015 1.95312 29.5388 1.95312 30.0781V48.0468H0.976562C0.437305 48.0468 0 48.4841 0 49.0234C0 49.5627 0.437305 50 0.976562 50H49.0234C49.5627 50 50 49.5627 50 49.0234C50 48.4841 49.5628 48.0468 49.0234 48.0468ZM21.4844 48.0468H3.90625V31.0547H21.4844V48.0468ZM33.5938 23.2361V48.0468H30.364V11.914C30.364 11.3748 29.9267 10.9375 29.3874 10.9375H25.989V2.59997L40.4421 10.2666V22.2595H34.5703C34.0311 22.2595 33.5938 22.6968 33.5938 23.2361ZM46.0938 27.7283H40.8203C40.2811 27.7283 39.8438 28.1656 39.8438 28.7049C39.8438 29.2441 40.2811 29.6814 40.8203 29.6814H46.0938V33.197H40.8203C40.2811 33.197 39.8438 33.6343 39.8438 34.1736C39.8438 34.7129 40.2811 35.1502 40.8203 35.1502H46.0938V38.6658H40.8203C40.2811 38.6658 39.8438 39.1031 39.8438 39.6424C39.8438 40.1816 40.2811 40.6189 40.8203 40.6189H46.0938V44.1345H43.1315C42.5923 44.1345 42.155 44.5718 42.155 45.1111C42.155 45.6504 42.5923 46.0877 43.1315 46.0877H46.0938V48.0468H35.5469V24.2127H46.0938V27.7283Z" fill="black"/>
<path d="M39.3944 44.421C39.2129 44.2393 38.9619 44.1348 38.7041 44.1348C38.4473 44.1348 38.1953 44.2393 38.0137 44.421C37.832 44.6025 37.7275 44.8545 37.7275 45.1113C37.7275 45.3682 37.8319 45.6201 38.0137 45.8018C38.1954 45.9834 38.4473 46.0879 38.7041 46.0879C38.9619 46.0879 39.2129 45.9835 39.3944 45.8018C39.5771 45.6201 39.6807 45.3682 39.6807 45.1113C39.6807 44.8535 39.5771 44.6025 39.3944 44.421Z" fill="black"/>
<path d="M33.5938 11.0352C33.0545 11.0352 32.6172 11.4725 32.6172 12.0117V13.8347C32.6172 14.374 33.0545 14.8112 33.5938 14.8112C34.133 14.8112 34.5703 14.3739 34.5703 13.8347V12.0117C34.5703 11.4725 34.133 11.0352 33.5938 11.0352Z" fill="black"/>
<path d="M33.5938 16.7907C33.0545 16.7907 32.6172 17.228 32.6172 17.7673V19.7782C32.6172 20.3176 33.0545 20.7548 33.5938 20.7548C34.133 20.7548 34.5703 20.3175 34.5703 19.7782V17.7673C34.5703 17.228 34.133 16.7907 33.5938 16.7907Z" fill="black"/>
<path d="M37.5 11.0352C36.9607 11.0352 36.5234 11.4725 36.5234 12.0117V13.8347C36.5234 14.374 36.9607 14.8112 37.5 14.8112C38.0393 14.8112 38.4766 14.3739 38.4766 13.8347V12.0117C38.4766 11.4725 38.0393 11.0352 37.5 11.0352Z" fill="black"/>
<path d="M37.5 16.7907C36.9607 16.7907 36.5234 17.228 36.5234 17.7673V19.7782C36.5234 20.3176 36.9607 20.7548 37.5 20.7548C38.0393 20.7548 38.4766 20.3175 38.4766 19.7782V17.7673C38.4766 17.228 38.0393 16.7907 37.5 16.7907Z" fill="black"/>
</g>
<defs>
<clipPath id="clip0_1_253">
<rect width="50" height="50" fill="white"/>
</clipPath>
</defs>
</svg>
