<svg width="50" height="50" viewBox="0 0 50 50" fill="none" xmlns="http://www.w3.org/2000/svg">
<g clip-path="url(#clip0_226_1543)">
<path d="M47.8563 7.48436C46.5965 7.48436 45.4117 7.97528 44.5204 8.86649C43.7901 9.59588 43.329 10.5228 43.1859 11.5271L41.4093 11.2066L41.2515 9.91815C42.2939 8.98153 42.9617 7.68456 43.1052 6.2413L43.2114 5.17196C43.3426 3.85175 42.9072 2.53046 42.017 1.54687C41.1276 0.563867 39.8573 -9.70336e-05 38.5329 6.2245e-07C37.2103 6.2245e-07 35.9425 0.5625 35.0547 1.54336C34.1649 2.52646 33.7305 3.84794 33.863 5.16864L33.9704 6.23817C34.1151 7.67928 34.7825 8.97518 35.8233 9.91229L35.6648 11.2066L32.8326 11.7176C32.465 11.7839 32.1084 11.8933 31.7686 12.0426C31.4336 11.8957 31.0777 11.785 30.7042 11.7177L27.8724 11.207L27.7146 9.91815C28.757 8.98153 29.4249 7.68446 29.5683 6.2413L29.6746 5.17177C29.8057 3.85165 29.3703 2.53037 28.48 1.54668C27.5906 0.563867 26.3204 -9.70336e-05 24.9959 6.2245e-07C23.6732 6.2245e-07 22.4054 0.5625 21.5176 1.54336C20.6278 2.52656 20.1934 3.84794 20.326 5.16864L20.4335 6.23817C20.5781 7.67928 21.2456 8.97508 22.2862 9.91219L22.1276 11.2071L19.2958 11.7178C18.9223 11.7851 18.5664 11.8958 18.2314 12.0427C17.8917 11.8934 17.5351 11.7841 17.1673 11.7177L14.3353 11.2068L14.1768 9.91229C15.2175 8.97518 15.885 7.67928 16.0297 6.23827L16.1371 5.16874C16.2696 3.84804 15.8353 2.52656 14.9454 1.54345C14.0569 0.561718 12.7883 -0.00068297 11.4646 6.2245e-07C10.141 0.000684215 8.87195 0.564453 7.98289 1.54687C7.09256 2.53046 6.65721 3.85175 6.78846 5.17187L6.89471 6.24139C7.03817 7.68456 7.70604 8.98153 8.74842 9.91815L8.59061 11.2066L6.81405 11.5271C6.67089 10.5228 6.20985 9.59588 5.47977 8.86678C4.58817 7.97528 3.40341 7.48436 2.14355 7.48436C0.961619 7.48436 0 8.44588 0 9.62791V15.8134C0 16.218 0.327929 16.5459 0.73242 16.5459C1.13691 16.5459 1.46484 16.218 1.46484 15.8134V9.62791C1.46484 9.25369 1.76933 8.9492 2.14355 8.9492C3.0122 8.9492 3.82909 9.28787 4.44433 9.90301C5.05888 10.5169 5.39745 11.3337 5.39745 12.2032V25.8615C5.35214 26.7787 5.66229 27.7115 6.33514 28.4437L14.2888 37.0986C14.5626 37.3964 15.0258 37.4158 15.3237 37.1422C15.6216 36.8685 15.6411 36.4051 15.3675 36.1073L7.41375 27.4524C7.02118 27.0247 6.84344 26.4895 6.86239 25.9491C6.88378 25.439 7.0911 24.936 7.48456 24.5476C8.29686 23.7457 9.61717 23.7473 10.4276 24.5509L21.7553 35.7831C23.3519 37.3662 24.2676 39.5638 24.2676 41.8121C24.2676 43.0755 23.9789 44.3452 23.4325 45.4843C22.8652 46.6669 22.5544 47.9314 22.5087 49.242C22.4947 49.6463 22.811 49.9854 23.2152 49.9995C23.2239 49.9999 23.2325 50 23.2412 50C23.6338 50 23.9588 49.6887 23.9727 49.2932C24.0113 48.1855 24.2739 47.1172 24.7533 46.1178C24.8416 45.9338 24.9235 45.7467 25.0001 45.5573C25.0768 45.7467 25.1587 45.9338 25.247 46.1177C25.7263 47.1171 25.989 48.1855 26.0276 49.2932C26.0415 49.6887 26.3665 50 26.7591 50C26.7677 50 26.7764 49.9999 26.7851 49.9995C27.1894 49.9854 27.5056 49.6463 27.4915 49.242C27.4458 47.9313 27.1351 46.6669 26.5678 45.4842C26.0214 44.3453 25.7327 43.0755 25.7327 41.8121C25.7327 39.5638 26.6484 37.3662 28.245 35.7831L39.5725 24.5507C40.383 23.7471 41.7033 23.7456 42.5155 24.5476C42.9089 24.9358 43.1161 25.4386 43.1376 25.9486C43.1566 26.4891 42.9789 27.0245 42.5862 27.4523L34.6325 36.1072C34.3588 36.405 34.3783 36.8684 34.6763 37.1421C34.9741 37.4159 35.4373 37.3962 35.7112 37.0985L43.6649 28.4436C44.3376 27.7115 44.6478 26.7788 44.6025 25.8616V12.2031C44.6025 11.3337 44.941 10.5168 45.556 9.90262C46.1708 9.28778 46.9878 8.9491 47.8564 8.9491C48.2308 8.9491 48.5352 9.2536 48.5352 9.62781V28.3856C48.5352 28.9947 48.3579 29.5853 48.0225 30.0934L47.1025 31.4869C46.8797 31.8245 46.9727 32.2788 47.3103 32.5017C47.4345 32.5838 47.5746 32.623 47.7131 32.623C47.9509 32.623 48.1842 32.5073 48.325 32.294L49.2449 30.9003C49.7388 30.152 49.9998 29.2825 49.9998 28.3856V9.62791C49.9999 8.44588 49.0384 7.48436 47.8563 7.48436ZM38.5412 11.125C39.0025 11.125 39.4632 11.025 39.8871 10.8273L39.9973 11.7264C39.6781 12.392 39.0464 12.6342 38.537 12.6342C38.0278 12.6342 37.3959 12.392 37.0768 11.7264L37.1873 10.8238C37.6136 11.0238 38.0773 11.1251 38.5412 11.125ZM35.4279 6.09188L35.3204 5.02235C35.2291 4.11288 35.5281 3.20312 36.1407 2.52627C36.7604 1.8417 37.6098 1.46484 38.5328 1.46484C39.4576 1.46484 40.3096 1.84306 40.9311 2.52978C41.5444 3.20732 41.8444 4.11767 41.7539 5.02704L41.6477 6.09637C41.5015 7.56727 40.6236 8.83436 39.2993 9.48602C38.824 9.71981 38.2564 9.71961 37.7809 9.48504C37.7809 9.48504 37.7809 9.48504 37.7808 9.48504C36.4552 8.83192 35.5756 7.56336 35.4279 6.09188ZM23.6503 10.8238C24.0766 11.0239 24.5403 11.125 25.0043 11.125C25.4656 11.125 25.9263 11.025 26.3501 10.8273L26.4603 11.7266C26.1414 12.3917 25.5095 12.6338 25 12.6338C24.4906 12.6338 23.8587 12.3917 23.5398 11.7266L23.6503 10.8238ZM21.891 6.09188L21.7836 5.02235C21.6922 4.11288 21.9912 3.20312 22.6037 2.52636C23.2233 1.8417 24.0727 1.46484 24.9958 1.46484C25.9207 1.46484 26.7726 1.84306 27.3941 2.52968C28.0074 3.20732 28.3074 4.11767 28.2169 5.02694L28.1107 6.09647C27.9645 7.56737 27.0867 8.83436 25.7625 9.48602C25.2873 9.71981 24.7195 9.71961 24.2439 9.48504C22.9182 8.83192 22.0386 7.56336 21.891 6.09188ZM11.4588 11.125C11.9227 11.125 12.3864 11.0239 12.8127 10.8238L12.9232 11.7264C12.6041 12.3919 11.9723 12.6342 11.463 12.6342C10.9537 12.6342 10.3219 12.392 10.0027 11.7264L10.1129 10.8272C10.5368 11.025 10.9974 11.125 11.4588 11.125ZM8.35233 6.09657L8.24608 5.02704C8.15565 4.11767 8.45565 3.20742 9.06893 2.52988C9.69002 1.84365 10.5411 1.46543 11.4654 1.46494C12.389 1.46445 13.2393 1.8415 13.8593 2.52636C14.4718 3.20322 14.7708 4.11288 14.6796 5.02245L14.5721 6.09198C14.4244 7.56346 13.5448 8.83211 12.2193 9.48524C11.7436 9.71971 11.1759 9.7199 10.7008 9.48621C9.37645 8.83446 8.49852 7.56737 8.35233 6.09657ZM6.86239 23.1598V13.0069L8.84139 12.6499C9.39744 13.5462 10.3718 14.099 11.463 14.099C12.5541 14.099 13.5286 13.5462 14.0846 12.6499L16.6984 13.1215C15.8893 13.9759 15.4013 15.1264 15.4013 16.3769V27.4199L11.4589 23.5107C10.2093 22.2713 8.24686 22.1543 6.86239 23.1598ZM38.5411 23.5106L34.5988 27.4198L34.5987 24.2041C34.5987 23.7995 34.2707 23.4716 33.8662 23.4716C33.4618 23.4716 33.1338 23.7995 33.1338 24.2041V28.4487C33.1327 29.0112 32.6749 29.4685 32.1122 29.4685C31.5489 29.4685 31.0906 29.0102 31.0906 28.4467L31.0907 18.5325C31.0907 18.128 30.7627 17.8001 30.3582 17.8001C29.9537 17.8001 29.6258 18.128 29.6258 18.5325L29.6257 28.4467C29.6257 29.5042 30.2896 30.4091 31.2222 30.768L27.2135 34.7429C26.643 35.3086 26.147 35.9416 25.7326 36.6225V29.0709C25.7326 28.6664 25.4046 28.3385 25.0001 28.3385C24.5957 28.3385 24.2677 28.6664 24.2677 29.0709V36.6226C23.8533 35.9416 23.3573 35.3086 22.7867 34.7429L18.778 30.768C19.7107 30.4092 20.3746 29.5042 20.3746 28.4467L20.3745 18.5325C20.3745 18.1279 20.0465 17.8001 19.642 17.8001C19.2376 17.8001 18.9096 18.128 18.9096 18.5325L18.9097 28.4467C18.9097 29.0102 18.4514 29.4685 17.8881 29.4685C17.3247 29.4685 16.8664 29.0102 16.8664 28.4468C16.8664 25.6485 16.8664 19.1038 16.8664 16.377C16.8664 14.7937 17.9975 13.4405 19.5559 13.1593L22.3786 12.6504C22.9346 13.5462 23.9089 14.0987 25.0001 14.0987C26.0914 14.0987 27.0657 13.5462 27.6217 12.6504L30.4443 13.1593C32.0027 13.4405 33.1339 14.7937 33.1339 16.377V20.7861C33.1339 21.1907 33.4618 21.5185 33.8663 21.5185C34.2708 21.5185 34.5988 21.1907 34.5988 20.7861V16.3769C34.5988 15.1264 34.1108 13.9759 33.3017 13.1215L35.9155 12.65C36.4716 13.5463 37.4459 14.099 38.5371 14.099C39.6283 14.099 40.6028 13.5462 41.1588 12.6499L43.1377 13.0069V23.1597C41.7529 22.1543 39.7906 22.2715 38.5411 23.5106Z" fill="black"/>
<path d="M46.2327 34.1319C45.895 33.9091 45.4407 34.0019 45.2179 34.3396L38.5158 44.491C37.5889 45.8948 37.0146 47.5225 36.8549 49.198C36.8165 49.6008 37.1119 49.9583 37.5146 49.9967C37.5382 49.9989 37.5617 50.0001 37.5849 50.0001C37.958 50.0001 38.277 49.7161 38.3132 49.3371C38.4502 47.8992 38.943 46.5026 39.7382 45.298L46.4404 35.1467C46.6631 34.8091 46.5702 34.3548 46.2327 34.1319Z" fill="black"/>
<path d="M1.97754 30.0937C1.64219 29.5854 1.46484 28.9948 1.46484 28.3857V19.2314C1.46484 18.8269 1.13691 18.499 0.732422 18.499C0.32793 18.499 0 18.8269 0 19.2314V28.3857C0 29.2826 0.261035 30.1521 0.75498 30.9007L7.10752 40.5218C7.24834 40.7351 7.48164 40.8507 7.71943 40.8507C7.85801 40.8507 7.99814 40.8114 8.12226 40.7294C8.45986 40.5065 8.55283 40.0521 8.32988 39.7146L1.97754 30.0937Z" fill="black"/>
<path d="M11.4824 44.4909L10.2128 42.5681C9.98997 42.2307 9.53557 42.1377 9.19807 42.3605C8.86057 42.5834 8.76751 43.0378 8.99046 43.3753L10.26 45.298C11.0553 46.5026 11.548 47.8993 11.685 49.3371C11.7211 49.7161 12.0401 50.0001 12.4133 50.0001C12.4365 50.0001 12.4601 49.9989 12.4836 49.9966C12.8864 49.9583 13.1816 49.6007 13.1433 49.198C12.9835 47.5225 12.4093 45.8948 11.4824 44.4909Z" fill="black"/>
</g>
<defs>
<clipPath id="clip0_226_1543">
<rect width="50" height="50" fill="white"/>
</clipPath>
</defs>
</svg>
