<svg width="50" height="50" viewBox="0 0 50 50" fill="none" xmlns="http://www.w3.org/2000/svg">
<path fill-rule="evenodd" clip-rule="evenodd" d="M17.7454 43.3856C17.7454 43.7576 17.4453 44.0583 17.0716 44.0583H6.45402V45.7973C6.45402 46.1682 6.15392 46.4689 5.78022 46.4689C5.41212 46.4689 5.10632 46.1682 5.10632 45.7973V44.0583H3.49242C3.12432 44.0583 2.82422 43.7576 2.82422 43.3856C2.82422 43.0147 3.12432 42.7141 3.49242 42.7141H5.10632V34.8706C5.10632 34.4997 5.41212 34.199 5.78022 34.199C6.15392 34.199 6.45402 34.4997 6.45402 34.8706V42.7141H17.0716C17.4453 42.7141 17.7454 43.0147 17.7454 43.3856ZM33.0573 6.67615C33.0573 6.30415 33.3574 6.00405 33.7311 6.00405H43.5446V4.26505C43.5446 3.89305 43.8447 3.59295 44.2184 3.59295C44.5865 3.59295 44.8866 3.89305 44.8866 4.26505V6.00405H46.5061C46.8742 6.00405 47.1743 6.30415 47.1743 6.67615C47.1743 7.04705 46.8742 7.34835 46.5061 7.34835H44.8866V16.6092C44.8866 16.9807 44.5865 17.2808 44.2184 17.2808C43.8447 17.2808 43.5446 16.9807 43.5446 16.6092V7.34825H33.7311C33.3575 7.34825 33.0573 7.04705 33.0573 6.67615ZM47.1744 43.3856C47.1744 43.7576 46.8743 44.0583 46.5062 44.0583H44.8867V45.7973C44.8867 46.1682 44.5866 46.4689 44.2185 46.4689C43.8448 46.4689 43.5447 46.1682 43.5447 45.7973V44.0583H33.7312C33.3575 44.0583 33.0574 43.7576 33.0574 43.3856C33.0574 43.0147 33.3575 42.7141 33.7312 42.7141H43.5447V34.8706C43.5447 34.4997 43.8448 34.199 44.2185 34.199C44.5866 34.199 44.8867 34.4997 44.8867 34.8706V42.7141H46.5062C46.8743 42.7141 47.1744 43.0147 47.1744 43.3856ZM2.82422 6.61445C2.82422 6.24245 3.12432 5.94235 3.49242 5.94235H5.10632V4.20335C5.10632 3.83245 5.41212 3.53125 5.78022 3.53125C6.15392 3.53125 6.45402 3.83245 6.45402 4.20335V5.94235H17.0716C17.4453 5.94235 17.7454 6.24245 17.7454 6.61445C17.7454 6.98535 17.4453 7.28665 17.0716 7.28665H6.45402V16.6092C6.45402 16.9807 6.15392 17.2808 5.78022 17.2808C5.41212 17.2808 5.10632 16.9807 5.10632 16.6092V7.28655H3.49242C3.12432 7.28655 2.82422 6.98535 2.82422 6.61445ZM33.8501 23.0023C33.8501 20.7944 35.6452 18.9988 37.8536 18.9988C40.062 18.9988 41.8571 20.7944 41.8571 23.0023C41.8571 24.9803 40.4188 26.6275 38.5274 26.9481V23.7657C38.5274 23.3942 38.2273 23.0935 37.8536 23.0935C37.4855 23.0935 37.1854 23.3942 37.1854 23.7657V26.9481C35.2941 26.6275 33.8501 24.9803 33.8501 23.0023ZM20.7976 34.1628V38.671H25.9053V12.3982C25.9053 11.9781 25.5655 11.6361 25.1408 11.6361H15.1122C14.6932 11.6361 14.3477 11.9781 14.3477 12.3982V38.6708H19.4555V34.1628C14.7851 30.2803 14.8952 23.9774 19.716 20.2111C19.9595 20.0208 20.2993 20.0208 20.5428 20.2111C25.352 23.9732 25.4718 30.2872 20.7976 34.1628ZM20.1294 26.5692C19.7557 26.5692 19.4556 26.8692 19.4556 27.2412V32.3206C16.4329 29.0943 16.7418 24.5746 20.1294 21.612C23.5179 24.5753 23.8269 29.0873 20.7976 32.3206V27.2412C20.7976 26.8693 20.4975 26.5692 20.1294 26.5692ZM10.7973 19.5163V38.6708H13.0057V18.2066H11.2333C11.1087 18.2558 10.7973 18.719 10.7973 19.5163ZM30.2203 27.2799L27.2474 30.0727V38.671H33.1876V30.0727L30.2203 27.2799ZM37.8536 40.0153H40.1753C40.5491 40.0153 40.8492 39.7151 40.8492 39.343C40.8492 38.9721 40.5491 38.6708 40.1753 38.6708H38.5275V28.3064C41.1607 27.9741 43.2049 25.7232 43.2049 23.0023C43.2049 20.0532 40.8039 17.6545 37.8537 17.6545C34.9091 17.6545 32.5081 20.0532 32.5081 23.0023C32.5081 25.7232 34.5523 27.9741 37.1855 28.3064V38.671H34.5353V29.7822C34.5353 29.597 34.456 29.4192 34.3201 29.2929L30.679 25.8675C30.4242 25.6241 30.0165 25.6241 29.7616 25.8675L27.2474 28.2278V12.3982C27.2474 11.2368 26.3017 10.2917 25.1409 10.2917H15.1122C13.9513 10.2917 13.0057 11.2368 13.0057 12.3982V16.8622H11.2276C10.214 16.8622 9.45522 18.0032 9.45522 19.5163V39.343C9.45522 39.7151 9.75532 40.0153 10.1234 40.0153H37.8536Z" fill="black"/>
</svg>
