<svg width="50" height="50" viewBox="0 0 50 50" fill="none" xmlns="http://www.w3.org/2000/svg">
<g id="right-arrow 2">
<g id="Group">
<g id="Group_2">
<g id="Group_3">
<g id="Group_4">
<path id="Vector" d="M1.15412 26.0193H48.8464C49.4137 26.0193 49.8721 25.5609 49.8721 24.9936C49.8721 24.4263 49.4137 23.968 48.8464 23.968H3.63168L9.85604 17.7436C10.2567 17.343 10.2567 16.6923 9.85604 16.2917C9.4554 15.8911 8.80476 15.8911 8.40412 16.2917L0.426556 24.2693C0.131684 24.5641 0.0451452 25.0032 0.205402 25.3878C0.365658 25.7693 0.740657 26.0193 1.15412 26.0193Z" fill="black"/>
</g>
<g id="Group_5">
<path id="Vector_2" d="M9.14142 34.0064C9.40424 34.0064 9.66706 33.9071 9.86578 33.7052C10.2664 33.3045 10.2664 32.6539 9.86578 32.2532L1.8786 24.2661C1.47796 23.8654 0.827318 23.8654 0.426677 24.2661C0.026036 24.6667 0.026036 25.3173 0.426677 25.718L8.41385 33.7052C8.61578 33.9071 8.8786 34.0064 9.14142 34.0064Z" fill="black"/>
</g>
</g>
</g>
</g>
</g>
</svg>
