<svg width="129" height="65" viewBox="0 0 129 65" fill="none" xmlns="http://www.w3.org/2000/svg">
<path d="M3.55 50V15H17.25C19.7167 15 21.7667 15.3833 23.4 16.15C25.0667 16.9167 26.3167 17.9833 27.15 19.35C27.9833 20.6833 28.4 22.2333 28.4 24C28.4 25.7667 28.0167 27.25 27.25 28.45C26.4833 29.65 25.4667 30.5667 24.2 31.2C22.9667 31.8333 21.6167 32.2167 20.15 32.35L20.9 31.8C22.4667 31.8333 23.8667 32.25 25.1 33.05C26.3667 33.85 27.3667 34.9 28.1 36.2C28.8333 37.4667 29.2 38.8833 29.2 40.45C29.2 42.2833 28.75 43.9333 27.85 45.4C26.9833 46.8333 25.7 47.9667 24 48.8C22.3 49.6 20.2167 50 17.75 50H3.55ZM9.55 45.1H16.85C18.8167 45.1 20.35 44.6333 21.45 43.7C22.55 42.7667 23.1 41.4667 23.1 39.8C23.1 38.1333 22.5333 36.8167 21.4 35.85C20.2667 34.85 18.7167 34.35 16.75 34.35H9.55V45.1ZM9.55 29.8H16.4C18.3333 29.8 19.8 29.3667 20.8 28.5C21.8 27.6 22.3 26.3667 22.3 24.8C22.3 23.2667 21.8 22.0667 20.8 21.2C19.8 20.3 18.3167 19.85 16.35 19.85H9.55V29.8ZM34.7465 50V14H40.7465V50H34.7465ZM47.6918 50V24.8H53.6918V50H47.6918ZM50.6918 20.8C49.5918 20.8 48.6751 20.4667 47.9418 19.8C47.2418 19.1 46.8918 18.25 46.8918 17.25C46.8918 16.2167 47.2418 15.3833 47.9418 14.75C48.6751 14.0833 49.5918 13.75 50.6918 13.75C51.7918 13.75 52.6918 14.0833 53.3918 14.75C54.1251 15.3833 54.4918 16.2167 54.4918 17.25C54.4918 18.25 54.1251 19.1 53.3918 19.8C52.6918 20.4667 51.7918 20.8 50.6918 20.8ZM60.8754 50V24.8H66.8754V50H60.8754ZM63.8754 20.8C62.7754 20.8 61.8587 20.4667 61.1254 19.8C60.4254 19.1 60.0754 18.25 60.0754 17.25C60.0754 16.2167 60.4254 15.3833 61.1254 14.75C61.8587 14.0833 62.7754 13.75 63.8754 13.75C64.9754 13.75 65.8754 14.0833 66.5754 14.75C67.3087 15.3833 67.6754 16.2167 67.6754 17.25C67.6754 18.25 67.3087 19.1 66.5754 19.8C65.8754 20.4667 64.9754 20.8 63.8754 20.8ZM72.159 50V45.15L85.209 29.8H72.359V24.8H92.109V29.65L78.909 45.05H92.359V50H72.159ZM109.681 50.6C107.181 50.6 104.981 50.0667 103.081 49C101.181 47.9 99.6979 46.3667 98.6313 44.4C97.5646 42.4333 97.0313 40.1667 97.0313 37.6C97.0313 34.9333 97.5479 32.6 98.5813 30.6C99.6479 28.6 101.131 27.0333 103.031 25.9C104.965 24.7667 107.198 24.2 109.731 24.2C112.198 24.2 114.348 24.75 116.181 25.85C118.015 26.95 119.431 28.4333 120.431 30.3C121.431 32.1333 121.931 34.2 121.931 36.5C121.931 36.8333 121.931 37.2 121.931 37.6C121.931 38 121.898 38.4167 121.831 38.85H101.331V35H115.881C115.815 33.1667 115.198 31.7333 114.031 30.7C112.865 29.6333 111.415 29.1 109.681 29.1C108.448 29.1 107.315 29.3833 106.281 29.95C105.248 30.5167 104.431 31.3667 103.831 32.5C103.231 33.6 102.931 35 102.931 36.7V38.15C102.931 39.7167 103.215 41.0667 103.781 42.2C104.381 43.3333 105.181 44.2 106.181 44.8C107.215 45.3667 108.365 45.65 109.631 45.65C111.031 45.65 112.181 45.35 113.081 44.75C114.015 44.15 114.698 43.35 115.131 42.35H121.231C120.765 43.9167 119.998 45.3333 118.931 46.6C117.865 47.8333 116.548 48.8167 114.981 49.55C113.415 50.25 111.648 50.6 109.681 50.6Z" fill="white"/>
<g clip-path="url(#clip0_1_9)">
<path d="M117.006 23.7061L115.93 23.0361C117.06 21.8453 118.389 19.3945 116.842 15.0584C116.842 15.0584 111.259 16.3934 110.672 19.7614L109.19 18.8389C108.029 15.7265 108.515 10.6438 121.542 7.781C121.542 7.781 126.047 21.6348 117.006 23.7061Z" fill="white"/>
</g>
<g clip-path="url(#clip1_1_9)">
<path d="M100.67 23.7061L101.746 23.0361C100.615 21.8453 99.2867 19.3945 100.834 15.0584C100.834 15.0584 106.417 16.3934 107.004 19.7614L108.485 18.8389C109.647 15.7265 109.161 10.6438 96.1338 7.781C96.1338 7.781 91.6292 21.6348 100.67 23.7061Z" fill="white"/>
</g>
<defs>
<clipPath id="clip0_1_9">
<rect width="16.7536" height="16.7536" fill="white" transform="translate(114.532 2.92215) rotate(31.9131)"/>
</clipPath>
<clipPath id="clip1_1_9">
<rect width="16.7536" height="16.7536" fill="white" transform="matrix(-0.848851 0.528632 0.528632 0.848851 103.144 2.92215)"/>
</clipPath>
</defs>
</svg>
