<svg width="50" height="50" viewBox="0 0 50 50" fill="none" xmlns="http://www.w3.org/2000/svg">
<path d="M1.15387 26.0193H48.8462C49.4135 26.0193 49.8718 25.5609 49.8718 24.9936C49.8718 24.4263 49.4135 23.968 48.8462 23.968H3.63144L9.8558 17.7436C10.2564 17.343 10.2564 16.6923 9.8558 16.2917C9.45516 15.8911 8.80452 15.8911 8.40387 16.2917L0.426311 24.2693C0.131439 24.5641 0.0449028 25.0032 0.205158 25.3878C0.365414 25.7693 0.740414 26.0193 1.15387 26.0193Z" fill="white"/>
<path d="M9.14105 34.0064C9.40387 34.0064 9.66669 33.9071 9.86541 33.7052C10.2661 33.3045 10.2661 32.6539 9.86541 32.2532L1.87823 24.2661C1.47759 23.8654 0.826952 23.8654 0.426311 24.2661C0.0256701 24.6667 0.0256701 25.3173 0.426311 25.718L8.41349 33.7052C8.61541 33.9071 8.87823 34.0064 9.14105 34.0064Z" fill="white"/>
</svg>
