<svg width="40" height="40" viewBox="0 0 40 40" fill="none" xmlns="http://www.w3.org/2000/svg">
<g id="arrow-down 1">
<g id="Group">
<path id="Vector" fill-rule="evenodd" clip-rule="evenodd" d="M34.5827 21.2505L5.41647 21.2505L5.41647 18.7505L34.5827 18.7505L34.5827 21.2505Z" fill="black"/>
<path id="Vector_2" fill-rule="evenodd" clip-rule="evenodd" d="M33.3332 18.7505C27.4538 18.7505 22.6497 23.9207 22.6497 29.4339L22.6497 30.6839L25.1497 30.6839L25.1497 29.4339C25.1497 25.2479 28.8875 21.2505 33.3332 21.2505L34.5827 21.2505L34.5827 18.7505L33.3332 18.7505Z" fill="black"/>
<path id="Vector_3" fill-rule="evenodd" clip-rule="evenodd" d="M33.3332 21.2505C27.4538 21.2505 22.6497 16.0803 22.6497 10.567L22.6497 9.317L25.1497 9.317L25.1497 10.567C25.1497 14.753 28.8875 18.7505 33.3332 18.7505L34.5827 18.7505L34.5827 21.2505L33.3332 21.2505Z" fill="black"/>
</g>
</g>
</svg>
