<svg xmlns="http://www.w3.org/2000/svg" width="71" height="71" viewBox="0 0 71 71" fill="none">
  <path fill-rule="evenodd" clip-rule="evenodd" d="M49.4889 23.739L23.3994 49.2048L21.2166 46.9686L47.3061 21.5027L49.4889 23.739Z" fill="white"/>
  <path fill-rule="evenodd" clip-rule="evenodd" d="M46.1879 22.5936C40.9288 27.727 41.1457 36.5465 45.9594 41.4781L47.0508 42.5962L49.2871 40.4134L48.1956 39.2952C44.5408 35.5508 44.394 28.7115 48.3707 24.8299L49.4884 23.7389L47.3056 21.5026L46.1879 22.5936Z" fill="white"/>
  <path fill-rule="evenodd" clip-rule="evenodd" d="M48.371 24.8299C43.1118 29.9633 34.3002 29.5332 29.4864 24.6015L28.395 23.4833L30.6313 21.3005L31.7227 22.4186C35.3776 26.1631 42.2114 26.4753 46.1881 22.5936L47.3058 21.5027L49.4886 23.7389L48.371 24.8299Z" fill="white"/>
</svg>