<svg width="50" height="50" viewBox="0 0 50 50" fill="none" xmlns="http://www.w3.org/2000/svg">
<g id="right-arrow 1">
<g id="Group">
<g id="Group_2">
<g id="Group_3">
<g id="Group_4">
<path id="Vector" d="M48.8459 26.0193H1.15357C0.586263 26.0193 0.12793 25.5609 0.12793 24.9936C0.12793 24.4263 0.586263 23.968 1.15357 23.968H46.3683L40.144 17.7436C39.7433 17.343 39.7433 16.6923 40.144 16.2917C40.5446 15.8911 41.1952 15.8911 41.5959 16.2917L49.5734 24.2693C49.8683 24.5641 49.9549 25.0032 49.7946 25.3878C49.6343 25.7693 49.2593 26.0193 48.8459 26.0193Z" fill="black"/>
</g>
<g id="Group_5">
<path id="Vector_2" d="M40.8588 34.0064C40.596 34.0064 40.3332 33.9071 40.1345 33.7052C39.7338 33.3045 39.7338 32.6539 40.1345 32.2532L48.1216 24.2661C48.5223 23.8654 49.1729 23.8654 49.5736 24.2661C49.9742 24.6667 49.9742 25.3173 49.5736 25.718L41.5864 33.7052C41.3845 33.9071 41.1216 34.0064 40.8588 34.0064Z" fill="black"/>
</g>
</g>
</g>
</g>
</g>
</svg>
