<svg width="30" height="30" viewBox="0 0 30 30" fill="none" xmlns="http://www.w3.org/2000/svg">
<path fill-rule="evenodd" clip-rule="evenodd" d="M13.6465 24.0909C14.6556 24.0909 15.4747 24.91 15.4747 25.9191C15.4747 26.9282 14.6556 27.7472 13.6465 27.7472C12.6375 27.7472 11.8184 26.9282 11.8184 25.9191C11.8184 24.91 12.6375 24.0909 13.6465 24.0909ZM21.5984 24.0909C22.6075 24.0909 23.4265 24.91 23.4265 25.9191C23.4265 26.9282 22.6075 27.7472 21.5984 27.7472C20.5893 27.7472 19.7702 26.9282 19.7702 25.9191C19.7702 24.91 20.5893 24.0909 21.5984 24.0909ZM1.50746 5.82815H4.09018C4.59291 5.82815 5.03473 6.1636 5.16928 6.64906C5.16928 6.64906 5.17018 6.64906 5.17018 6.64997C6.04018 9.78178 7.92019 16.5491 8.79382 19.6927C9.20382 21.17 10.5493 22.1918 12.0811 22.1918H23.1193C24.6856 22.1918 26.0511 21.1254 26.4302 19.6054C27.1993 16.5318 28.7266 10.4218 28.7266 10.4218C28.8111 10.0827 28.7347 9.72269 28.5193 9.44724C28.3038 9.17088 27.9738 9.00997 27.6238 9.00997H11.8184C11.1911 9.00997 10.682 9.51906 10.682 10.1463C10.682 10.7736 11.1911 11.2827 11.8184 11.2827H26.1684L24.2247 19.0563C24.0984 19.5636 23.642 19.9191 23.1193 19.9191H12.0811C11.5693 19.9191 11.1202 19.5772 10.9829 19.0845C10.1093 15.9409 8.22928 9.17269 7.35928 6.04087C6.95291 4.57269 5.61473 3.55542 4.09018 3.55542H1.50746C0.880185 3.55542 0.371094 4.06451 0.371094 4.69178C0.371094 5.31906 0.880185 5.82815 1.50746 5.82815Z" fill="black"/>
</svg>
