<svg width="100" height="100" viewBox="0 0 100 100" fill="none" xmlns="http://www.w3.org/2000/svg">
<g id="Icon">
<path id="Vector" d="M91.0156 17.2898H55.8594C53.7055 17.2898 51.9531 19.0421 51.9531 21.196V54.3992C51.9531 56.5531 53.7055 58.3054 55.8594 58.3054H72.4609V81.7427C72.4609 82.6619 73.6664 83.0652 74.2188 82.3289L94.7266 54.9851C94.8533 54.8162 94.9219 54.6105 94.9219 54.3992V21.196C94.9219 19.0421 93.1697 17.2898 91.0156 17.2898ZM92.9688 54.0736L74.4141 78.8132V57.3289C74.4141 56.7894 73.977 56.3523 73.4375 56.3523H55.8594C54.7824 56.3523 53.9062 55.4761 53.9062 54.3992V21.196C53.9062 20.1191 54.7824 19.2429 55.8594 19.2429H91.0156C92.0926 19.2429 92.9688 20.1191 92.9688 21.196V54.0736ZM44.1406 17.2898H8.98438C6.83047 17.2898 5.07812 19.0421 5.07812 21.196V54.3992C5.07812 56.5531 6.83047 58.3054 8.98438 58.3054H25.5859V81.7429C25.5859 82.6568 26.791 83.0658 27.3438 82.3289L47.8516 54.9851C47.9783 54.8162 48.0469 54.6105 48.0469 54.3992V21.196C48.0469 19.0421 46.2945 17.2898 44.1406 17.2898ZM46.0938 54.0736L27.5391 78.8132V57.3289C27.5391 56.7894 27.1018 56.3523 26.5625 56.3523H8.98438C7.90742 56.3523 7.03125 55.4761 7.03125 54.3992V21.196C7.03125 20.1191 7.90742 19.2429 8.98438 19.2429H44.1406C45.2176 19.2429 46.0938 20.1191 46.0938 21.196V54.0736Z" fill="black"/>
</g>
</svg>
