<svg width="90" height="66" viewBox="0 0 90 66" fill="none" xmlns="http://www.w3.org/2000/svg">
<path d="M86.0156 0.289795H50.8594C48.7055 0.289795 46.9531 2.04214 46.9531 4.19604V37.3992C46.9531 39.5531 48.7055 41.3054 50.8594 41.3054H67.4609V64.7427C67.4609 65.6619 68.6664 66.0652 69.2188 65.3288L89.7266 37.9851C89.8533 37.8162 89.9219 37.6105 89.9219 37.3992V4.19604C89.9219 2.04214 88.1697 0.289795 86.0156 0.289795ZM87.9688 37.0736L69.4141 61.8132V40.3288C69.4141 39.7894 68.977 39.3523 68.4375 39.3523H50.8594C49.7824 39.3523 48.9062 38.4761 48.9062 37.3992V4.19604C48.9062 3.11909 49.7824 2.24292 50.8594 2.24292H86.0156C87.0926 2.24292 87.9688 3.11909 87.9688 4.19604V37.0736ZM39.1406 0.289795H3.98438C1.83047 0.289795 0.078125 2.04214 0.078125 4.19604V37.3992C0.078125 39.5531 1.83047 41.3054 3.98438 41.3054H20.5859V64.7429C20.5859 65.6568 21.791 66.0658 22.3438 65.3288L42.8516 37.9851C42.9783 37.8162 43.0469 37.6105 43.0469 37.3992V4.19604C43.0469 2.04214 41.2945 0.289795 39.1406 0.289795ZM41.0938 37.0736L22.5391 61.8132V40.3288C22.5391 39.7894 22.1018 39.3523 21.5625 39.3523H3.98438C2.90742 39.3523 2.03125 38.4761 2.03125 37.3992V4.19604C2.03125 3.11909 2.90742 2.24292 3.98438 2.24292H39.1406C40.2176 2.24292 41.0938 3.11909 41.0938 4.19604V37.0736Z" fill="white"/>
</svg>
