<svg width="25" height="25" viewBox="0 0 25 25" fill="none" xmlns="http://www.w3.org/2000/svg">
<g id="location-pin 1" clip-path="url(#clip0_743_98)">
<path id="Vector" d="M12.5 0C7.33125 0 3.125 4.23542 3.125 9.44271C3.125 16.8417 11.6187 24.4812 11.9802 24.8021C12.1292 24.9344 12.3146 25 12.5 25C12.6854 25 12.8708 24.9344 13.0198 24.8031C13.3812 24.4813 21.875 16.8417 21.875 9.44271C21.875 4.23542 17.6687 0 12.5 0ZM12.5 14.5833C9.62812 14.5833 7.29167 12.2469 7.29167 9.375C7.29167 6.50312 9.62812 4.16667 12.5 4.16667C15.3719 4.16667 17.7083 6.50312 17.7083 9.375C17.7083 12.2469 15.3719 14.5833 12.5 14.5833Z" fill="#666666"/>
</g>
<defs>
<clipPath id="clip0_743_98">
<rect width="25" height="25" fill="white"/>
</clipPath>
</defs>
</svg>
