<svg width="22" height="22" viewBox="0 0 22 22" fill="none" xmlns="http://www.w3.org/2000/svg">
<g id="phone-receiver-silhouette 1" clip-path="url(#clip0_743_102)">
<g id="Group">
<path id="Vector" d="M18.9553 15.3121C17.6263 14.1754 16.2776 13.4869 14.9649 14.6219L14.181 15.3078C13.6075 15.8058 12.5412 18.1324 8.41853 13.3899C4.29669 8.65332 6.74953 7.91583 7.32389 7.42217L8.11203 6.73534C9.41786 5.59778 8.92506 4.16574 7.98325 2.69164L7.4149 1.79876C6.46879 0.328086 5.43855 -0.637768 4.12928 0.498076L3.42185 1.11622C2.84319 1.53776 1.22571 2.90799 0.833357 5.51107C0.361162 8.63443 1.85072 12.2111 5.26341 16.1355C8.6718 20.0616 12.0089 22.0336 15.1701 21.9993C17.7972 21.9709 19.3838 20.5612 19.88 20.0487L20.59 19.4297C21.8958 18.2947 21.0845 17.1391 19.7546 15.9998L18.9553 15.3121Z" fill="#666666"/>
</g>
</g>
<defs>
<clipPath id="clip0_743_102">
<rect width="22" height="22" fill="white"/>
</clipPath>
</defs>
</svg>
