<svg width="50" height="50" viewBox="0 0 50 50" fill="none" xmlns="http://www.w3.org/2000/svg">
<g clip-path="url(#clip0_119_186)">
<path d="M47.5003 29.1674H45.0002V20.8344C44.9975 18.5343 43.1337 16.6705 40.8335 16.6678H27.5008C25.2007 16.6705 23.3369 18.5343 23.3342 20.8344V29.1674H20.8341C19.4544 29.1689 18.336 30.2873 18.3344 31.6675V40.0004C18.3409 42.1934 20.0483 44.0045 22.2371 44.1403L21.039 48.3333H13.2504C12.8517 46.3951 11.147 45.0028 9.16801 45.0002H7.50142V6.6347C7.50256 4.0282 9.51742 1.86572 12.1174 1.6811C14.7174 1.49647 17.018 3.35226 17.3876 5.93244L17.4021 6.03352C16.3268 6.4764 15.7024 7.60551 15.8992 8.75141L16.1266 10.0968L13.8985 13.9232C13.599 14.4378 13.5967 15.0729 13.892 15.5898C14.1876 16.1067 14.7365 16.4267 15.332 16.4294C15.4273 16.4294 15.5227 16.4214 15.6165 16.4053L23.6111 15.0542C24.2485 14.9463 24.7662 14.4794 24.9394 13.8565C25.1122 13.2335 24.9092 12.5667 24.4183 12.146L21.0565 9.26409L20.8292 7.91869C20.6678 6.98068 19.9865 6.21624 19.0733 5.94808L19.0375 5.6967C18.545 2.24985 15.472 -0.230004 11.9992 0.0167992C8.52639 0.263602 5.83483 3.15314 5.83483 6.6347V45.0002H4.16824V44.167C4.16824 43.7066 3.79518 43.3336 3.33476 43.3336C2.87472 43.3336 2.50166 43.7066 2.50166 44.167V45.3534C0.985365 46.016 0.00463857 47.512 0.00158691 49.1668C0.00158691 49.6268 0.374652 49.9999 0.835071 49.9999H49.1669C49.6269 49.9999 50 49.6268 50 49.1668C50 48.7064 49.6269 48.3333 49.1669 48.3333H47.2954L46.0973 44.1403C48.2861 44.0045 49.9935 42.1934 50 40.0004V31.6675C49.9984 30.2873 48.88 29.1689 47.5003 29.1674ZM23.3334 13.4109L15.3388 14.7624L17.5223 11.0127L20.0395 10.5874L23.3395 13.4094L23.3334 13.4109ZM19.3251 9.01767L17.6818 9.29537L17.5425 8.47371C17.4666 8.02015 17.7718 7.59063 18.2253 7.5132C18.2715 7.50557 18.318 7.50175 18.3649 7.50175C18.7712 7.50252 19.1179 7.79548 19.1866 8.19601L19.3251 9.01767ZM27.5008 18.3344H40.8335C42.2137 18.3359 43.3321 19.4543 43.3336 20.8344V29.3211C42.3376 29.6717 41.6701 30.6112 41.667 31.6675V33.3554C40.9499 32.8042 40.0714 32.5036 39.167 32.5006H36.179L38.0897 30.5898C38.4052 30.2629 38.401 29.743 38.0794 29.4218C37.7579 29.1002 37.2383 29.0957 36.9114 29.4115L35.0007 31.3222V27.5008C35.0007 27.0404 34.6272 26.6673 34.1672 26.6673C33.7072 26.6673 33.3337 27.0404 33.3337 27.5008V31.3222L31.423 29.4115C31.0961 29.0957 30.5765 29.1002 30.255 29.4218C29.9334 29.743 29.9292 30.2629 30.2447 30.5898L32.1554 32.5006H29.1674C28.263 32.5036 27.3845 32.8042 26.6674 33.3554V31.6675C26.6643 30.6112 25.9968 29.6717 25.0008 29.3211V20.8344C25.0023 19.4543 26.1207 18.3359 27.5008 18.3344ZM39.167 34.1671C40.5471 34.1687 41.6655 35.2871 41.667 36.6672V37.5003H26.6674V36.6672C26.6689 35.2871 27.7873 34.1687 29.1674 34.1671H39.167ZM40.3502 44.167L42.7313 48.3333H25.6035L27.9841 44.167H40.3502ZM41.667 42.5001H26.6674V39.1669H41.667V42.5001ZM20.001 40.0004V31.6675C20.0014 31.2074 20.3745 30.8347 20.8341 30.834H24.1677C24.6273 30.8347 25.0004 31.2074 25.0008 31.6675V42.5001H22.5011C21.121 42.4986 20.0025 41.3805 20.001 40.0004ZM1.81122 48.3333C2.16521 47.3354 3.10894 46.6679 4.16824 46.6667H9.16801C10.2269 46.6679 11.171 47.3354 11.525 48.3333H1.81122ZM22.7723 48.3333L23.9628 44.167H26.065L23.6844 48.3333H22.7723ZM44.65 48.3333L42.2693 44.167H44.3716L45.5621 48.3333H44.65ZM48.3334 40.0004C48.3318 41.3805 47.2134 42.4986 45.8333 42.5001H43.3336V31.6675C43.334 31.2074 43.7071 30.8347 44.1667 30.834H47.5003C47.9599 30.8347 48.3326 31.2074 48.3334 31.6675V40.0004Z" fill="white"/>
</g>
<defs>
<clipPath id="clip0_119_186">
<rect width="50" height="50" fill="white"/>
</clipPath>
</defs>
</svg>
