<svg width="50" height="50" viewBox="0 0 50 50" fill="none" xmlns="http://www.w3.org/2000/svg">
<g clip-path="url(#clip0_151_14)">
<path d="M49.9997 4.965C50.0012 4.62885 49.9357 4.29577 49.8069 3.98527C49.6781 3.67476 49.4887 3.39307 49.2497 3.15668L46.8431 0.750032C46.6078 0.512145 46.3276 0.323351 46.0187 0.1946C45.7099 0.0658485 45.3785 -0.000296644 45.0439 1.00006e-06H45.0356C44.7031 0.00020567 44.3739 0.0666322 44.0673 0.195405C43.7606 0.324179 43.4827 0.51272 43.2498 0.750032L32.3332 11.6666H10.8334V2.50002C10.8334 1.11925 9.71408 1.00006e-06 8.33339 1.00006e-06H6.66673C2.98659 0.00411436 0.00423543 2.98647 0.00012207 6.66661V43.5422C0.20867 47.1943 3.25058 50.0376 6.90843 49.9996H47.4998C48.8805 49.9996 49.9997 48.8803 49.9997 47.4997V14.1666C49.9997 12.7859 48.8805 11.6666 47.4998 11.6666H44.3331L49.2498 6.74995C49.4866 6.51681 49.6748 6.23901 49.8036 5.93261C49.9323 5.62622 49.999 5.29733 49.9997 4.965ZM29.8166 20.8332C29.7296 20.845 29.6411 20.8361 29.5582 20.8071C29.4754 20.7782 29.4006 20.73 29.3399 20.6665C29.2787 20.6057 29.2319 20.5319 29.2031 20.4505C29.1742 20.3692 29.164 20.2824 29.1733 20.1965L29.4891 17.3633C29.5023 17.304 29.519 17.2455 29.5391 17.1883L32.8216 20.4707C32.7674 20.4824 32.7182 20.5091 32.6615 20.5157L29.8166 20.8332ZM34.1823 19.4723L30.5357 15.8249L39.619 6.74164L43.2639 10.3858L34.1823 19.4723ZM40.794 5.56242L42.0298 4.32742L45.6731 7.97154L44.4381 9.20736L40.794 5.56242ZM1.66677 6.66661C1.66957 3.90638 3.9065 1.66937 6.66673 1.66665H8.33339C8.79359 1.66665 9.16675 2.03974 9.16675 2.49994V35.833C9.16675 36.2932 8.79367 36.6663 8.33339 36.6663H6.66673C5.72042 36.666 4.78493 36.8676 3.92272 37.2576C3.06051 37.6476 2.29141 38.217 1.66677 38.9279V6.66661ZM47.4998 13.3332C47.96 13.3332 48.3331 13.7063 48.3331 14.1666V47.4997C48.3331 47.9599 47.9601 48.333 47.4998 48.333H6.90843C4.15742 48.3793 1.85278 46.2614 1.66677 43.5164V43.333C1.66957 40.5727 3.9065 38.3358 6.66673 38.333H8.33339C9.71408 38.333 10.8333 37.2138 10.8333 35.8331V13.3332H30.6665L28.774 15.2257C28.2457 15.7463 27.9133 16.4333 27.8332 17.1707L27.5174 20.0098C27.4914 20.2867 27.5177 20.5659 27.5949 20.8331H13.3333C12.8731 20.8331 12.5 21.2062 12.5 21.6665C12.5 22.1267 12.8731 22.4998 13.3333 22.4998H15.8334V44.9996C15.8334 45.4598 16.2064 45.833 16.6667 45.833C17.127 45.833 17.5001 45.4599 17.5001 44.9996V33.3331H26.6667V39.9997H20.8333C20.3731 39.9997 20 40.3728 20 40.833C20 41.2932 20.3731 41.6663 20.8333 41.6663H37.4999C38.4203 41.6663 39.1665 40.9202 39.1665 39.9997V27.4998C39.1665 27.0396 38.7934 26.6664 38.3332 26.6664C37.873 26.6664 37.4999 27.0395 37.4999 27.4998V31.6664H17.5V22.4999H29.7566C29.8379 22.5 29.9192 22.4956 30 22.4865L32.8474 22.1624C33.5701 22.0804 34.2447 21.7592 34.7641 21.2499L42.6707 13.3333L47.4998 13.3332ZM37.4999 33.3331V39.9997H28.3332V33.3331H37.4999ZM48.0747 5.56826L46.8514 6.7924L43.2081 3.14911L44.4323 1.92497C44.5115 1.84359 44.6063 1.77883 44.7109 1.73448C44.8155 1.69013 44.9278 1.66707 45.0415 1.66665C45.1571 1.66694 45.2716 1.69022 45.3781 1.73515C45.4847 1.78008 45.5813 1.84575 45.6622 1.92835L48.0723 4.33335C48.1552 4.41504 48.221 4.51248 48.2658 4.61994C48.3106 4.7274 48.3335 4.84273 48.3331 4.95915C48.3328 5.07277 48.3097 5.18517 48.2654 5.28977C48.221 5.39436 48.1562 5.48905 48.0747 5.56826Z" fill="white"/>
</g>
<defs>
<clipPath id="clip0_151_14">
<rect width="50" height="50" fill="white"/>
</clipPath>
</defs>
</svg>
