<svg width="50" height="50" viewBox="0 0 50 50" fill="none" xmlns="http://www.w3.org/2000/svg">
<g clip-path="url(#clip0_151_24)">
<path d="M47.8027 45.6055H44.3589C44.3367 44.2374 43.3882 43.0906 42.1141 42.7672V30.9095C42.1141 30.8817 42.1122 30.8545 42.1093 30.8276L45.9756 26.9613C46.112 26.8238 46.1883 26.6378 46.1879 26.4441C46.1875 26.2504 46.1103 26.0648 45.9734 25.9278C45.8364 25.7908 45.6508 25.7137 45.4571 25.7133C45.2634 25.7128 45.0774 25.7891 44.9398 25.9255L32.7146 38.1507C32.5762 38.289 32.3923 38.3651 32.1967 38.3651C32.0011 38.3651 31.8172 38.289 31.6788 38.1506C31.5404 38.0123 31.4643 37.8283 31.4643 37.6327C31.4643 37.4371 31.5404 37.2531 31.6788 37.1148L47.2849 21.5088C47.5705 21.2232 48.0352 21.2233 48.3206 21.5087C48.6062 21.7943 48.6062 22.2591 48.3206 22.5445L47.1488 23.7163C47.0125 23.8539 46.9361 24.0398 46.9365 24.2335C46.937 24.4272 47.0141 24.6129 47.151 24.7498C47.288 24.8868 47.4736 24.9639 47.6673 24.9644C47.861 24.9648 48.047 24.8885 48.1846 24.7521L49.3564 23.5803C50.2131 22.7236 50.2131 21.3296 49.3564 20.4729C48.4998 19.6163 47.1058 19.6163 46.2491 20.4729L30.643 36.079C30.2279 36.494 29.9994 37.0458 29.9994 37.6327C29.9994 38.2196 30.228 38.7714 30.643 39.1863C31.058 39.6014 31.6098 39.83 32.1967 39.83C32.7836 39.83 33.3354 39.6014 33.7504 39.1864L40.6493 32.2876V42.7671C39.3752 43.0905 38.4267 44.2373 38.4045 45.6054H29.3593C29.3371 44.2373 28.3886 43.0904 27.1145 42.7671V30.9095C27.1143 30.8822 27.1127 30.8549 27.1097 30.8277L34.3569 23.5806C35.2136 22.7239 35.2136 21.3298 34.3569 20.473C33.5002 19.6165 32.1062 19.6165 31.2495 20.473L15.6433 36.079C15.2282 36.494 14.9997 37.0458 14.9997 37.6327C14.9997 38.2196 15.2283 38.7714 15.6433 39.1863C16.0583 39.6014 16.6101 39.83 17.197 39.83C17.7839 39.83 18.3357 39.6014 18.7507 39.1864L25.6495 32.2876V42.7671C24.3754 43.0905 23.4269 44.2373 23.4047 45.6054H14.3596C14.3374 44.2373 13.3889 43.0904 12.1147 42.7671V30.9095C12.1147 30.8817 12.1129 30.8545 12.1099 30.8276L19.3571 23.5804C20.2138 22.7237 20.2138 21.3297 19.3571 20.4729C18.5005 19.6164 17.1064 19.6164 16.2498 20.4729L4.58174 32.1408C4.44537 32.2784 4.36904 32.4643 4.36946 32.658C4.36987 32.8517 4.447 33.0374 4.58395 33.1743C4.72091 33.3113 4.90654 33.3885 5.10024 33.3889C5.29393 33.3893 5.47991 33.313 5.61748 33.1767L17.2854 21.5088C17.5711 21.2232 18.0357 21.2233 18.3212 21.5087C18.6067 21.7943 18.6067 22.2591 18.3212 22.5445L2.71514 38.1507C2.57676 38.289 2.39287 38.3651 2.19727 38.3651C2.00166 38.3651 1.81777 38.289 1.67939 38.1506C1.54102 38.0123 1.46484 37.8283 1.46484 37.6327C1.46484 37.4371 1.54102 37.2531 1.67939 37.1148L3.4084 35.3858C3.54477 35.2483 3.62109 35.0623 3.62068 34.8686C3.62026 34.6749 3.54314 34.4893 3.40618 34.3523C3.26923 34.2153 3.08359 34.1382 2.8899 34.1378C2.6962 34.1373 2.51022 34.2136 2.37266 34.35L0.643555 36.079C0.228516 36.494 0 37.0458 0 37.6327C0 38.2196 0.228613 38.7714 0.643555 39.1863C1.05859 39.6014 1.61035 39.83 2.19727 39.83C2.78418 39.83 3.33594 39.6014 3.75098 39.1864L10.6499 32.2875V42.7671C9.37578 43.0905 8.42725 44.2373 8.40508 45.6054H2.19727C0.985645 45.6055 0 46.5912 0 47.8027C0 49.0143 0.985645 50 2.19727 50H47.8027C49.0144 50 50 49.0143 50 47.8027C50 46.5912 49.0144 45.6055 47.8027 45.6055ZM17.7148 38.1507C17.5765 38.289 17.3926 38.3651 17.197 38.3651C17.0014 38.3651 16.8175 38.289 16.6791 38.1506C16.5407 38.0123 16.4646 37.8283 16.4646 37.6327C16.4646 37.4371 16.5407 37.2531 16.6791 37.1148L32.2852 21.5088C32.3531 21.4407 32.4339 21.3868 32.5228 21.35C32.6117 21.3132 32.7069 21.2944 32.8031 21.2946C32.8993 21.2945 32.9945 21.3133 33.0834 21.35C33.1723 21.3868 33.253 21.4407 33.321 21.5087C33.6065 21.7943 33.6065 22.2591 33.321 22.5445L17.7148 38.1507ZM41.3816 44.1406C42.1999 44.1406 42.8687 44.7934 42.8945 45.6055H39.8688C39.8946 44.7934 40.5634 44.1406 41.3816 44.1406ZM26.3819 44.1406C27.2002 44.1406 27.8689 44.7934 27.8948 45.6055H24.869C24.8949 44.7934 25.5636 44.1406 26.3819 44.1406ZM11.3822 44.1406C12.2005 44.1406 12.8692 44.7934 12.8951 45.6055H9.86934C9.89521 44.7934 10.564 44.1406 11.3822 44.1406ZM47.8027 48.5352H2.19727C1.79336 48.5352 1.46484 48.2066 1.46484 47.8027C1.46484 47.3988 1.79336 47.0703 2.19727 47.0703H47.8027C48.2066 47.0703 48.5352 47.3988 48.5352 47.8027C48.5352 48.2066 48.2066 48.5352 47.8027 48.5352ZM10.498 15.7227C13.3789 15.7227 15.7227 13.3789 15.7227 10.498C15.7227 7.61719 13.3789 5.27344 10.498 5.27344C9.7335 5.27344 8.99639 5.43506 8.30713 5.75391C8.21865 5.79352 8.13892 5.8503 8.07255 5.92097C8.00619 5.99163 7.95451 6.07476 7.92051 6.16555C7.88652 6.25633 7.87088 6.35296 7.87452 6.44983C7.87815 6.54671 7.90098 6.64189 7.94168 6.72988C7.98238 6.81786 8.04014 6.89689 8.11161 6.96238C8.18308 7.02788 8.26684 7.07853 8.35804 7.1114C8.44924 7.14428 8.54605 7.15872 8.64287 7.1539C8.73969 7.14908 8.83459 7.12508 8.92207 7.0833C9.41719 6.8543 9.94736 6.73828 10.498 6.73828C12.5712 6.73828 14.2578 8.4249 14.2578 10.498C14.2578 12.5712 12.5712 14.2578 10.498 14.2578C8.4249 14.2578 6.73828 12.5712 6.73828 10.498C6.73828 9.93418 6.85986 9.39229 7.09951 8.8874C7.14166 8.80041 7.16617 8.70592 7.17162 8.60941C7.17708 8.51289 7.16338 8.41625 7.1313 8.32506C7.09923 8.23387 7.04942 8.14992 6.98475 8.07807C6.92007 8.00622 6.84182 7.94789 6.75449 7.90643C6.66716 7.86497 6.57249 7.84121 6.47594 7.83651C6.37938 7.83182 6.28285 7.84628 6.19191 7.87908C6.10098 7.91187 6.01743 7.96234 5.94609 8.02758C5.87476 8.09281 5.81704 8.17153 5.77627 8.25918C5.44258 8.96182 5.27344 9.71504 5.27344 10.498C5.27344 13.3789 7.61719 15.7227 10.498 15.7227ZM10.498 2.63672C10.6923 2.63672 10.8786 2.55955 11.0159 2.4222C11.1533 2.28484 11.2305 2.09855 11.2305 1.9043V0.732422C11.2305 0.327832 10.9025 0 10.498 0C10.0936 0 9.76562 0.327832 9.76562 0.732422V1.9043C9.76562 2.09855 9.84279 2.28484 9.98015 2.4222C10.1175 2.55955 10.3038 2.63672 10.498 2.63672ZM9.76562 19.0918V20.2637C9.76562 20.6683 10.0936 20.9961 10.498 20.9961C10.9025 20.9961 11.2305 20.6683 11.2305 20.2637V19.0918C11.2305 18.6872 10.9025 18.3594 10.498 18.3594C10.0936 18.3594 9.76562 18.6872 9.76562 19.0918ZM16.5748 5.15371C16.671 5.15384 16.7663 5.13495 16.8552 5.09813C16.944 5.06131 17.0248 5.00729 17.0927 4.93916L17.9213 4.11055C17.9909 4.0429 18.0464 3.96209 18.0845 3.87281C18.1226 3.78353 18.1426 3.68757 18.1433 3.5905C18.144 3.49343 18.1254 3.3972 18.0885 3.30738C18.0517 3.21757 17.9974 3.13597 17.9288 3.06733C17.8601 2.9987 17.7785 2.94439 17.6887 2.90757C17.5989 2.87075 17.5026 2.85215 17.4056 2.85286C17.3085 2.85356 17.2125 2.87355 17.1233 2.91167C17.034 2.94979 16.9532 3.00528 16.8855 3.0749L16.0569 3.90352C15.9545 4.00595 15.8848 4.13644 15.8566 4.27849C15.8284 4.42055 15.8429 4.56778 15.8983 4.70159C15.9537 4.83539 16.0476 4.94976 16.168 5.03024C16.2884 5.11071 16.43 5.15368 16.5748 5.15371ZM3.59277 18.1358C3.68897 18.136 3.78425 18.1171 3.87313 18.0803C3.962 18.0434 4.04272 17.9894 4.11064 17.9213L4.93926 17.0927C5.00888 17.025 5.06435 16.9442 5.10246 16.8549C5.14058 16.7657 5.16056 16.6697 5.16125 16.5726C5.16195 16.4756 5.14334 16.3793 5.10651 16.2895C5.06968 16.1997 5.01537 16.1181 4.94673 16.0495C4.87808 15.9808 4.79648 15.9265 4.70666 15.8897C4.61685 15.8529 4.52061 15.8343 4.42354 15.835C4.32647 15.8357 4.23051 15.8557 4.14123 15.8938C4.05196 15.9319 3.97116 15.9874 3.90352 16.057L3.0749 16.8856C2.97252 16.9881 2.9028 17.1186 2.87456 17.2606C2.84633 17.4027 2.86084 17.5499 2.91626 17.6837C2.97169 17.8175 3.06554 17.9319 3.18596 18.0124C3.30637 18.0928 3.44794 18.1358 3.59277 18.1358ZM19.0918 11.2305H20.2637C20.6682 11.2305 20.9961 10.9026 20.9961 10.498C20.9961 10.0935 20.6682 9.76562 20.2637 9.76562H19.0918C18.6873 9.76562 18.3594 10.0935 18.3594 10.498C18.3594 10.9026 18.6873 11.2305 19.0918 11.2305ZM0.732422 11.2305H1.9043C2.30879 11.2305 2.63672 10.9026 2.63672 10.498C2.63672 10.0935 2.30879 9.76562 1.9043 9.76562H0.732422C0.32793 9.76562 0 10.0935 0 10.498C0 10.9026 0.32793 11.2305 0.732422 11.2305ZM16.8854 17.9213C17.0284 18.0644 17.2159 18.1358 17.4033 18.1358C17.5907 18.1358 17.7782 18.0644 17.9212 17.9214C18.0585 17.784 18.1357 17.5978 18.1357 17.4035C18.1357 17.2093 18.0585 17.023 17.9212 16.8856L17.0926 16.057C17.0249 15.9874 16.9441 15.9319 16.8549 15.8938C16.7656 15.8557 16.6696 15.8357 16.5726 15.835C16.4755 15.8343 16.3792 15.8529 16.2894 15.8897C16.1996 15.9265 16.118 15.9808 16.0494 16.0495C15.9807 16.1181 15.9264 16.1997 15.8896 16.2895C15.8528 16.3793 15.8341 16.4756 15.8348 16.5726C15.8355 16.6697 15.8555 16.7657 15.8936 16.8549C15.9317 16.9442 15.9872 17.025 16.0568 17.0927L16.8854 17.9213ZM3.90342 4.93916C4.04639 5.08223 4.23389 5.15371 4.42129 5.15371C4.60869 5.15371 4.79619 5.08223 4.93916 4.93926C5.0765 4.8019 5.15365 4.61562 5.15365 4.42139C5.15365 4.22715 5.0765 4.04087 4.93916 3.90352L4.11055 3.0749C4.04291 3.00528 3.9621 2.94979 3.87283 2.91167C3.78355 2.87355 3.68759 2.85356 3.59052 2.85286C3.49346 2.85215 3.39722 2.87075 3.3074 2.90757C3.21758 2.94439 3.13598 2.9987 3.06734 3.06733C2.99869 3.13597 2.94438 3.21757 2.90755 3.30738C2.87072 3.3972 2.85211 3.49343 2.85281 3.5905C2.8535 3.68757 2.87349 3.78353 2.9116 3.87281C2.94971 3.96209 3.00519 4.0429 3.0748 4.11055L3.90342 4.93916Z" fill="white"/>
</g>
<defs>
<clipPath id="clip0_151_24">
<rect width="50" height="50" fill="white"/>
</clipPath>
</defs>
</svg>
