<svg width="70" height="70" viewBox="0 0 70 70" fill="none" xmlns="http://www.w3.org/2000/svg">
<g id="contractor 1" clip-path="url(#clip0_743_236)">
<path id="Vector" d="M69.0437 63.5033H67.9286C67.7849 62.9081 67.6359 62.2863 67.4847 61.6546C66.8033 58.809 66.0987 55.8664 65.6517 54.4326C64.9952 52.3275 63.6245 50.6408 61.5778 49.4194C61.5776 49.4194 61.5776 49.4193 61.5775 49.4193C60.3573 48.6914 58.8907 48.1202 57.1202 47.6851C57.2214 47.5049 57.3216 47.3318 57.4188 47.1708C57.6853 46.7296 57.5546 46.1567 57.1232 45.8747L56.2437 45.2996C58.0597 43.0555 58.9692 40.577 59.1982 37.2119H59.3199C61.1084 37.2119 62.0734 35.8841 62.0734 34.6348C62.0734 33.5772 61.3819 32.4639 60.0851 32.1468C59.4295 28.6387 57.1959 26.0509 53.7124 24.778C53.4058 24.2007 52.8454 23.7566 52.1152 23.4923V20.0768L53.5878 20.6457C54.6714 21.0645 55.7827 20.91 56.6365 20.2213C57.545 19.4889 58.0154 18.2709 57.8354 17.1185C57.666 16.0353 56.947 15.1741 55.8628 14.7557L30.0813 4.79795C29.3521 4.51097 28.5413 4.50988 27.7969 4.79576L2.00915 14.7559C0.0944024 15.4959 -0.334621 17.3647 0.230984 18.8284C0.671355 19.9678 1.72327 20.8835 3.07118 20.8835C3.45399 20.8835 3.861 20.8095 4.28429 20.646L5.75688 20.077V63.5033H0.959012C0.43032 63.5033 0.00184369 63.9319 0.00184369 64.4605C0.00184369 64.9891 0.430457 65.4177 0.959012 65.4177H33.5482C33.5498 65.4177 33.5513 65.4179 33.5528 65.4179C33.5539 65.4179 33.5548 65.4177 33.5559 65.4177H39.7598C39.7605 65.4177 39.761 65.4178 39.7617 65.4178C39.7627 65.4178 39.7636 65.4177 39.7646 65.4177H60.9591C60.9601 65.4177 60.961 65.4178 60.962 65.4178C60.9627 65.4178 60.9632 65.4177 60.9639 65.4177H67.1718C67.1729 65.4177 67.1738 65.4179 67.1749 65.4179C67.1764 65.4179 67.1779 65.4177 67.1794 65.4177H69.0437C69.5724 65.4177 70.0009 64.9891 70.0009 64.4605C70.0009 63.9319 69.5723 63.5033 69.0437 63.5033ZM63.8242 55.0024C64.2519 56.3748 64.949 59.2856 65.623 62.1005C65.7369 62.5758 65.8494 63.0456 65.9595 63.5033H61.8041C61.2609 59.1134 61.2417 55.0005 61.7416 51.8751C62.7508 52.7289 63.4369 53.7612 63.8242 55.0024ZM34.7671 63.5033C34.8654 63.0929 34.966 62.6722 35.0676 62.2469C35.7224 59.5058 36.4643 56.3992 36.8996 55.0027C37.2863 53.7631 37.9725 52.7314 38.9825 51.8764C39.4821 55.0015 39.463 59.114 38.9198 63.5033H34.7671ZM40.7239 50.7341C41.7635 50.2035 43.0077 49.7777 44.4931 49.4432C45.0436 50.6531 45.5407 52.0135 45.8018 53.3099C45.8717 53.6566 46.1268 53.9364 46.4656 54.0379C46.8041 54.1389 47.1713 54.0458 47.4203 53.7945L49.4065 51.7891V58.3489H41.2417C41.3157 55.8709 41.2131 53.1748 40.7239 50.7341ZM54.9093 46.7147L55.3187 46.9822C54.5621 48.3595 53.9243 49.8491 53.485 51.2533L51.044 48.7887C51.0433 48.788 51.0426 48.7875 51.042 48.7869C51.0264 48.7713 51.0098 48.7569 50.9932 48.7424C50.9863 48.7363 50.9799 48.7298 50.9729 48.724C50.9489 48.7042 50.9238 48.6855 50.8979 48.668C50.8962 48.6669 50.8944 48.6659 50.8928 48.6648C50.8683 48.6486 50.8432 48.6333 50.8172 48.6193C50.8166 48.619 50.8161 48.6189 50.8157 48.6186C50.8141 48.6178 50.8124 48.6171 50.8108 48.6163C52.2341 48.5035 53.6259 47.8553 54.9093 46.7147ZM49.912 48.6186C49.9114 48.6189 49.9109 48.619 49.9105 48.6193C49.8841 48.6335 49.8587 48.649 49.8339 48.6655C49.8325 48.6663 49.8312 48.6672 49.8298 48.668C49.8038 48.6855 49.7788 48.7042 49.7548 48.724C49.7478 48.7298 49.7414 48.7365 49.7345 48.7424C49.718 48.7569 49.7013 48.7713 49.6857 48.7869C49.685 48.7876 49.6843 48.7882 49.6837 48.7887L47.2421 51.2539C46.9018 50.1679 46.441 49.0302 45.8983 47.9309C45.8911 47.916 45.884 47.9009 45.8759 47.8865C45.7246 47.5815 45.5683 47.2791 45.4052 46.9822L45.8144 46.7147C47.0987 47.8563 48.4916 48.5046 49.9162 48.6166C49.9148 48.6173 49.9133 48.6178 49.912 48.6186ZM41.1495 60.2634H49.4065V63.5033H40.8483C40.9618 62.5555 41.0713 61.4547 41.1495 60.2634ZM51.321 60.2634H59.574C59.6522 61.4547 59.7617 62.5555 59.8752 63.5033H51.321V60.2634ZM59.9998 50.7341C59.5106 53.1748 59.4081 55.871 59.4819 58.349H51.321V51.7893L53.3073 53.7947C53.4896 53.9788 53.7356 54.0784 53.9874 54.0784C54.079 54.0784 54.1716 54.0651 54.262 54.0382C54.6007 53.9367 54.856 53.6567 54.9257 53.3101C55.1874 52.0108 55.6833 50.6511 56.2318 49.4432C57.7168 49.7779 58.9604 50.2036 59.9998 50.7341ZM54.5417 44.3575C53.2232 45.9041 51.7778 46.7217 50.3618 46.7217C48.9458 46.7217 47.5004 45.9042 46.1819 44.3575C44.4882 42.3719 43.6672 40.2506 43.4442 37.2122H57.2795C57.0565 40.2503 56.2355 42.3717 54.5417 44.3575ZM59.3201 35.2976H41.5742C40.7957 35.2976 40.7351 34.7903 40.7351 34.6349C40.7351 34.4794 40.7957 33.9721 41.5742 33.9721H59.2463C59.2473 33.9721 59.2482 33.9722 59.2492 33.9722C59.2499 33.9722 59.2507 33.9721 59.2514 33.9721H59.3201C60.0986 33.9721 60.1592 34.4793 60.1592 34.6349C60.1592 34.7903 60.0986 35.2976 59.3201 35.2976ZM50.4471 25.1331C51.1541 25.1331 51.7215 25.3432 51.9488 25.5823V32.0576H48.9452V25.5823C49.1729 25.3434 49.7401 25.1331 50.4471 25.1331ZM47.0309 32.0576H42.7878C43.3536 29.7415 44.821 27.9633 47.0309 26.9152V32.0576ZM58.1065 32.0576H53.8634V26.9152C56.0732 27.9633 57.5406 29.7415 58.1065 32.0576ZM3.59427 18.86C3.22895 19.0012 2.90069 18.9978 2.61864 18.8502C2.35833 18.7139 2.13903 18.4544 2.0168 18.1381C1.89458 17.8218 1.88241 17.4819 1.98345 17.2056C2.09296 16.9062 2.33386 16.6828 2.69903 16.5417L28.4849 6.58226C28.7794 6.4692 29.0974 6.4681 29.3858 6.58158L55.1736 16.5418C55.6214 16.7146 55.8806 17.0082 55.9441 17.4144C56.0182 17.8882 55.8089 18.4296 55.4351 18.731C55.1145 18.9895 54.7253 19.0328 54.2781 18.8599L29.2813 9.20207C29.1702 9.15927 29.0533 9.13781 28.9363 9.13781C28.8193 9.13781 28.7024 9.15927 28.5914 9.20207L3.59427 18.86ZM7.67136 19.3373L28.9362 11.1215L50.201 19.3373V23.2248C48.7787 23.2851 47.6654 23.8669 47.1816 24.7782C43.6981 26.0509 41.4644 28.6387 40.8088 32.1469C39.5121 32.4641 38.8205 33.5775 38.8205 34.6349C38.8205 35.8728 39.7683 37.1866 41.5251 37.211C41.7541 40.5767 42.6636 43.0555 44.4797 45.2999L43.6004 45.875C43.169 46.157 43.0384 46.7299 43.3048 47.1711C43.4021 47.3322 43.5023 47.5056 43.6036 47.6858C41.833 48.1204 40.3661 48.6915 39.1458 49.4195C39.1457 49.4195 39.1457 49.4197 39.1455 49.4197C39.1452 49.4198 39.145 49.4199 39.1448 49.4201C37.0976 50.6447 35.7271 52.3311 35.0717 54.433C34.617 55.8915 33.8993 58.8963 33.2052 61.8024C33.0665 62.3835 32.93 62.9547 32.7979 63.5036H7.67136V19.3373ZM33.4007 45.1724V27.2443C33.4007 26.7156 32.9721 26.2871 32.4436 26.2871H14.6705C14.1418 26.2871 13.7134 26.7157 13.7134 27.2443V45.1724C13.7134 45.7011 14.142 46.1295 14.6705 46.1295H32.4436C32.9721 46.1295 33.4007 45.7009 33.4007 45.1724ZM31.4863 35.2511H24.5141V28.2015H31.4863V35.2511ZM22.5998 28.2015V35.2511H15.6278V28.2015H22.5998ZM15.6278 37.1656H22.5998V44.2152H15.6278V37.1656ZM24.5143 44.2151V37.1654H31.4864V44.2151H24.5143Z" fill="black"/>
</g>
<defs>
<clipPath id="clip0_743_236">
<rect width="70" height="70" fill="white"/>
</clipPath>
</defs>
</svg>
