<svg width="70" height="70" viewBox="0 0 70 70" fill="none" xmlns="http://www.w3.org/2000/svg">
<g id="engineering 1">
<g id="Group">
<g id="Group_2">
<path id="Vector" d="M62.3178 29.6123C62.1792 29.6123 62.0405 29.6123 61.9019 29.6123C61.8718 29.6123 61.7525 29.6317 61.7295 29.6123C61.7102 29.5961 61.7186 29.5191 61.7169 29.4886C61.712 29.3918 61.7072 29.2951 61.7017 29.1983C61.664 28.5287 61.5997 27.8597 61.508 27.1953C61.2843 25.5563 60.9034 23.9456 60.3653 22.3792C60.1738 21.822 59.5669 21.525 59.0091 21.7165C58.4515 21.9081 58.1548 22.5153 58.3464 23.0728C58.584 23.7647 58.7851 24.4669 58.9562 25.1762H55.6283C54.359 25.1762 53.3263 26.2088 53.3263 27.4781V29.6123H40.6327V27.4781C40.6327 26.2088 39.6001 25.1762 38.3308 25.1762H30.6228C29.3535 25.1762 28.3209 26.2088 28.3209 27.4781V29.6123H16.6946V27.4781C16.6946 26.2088 15.662 25.1762 14.3927 25.1762H11.0736C12.6573 18.6592 16.9987 13.0309 23.0678 9.88818L23.9173 12.669C24.0579 13.129 24.4806 13.4248 24.9378 13.4248C25.041 13.4248 25.1462 13.4096 25.2501 13.3779C25.8138 13.2057 26.1312 12.609 25.9589 12.0452L24.2605 6.48525C24.2565 6.4724 24.2445 6.43344 24.2769 6.38982C24.3093 6.34607 24.3502 6.34607 24.3636 6.34607C24.4434 6.34607 24.5229 6.33719 24.6005 6.31941C25.518 6.11051 26.4498 5.92963 27.3825 5.77555V16.5681C27.3825 17.1577 27.8603 17.6355 28.4498 17.6355C29.0394 17.6355 29.5172 17.1577 29.5172 16.5681V2.72645C29.5172 2.40023 29.7827 2.13486 30.1088 2.13486H39.9123C40.2385 2.13486 40.5039 2.40037 40.5039 2.72645V16.5681C40.5039 17.1577 40.9817 17.6355 41.5713 17.6355C42.1608 17.6355 42.6386 17.1577 42.6386 16.5681V5.77568C43.5716 5.92963 44.5032 6.11051 45.4204 6.31941C45.4936 6.33609 45.5681 6.34498 45.643 6.34594C45.6567 6.34758 45.7197 6.3566 45.7443 6.38982C45.7766 6.43344 45.7646 6.47268 45.7607 6.48539L44.145 11.7749C43.9727 12.3387 44.2902 12.9354 44.8539 13.1076C44.9578 13.1394 45.0628 13.1545 45.1662 13.1545C45.6231 13.1545 46.0461 12.8585 46.1866 12.3988L46.954 9.88654C50.8923 11.9317 54.2441 15.1197 56.4725 18.9662C56.6705 19.3078 57.0287 19.4986 57.397 19.4986C57.5787 19.4986 57.7627 19.4521 57.9312 19.3546C58.4413 19.0591 58.6152 18.406 58.3196 17.8959C55.8234 13.5871 52.0346 10.035 47.5873 7.81307L47.8024 7.1091C48.0122 6.42209 47.8875 5.69693 47.4603 5.11998C47.0064 4.50639 46.3303 4.25441 45.8 4.21627C44.7574 3.98111 43.6979 3.77932 42.6385 3.61225V2.72617C42.6389 1.22309 41.4158 0 39.9125 0H30.1089C28.6055 0 27.3825 1.22309 27.3825 2.72645V3.61266C26.3249 3.77945 25.2673 3.9807 24.2262 4.21545C23.5619 4.25496 22.9607 4.57953 22.5608 5.11998C22.1336 5.69748 22.0089 6.4225 22.2187 7.10938L22.4335 7.81225C15.2332 11.4012 10.1945 18.1725 8.72158 25.9453C8.71146 25.98 8.70258 26.0153 8.69602 26.0513C8.53783 26.9149 8.42559 27.7905 8.35668 28.6699C8.33193 28.9837 8.31266 29.298 8.29939 29.6126H7.70371C5.66154 29.6126 4 31.2648 4 33.2957V38.9792V42.5306C4 43.5597 4.72803 44.4473 5.73113 44.6414L11.0894 45.6786C11.6232 47.5882 12.3844 49.4252 13.3595 51.1554L10.3029 55.6791C9.72742 56.5306 9.83748 57.6763 10.564 58.403L15.5866 63.4256C16.3137 64.1524 17.4591 64.2622 18.3108 63.6867L22.8344 60.6303C24.5641 61.6051 26.4011 62.3664 28.3111 62.9002L29.3482 68.2585C29.5434 69.2676 30.4312 70 31.459 70H38.5621C39.5899 70 40.4777 69.2676 40.6729 68.2586L41.117 65.9642C41.2289 65.3855 40.8505 64.8255 40.2718 64.7135C39.6919 64.6006 39.1329 64.98 39.0211 65.5587L38.577 67.853C38.5756 67.8602 38.5693 67.8653 38.562 67.8653H31.4589C31.4516 67.8653 31.4452 67.8601 31.4438 67.853L30.2794 61.8369C30.2006 61.4294 29.8928 61.1048 29.4901 61.0042C27.3257 60.4636 25.2569 59.606 23.3413 58.4555C22.9857 58.2419 22.5381 58.2539 22.1941 58.4861L17.1152 61.9179C17.1091 61.9222 17.1011 61.9213 17.096 61.916L12.0734 56.8933C12.0682 56.8881 12.0674 56.8801 12.0716 56.8742L15.5032 51.7954C15.7355 51.4514 15.7474 51.004 15.5339 50.6481C14.3832 48.732 13.5259 46.6631 12.9852 44.4992C12.8845 44.0966 12.5598 43.7887 12.1524 43.7099L6.13855 42.5473C6.13814 42.5469 6.13459 42.5426 6.13459 42.5306V40.0463H16.9683C17.5226 49.5171 25.4032 57.0522 35.0105 57.0522C44.6179 57.0522 52.4987 49.5171 53.0529 40.0463H63.8637V42.5303C63.8637 42.5381 63.863 42.5446 63.8622 42.5496L57.8688 43.7097C57.4613 43.7884 57.1367 44.0963 57.0361 44.4989C56.4955 46.6629 55.638 48.7318 54.4874 50.6479C54.2738 51.0036 54.2857 51.4511 54.518 51.7951L57.9496 56.8738C57.9537 56.8799 57.9529 56.888 57.9479 56.893L52.9252 61.9157C52.92 61.921 52.9118 61.922 52.9059 61.9175L47.8271 58.4858C47.483 58.2537 47.0356 58.2416 46.6799 58.4552C44.7643 59.6057 42.6954 60.4632 40.5311 61.0039C39.9592 61.1468 39.6113 61.7262 39.7541 62.2981C39.8969 62.8701 40.4768 63.2177 41.0483 63.0751C43.1963 62.5384 45.2582 61.7169 47.187 60.63L51.7105 63.6863C52.562 64.2618 53.7078 64.1523 54.4349 63.4253L59.4575 58.4027C60.1842 57.6759 60.2941 56.5303 59.7186 55.6787L56.662 51.155C57.6371 49.4249 58.3985 47.588 58.9321 45.6783L64.2904 44.6411C65.2961 44.4464 65.9984 43.5784 65.9984 42.5303V38.9789V33.2954C65.9984 31.2646 64.3474 29.6123 62.3178 29.6123ZM55.4612 27.4781C55.4612 27.386 55.5364 27.3109 55.6286 27.3109H59.3673C59.3911 27.476 59.4137 27.6413 59.434 27.807C59.4483 27.9248 59.4611 28.0428 59.4736 28.1608C59.4898 28.3123 59.5051 28.4637 59.5183 28.6156C59.5268 28.7124 59.5349 28.8092 59.5421 28.906C59.5583 29.1221 59.5725 29.3382 59.5827 29.555C59.5837 29.5742 59.5852 29.5932 59.586 29.6122H55.4612V27.4781ZM30.4559 27.4781C30.4559 27.386 30.531 27.3109 30.6231 27.3109H38.331C38.4232 27.3109 38.4982 27.386 38.4982 27.4781V29.6123H30.4559V27.4781ZM10.4842 28.8448C10.4869 28.8092 10.49 28.7737 10.4929 28.738C10.533 28.2589 10.5886 27.7833 10.6577 27.3108H14.3928C14.485 27.3108 14.56 27.386 14.56 27.4781V29.6123H10.4355C10.4472 29.3557 10.4641 29.0999 10.4842 28.8448ZM63.8637 37.9116H28.0678C27.4783 37.9116 27.0005 38.3894 27.0005 38.9789C27.0005 39.5685 27.4783 40.0463 28.0678 40.0463H50.9127C50.3616 48.339 43.4405 54.9173 35.0107 54.9173C26.5809 54.9173 19.6598 48.339 19.1087 40.0463H22.5886C23.1781 40.0463 23.6559 39.5685 23.6559 38.9789C23.6559 38.3894 23.1781 37.9116 22.5886 37.9116H6.13473V33.2954C6.13473 32.4416 6.83855 31.7472 7.70371 31.7472H62.3178C63.1702 31.7472 63.8637 32.4417 63.8637 33.2954V37.9116Z" fill="black"/>
</g>
</g>
</g>
</svg>
