<svg width="70" height="70" viewBox="0 0 70 70" fill="none" xmlns="http://www.w3.org/2000/svg">
<g id="excavator 1" clip-path="url(#clip0_743_246)">
<path id="Vector" d="M46.6637 62.9914C46.6637 64.2799 47.7078 65.3246 48.9969 65.3246C50.2854 65.3246 51.3301 64.2799 51.3301 62.9914C51.3301 61.7029 50.2854 60.6582 48.9969 60.6582C47.7078 60.6582 46.6637 61.7029 46.6637 62.9914Z" fill="black"/>
<path id="Vector_2" d="M6.99973 55.9919H15.1659V53.6587H8.16632C7.5215 53.6587 6.99973 53.1364 6.99973 52.4921V43.1594C6.99973 42.8501 7.1222 42.5533 7.3415 42.3346L10.4995 39.1766V37.3264C10.4995 35.3937 12.066 33.8266 13.9993 33.8266H21.3173L22.4976 29.4274C23.8715 24.2956 27.5114 20.0713 32.3834 17.954L57.9141 6.77562C58.3436 6.59049 58.7982 6.47257 59.263 6.42587L59.3353 3.90812C59.4487 2.03233 60.8067 0.46643 62.6477 0.0887677C64.4887 -0.288325 66.3537 0.616812 67.1956 2.29721L68.9996 5.89383C69.6553 7.20625 69.9965 8.65368 69.9959 10.1216C69.9965 11.2067 69.9093 12.2907 69.7356 13.3622L65.5893 39.2745L66.0301 39.6026C68.6738 41.5849 70.1571 44.7532 69.9868 48.0536C69.8159 51.3535 68.0142 54.352 65.1797 56.0512L63.5933 56.9962C63.4127 57.1033 63.2059 57.1591 62.9963 57.1585H57.1633C56.7327 57.1585 56.3374 56.9216 56.134 56.5422C55.9312 56.1628 55.9535 55.7026 56.1927 55.3443L58.3299 52.1424V39.6596C58.3316 39.4938 58.3465 39.3281 58.3749 39.1652L58.9981 16.3186L40.4408 26.3708C38.8293 27.2463 37.5608 28.6402 36.8408 30.3268H43.1642C43.5538 30.3268 43.9178 30.5216 44.1343 30.8458L48.8006 37.8453C48.9282 38.0373 48.9966 38.2629 48.9972 38.493V52.4921C48.9972 53.1364 48.4748 53.6587 47.8306 53.6587H40.831V55.9919H48.9972C52.8627 55.9919 55.9967 59.126 55.9967 62.9915C55.9967 66.857 52.8627 69.9911 48.9972 69.9911H6.99973C3.13367 69.9911 0.000153315 66.857 0.000153315 62.9915C0.000153315 59.126 3.13367 55.9919 6.99973 55.9919ZM39.6644 58.3251H12.2027C14.598 60.975 14.598 65.008 12.2027 67.6579H43.7936C41.3983 65.008 41.3983 60.975 43.7936 58.3251H39.6644ZM12.8327 37.3264V38.493H23.3321V37.3264C23.3321 36.6822 22.8097 36.1598 22.1655 36.1598H13.9993C13.3545 36.1598 12.8327 36.6822 12.8327 37.3264ZM61.4139 38.5767C61.3655 38.5995 61.3182 38.6252 61.2732 38.6542C61.1997 38.6924 61.1308 38.7391 61.0676 38.7926C61.0226 38.8342 60.981 38.8792 60.9428 38.9271C60.8562 39.0319 60.7873 39.1504 60.7389 39.2768C60.7201 39.34 60.7076 39.405 60.7002 39.4705L60.691 39.794C60.7537 40.3768 61.243 40.8205 61.8297 40.8262C62.474 40.8262 62.9963 40.3038 62.9963 39.6596C62.9963 39.0154 62.474 38.493 61.8297 38.493C61.6867 38.4947 61.546 38.5232 61.4139 38.5767ZM62.675 54.8253L63.9806 54.0472C66.0888 52.7821 67.4519 50.5731 67.6371 48.122C67.8228 45.6709 66.8077 43.2819 64.9137 41.7142C64.7804 41.8213 64.6243 41.8977 64.458 41.9381C63.5335 43.0432 62.0131 43.4465 60.6631 42.9446V52.4921C60.6626 52.7223 60.5942 52.9479 60.4666 53.1398L59.3433 54.8253H62.675ZM60.7793 36.3313C60.8226 36.317 60.8659 36.3079 60.9092 36.2965C60.9964 36.2732 61.0818 36.2424 61.1712 36.2265C61.3883 36.1826 61.6087 36.1604 61.8297 36.1598C62.0542 36.161 62.278 36.1837 62.4979 36.2276C62.5714 36.2413 62.6392 36.2669 62.7104 36.2857C62.8505 36.3204 62.9889 36.3637 63.1245 36.4139C63.2037 36.4469 63.2771 36.4862 63.3575 36.5238C63.4554 36.5728 63.5563 36.6172 63.6491 36.6742L67.4292 12.9902C67.5841 12.0418 67.6621 11.0826 67.6627 10.1216C67.6627 9.01482 67.4052 7.92284 66.9102 6.93283L65.1159 3.34475C64.8459 2.84063 64.36 2.48804 63.7972 2.38835C63.2344 2.2881 62.6568 2.45158 62.2296 2.83152C61.9015 3.13912 61.6998 3.55836 61.6651 4.00723L61.5842 6.82688C63.1125 7.53664 64.1094 9.04672 64.1612 10.7305C64.213 12.4144 63.3107 13.9831 61.8297 14.7857L61.3626 15.0341L60.7793 36.3313ZM39.3249 24.3156L60.7167 12.7333C61.7073 12.1842 62.094 10.9555 61.5962 9.93818C61.0989 8.92026 59.8919 8.47083 58.85 8.91513L33.325 20.0923C29.1024 21.9271 25.9472 25.5881 24.7561 30.0352L23.6482 34.165C24.8758 34.7392 25.6618 35.9707 25.6653 37.3264V38.493H27.9984V31.4934C27.9984 30.8492 28.5202 30.3268 29.165 30.3268H34.3504C35.1746 27.7578 36.9587 25.6058 39.3306 24.3201L39.3249 24.3156ZM46.664 38.8428L42.5399 32.66H30.3316V36.1598H32.6648C32.9741 36.1598 33.2703 36.2829 33.4891 36.5016L40.4887 43.5012C40.708 43.7199 40.8304 44.0167 40.831 44.326V46.6592H46.664V38.8428ZM30.3316 38.493V46.6592H38.4978V44.809L32.1818 38.493H30.3316ZM46.664 48.9924H29.165C28.5202 48.9924 27.9984 48.47 27.9984 47.8258V40.8262H12.1486L9.33292 43.6424V51.3256H46.664V48.9924ZM38.4978 53.6587H17.4991V55.9919H38.4978V53.6587ZM53.6636 62.9915C53.6636 60.4145 51.5742 58.3251 48.9972 58.3251C46.4196 58.3251 44.3308 60.4145 44.3308 62.9915C44.3308 65.5685 46.4196 67.6579 48.9972 67.6579C51.5742 67.6579 53.6636 65.5685 53.6636 62.9915ZM6.99973 67.6579C9.57672 67.6579 11.6661 65.5685 11.6661 62.9915C11.6661 60.4145 9.57672 58.3251 6.99973 58.3251C4.42217 58.3251 2.33334 60.4145 2.33334 62.9915C2.33334 65.5685 4.42217 67.6579 6.99973 67.6579Z" fill="black"/>
<path id="Vector_3" d="M4.6676 62.9914C4.6676 64.2799 5.71173 65.3246 7.00079 65.3246C8.28929 65.3246 9.33398 64.2799 9.33398 62.9914C9.33398 61.7029 8.28929 60.6582 7.00079 60.6582C5.71173 60.6582 4.6676 61.7029 4.6676 62.9914Z" fill="black"/>
<path id="Vector_4" d="M25.6641 61.825H23.3309V64.1581H25.6641V61.825Z" fill="black"/>
<path id="Vector_5" d="M32.6641 61.8248H30.3309V64.158H32.6641V61.8248Z" fill="black"/>
<path id="Vector_6" d="M18.666 61.8248H16.3328V64.158H18.666V61.8248Z" fill="black"/>
<path id="Vector_7" d="M39.6641 61.825H37.3309V64.1581H39.6641V61.825Z" fill="black"/>
<path id="Vector_8" d="M15.166 43.1593H12.8328V46.6591H15.166V43.1593Z" fill="black"/>
<path id="Vector_9" d="M19.832 43.1594H17.4988V46.6592H19.832V43.1594Z" fill="black"/>
</g>
<defs>
<clipPath id="clip0_743_246">
<rect width="70" height="70" fill="white" transform="matrix(-1 0 0 1 70 0)"/>
</clipPath>
</defs>
</svg>
