<svg width="70" height="70" viewBox="0 0 70 70" fill="none" xmlns="http://www.w3.org/2000/svg">
<g id="property 1">
<path id="Vector" d="M61.5911 47.0746C61.0502 46.1717 58.8388 43.4855 53.0892 46.8341L43.2608 52.5587C42.9441 52.7431 42.6238 52.8912 42.2957 53.0037C42.3844 52.8034 42.4593 52.5908 42.5195 52.3666C43.0524 50.3774 41.8738 48.3019 39.8362 47.6413C39.7893 47.6263 39.7416 47.6142 39.6931 47.6053C36.8864 47.0992 34.108 46.0946 31.8755 45.2875C31.0958 45.0056 30.3593 44.7393 29.7309 44.5356C27.1306 43.692 24.802 44.7241 22.867 45.8452L15.7501 49.9687L15.3317 49.2294C14.9984 48.6402 14.4539 48.2156 13.7987 48.0341C13.1433 47.8525 12.4583 47.9362 11.8691 48.2698L9.11143 49.8304C8.52218 50.1637 8.09767 50.7083 7.9161 51.3633C7.73454 52.0185 7.81821 52.7037 8.15181 53.293L16.2591 67.6179C16.5924 68.2072 17.137 68.6317 17.7921 68.8133C18.0187 68.876 18.2488 68.9072 18.4772 68.9072C18.9097 68.9072 19.3362 68.7959 19.7219 68.5777L22.4795 67.0171C23.6988 66.3269 24.1292 64.7737 23.4393 63.5544L22.5497 61.9824L23.9466 61.1758L36.4462 64.5251C37.1602 64.7164 37.8705 64.8115 38.5694 64.8115C39.9836 64.8115 41.3499 64.422 42.5991 63.6531L60.4351 52.6704C62.1586 51.6093 62.7096 48.9423 61.5911 47.0746ZM21.402 65.1134L18.6444 66.674C18.5356 66.7356 18.4299 66.7198 18.3765 66.7054C18.3231 66.6906 18.2246 66.6496 18.1629 66.5406L10.0556 52.2155C9.96142 52.0488 10.0225 51.8284 10.1892 51.7341L12.9468 50.1735C13.0071 50.1393 13.0666 50.1289 13.1166 50.1289C13.1568 50.1289 13.191 50.1357 13.2148 50.1423C13.2681 50.1569 13.3667 50.1981 13.4283 50.307L21.5356 64.6319C21.6298 64.7984 21.5687 65.0189 21.402 65.1134ZM59.288 50.8076L41.4521 61.7903C40.0915 62.6277 38.5977 62.837 37.012 62.4121L24.075 58.9456C23.795 58.8704 23.4963 58.9098 23.2451 59.0548L21.4719 60.0786L16.8277 51.8726L23.9637 47.7381C25.5577 46.8146 27.2777 46.0396 29.0562 46.6164C29.65 46.8091 30.3367 47.0574 31.1319 47.3449C33.4209 48.1724 36.2645 49.2004 39.224 49.7435C40.1302 50.0683 40.6369 50.9417 40.4066 51.8005C40.1767 52.6585 39.5612 53.0629 38.5758 53.0048C36.9796 52.6932 35.5407 52.2851 34.0327 51.8573C33.3789 51.6719 32.7027 51.4801 31.9909 51.2895C31.4077 51.1336 30.8079 51.4795 30.6513 52.0629C30.4949 52.6464 30.8414 53.2461 31.4248 53.4025C32.1212 53.589 32.7893 53.7786 33.4356 53.9619C34.8772 54.3706 36.2575 54.7621 37.7866 55.0776C37.8768 55.1154 38.9238 55.2938 39.2571 55.3473C41.1375 55.6481 42.8071 55.3544 44.3616 54.4493L54.1902 48.7248C56.8607 47.1695 58.9775 46.9682 59.7143 48.1988C60.2135 49.0319 59.9942 50.3728 59.288 50.8076ZM13.4756 52.4609C13.5542 52.9989 13.182 53.4989 12.644 53.5775C12.1058 53.6561 11.606 53.2838 11.5274 52.7457C11.4486 52.2077 11.8211 51.7077 12.3592 51.6291C12.897 51.5504 13.397 51.9228 13.4756 52.4609ZM19.6198 43.2541H60.6679C61.272 43.2541 61.7617 42.7644 61.7617 42.1604V15.0071C61.7617 14.403 61.272 13.9133 60.6679 13.9133H53.695V6.33746C53.695 5.73344 53.2053 5.24371 52.6013 5.24371H48.1258V2.1875C48.1258 1.58348 47.636 1.09375 47.032 1.09375H33.2558C32.6518 1.09375 32.1621 1.58348 32.1621 2.1875V5.24357H27.6866C27.0826 5.24357 26.5928 5.7333 26.5928 6.33732V13.9132H19.6198C19.0158 13.9132 18.526 14.4029 18.526 15.0069V42.1602C18.526 42.7644 19.0158 43.2541 19.6198 43.2541ZM45.2834 41.0666H35.0045V30.3265C35.0045 29.3386 35.8082 28.5348 36.7962 28.5348H43.4917C44.4796 28.5348 45.2832 29.3386 45.2832 30.3265V41.0666H45.2834ZM59.5742 16.1008V41.0666H53.695V16.1008H59.5742ZM34.3496 3.28125H45.9383V5.24357H34.3496V3.28125ZM51.5075 7.43121V41.0668H47.4709V30.3267C47.4709 28.1326 45.6857 26.3475 43.4918 26.3475H36.7963C34.6021 26.3475 32.8171 28.1326 32.8171 30.3267V41.0668H28.7805V7.43121H51.5075ZM20.7135 16.1008H26.5928V41.0666H20.7135V16.1008ZM41.9226 24.3197H46.3771C46.9812 24.3197 47.4709 23.8299 47.4709 23.2259V18.7713C47.4709 18.1673 46.9812 17.6776 46.3771 17.6776H41.9226C41.3185 17.6776 40.8288 18.1673 40.8288 18.7713V23.2259C40.8288 23.8301 41.3185 24.3197 41.9226 24.3197ZM43.0163 19.8651H45.2834V22.1322H43.0163V19.8651ZM41.9226 16.1008H46.3771C46.9812 16.1008 47.4709 15.6111 47.4709 15.0071V10.5525C47.4709 9.94848 46.9812 9.45875 46.3771 9.45875H41.9226C41.3185 9.45875 40.8288 9.94848 40.8288 10.5525V15.0071C40.8288 15.6111 41.3185 16.1008 41.9226 16.1008ZM43.0163 11.6462H45.2834V13.9133H43.0163V11.6462ZM33.9107 16.1008H38.3653C38.9693 16.1008 39.459 15.6111 39.459 15.0071V10.5525C39.459 9.94848 38.9693 9.45875 38.3653 9.45875H33.9107C33.3067 9.45875 32.817 9.94848 32.817 10.5525V15.0071C32.817 15.6111 33.3067 16.1008 33.9107 16.1008ZM35.0045 11.6462H37.2715V13.9133H35.0045V11.6462ZM33.9107 24.3197H38.3653C38.9693 24.3197 39.459 23.8299 39.459 23.2259V18.7713C39.459 18.1673 38.9693 17.6776 38.3653 17.6776H33.9107C33.3067 17.6776 32.817 18.1673 32.817 18.7713V23.2259C32.817 23.8301 33.3067 24.3197 33.9107 24.3197ZM35.0045 19.8651H37.2715V22.1322H35.0045V19.8651Z" fill="black"/>
</g>
</svg>
